%TF.GenerationSoftware,KiCad,Pcbnew,(6.0.5)*%
%TF.CreationDate,2023-02-15T13:54:09-05:00*%
%TF.ProjectId,floppy_power,666c6f70-7079-45f7-906f-7765722e6b69,rev?*%
%TF.SameCoordinates,Original*%
%TF.FileFunction,Legend,Top*%
%TF.FilePolarity,Positive*%
%FSLAX46Y46*%
G04 Gerber Fmt 4.6, Leading zero omitted, Abs format (unit mm)*
G04 Created by KiCad (PCBNEW (6.0.5)) date 2023-02-15 13:54:09*
%MOMM*%
%LPD*%
G01*
G04 APERTURE LIST*
%ADD10C,0.120000*%
G04 APERTURE END LIST*
D10*
%TO.C,J2*%
X80800000Y-101660000D02*
X81570000Y-101660000D01*
X78260000Y-101660000D02*
X79220000Y-101660000D01*
X75910000Y-102220000D02*
X76680000Y-102220000D01*
X75910000Y-96360000D02*
X81570000Y-96360000D01*
X81570000Y-95900000D02*
X81570000Y-102220000D01*
X75910000Y-101660000D02*
X76680000Y-101660000D01*
X80800000Y-102220000D02*
X81570000Y-102220000D01*
X78260000Y-102220000D02*
X79220000Y-102220000D01*
X75670000Y-102460000D02*
X76170000Y-102460000D01*
X75670000Y-101720000D02*
X75670000Y-102460000D01*
X75910000Y-95900000D02*
X75910000Y-102220000D01*
X75910000Y-95900000D02*
X81570000Y-95900000D01*
%TO.C,J5*%
X98530000Y-101720000D02*
X98530000Y-102460000D01*
X98530000Y-102460000D02*
X99030000Y-102460000D01*
X98770000Y-95900000D02*
X98770000Y-102220000D01*
X98770000Y-96360000D02*
X104430000Y-96360000D01*
X98770000Y-95900000D02*
X104430000Y-95900000D01*
X101120000Y-102220000D02*
X102080000Y-102220000D01*
X98770000Y-101660000D02*
X99540000Y-101660000D01*
X103660000Y-101660000D02*
X104430000Y-101660000D01*
X98770000Y-102220000D02*
X99540000Y-102220000D01*
X101120000Y-101660000D02*
X102080000Y-101660000D01*
X103660000Y-102220000D02*
X104430000Y-102220000D01*
X104430000Y-95900000D02*
X104430000Y-102220000D01*
%TO.C,J3*%
X85880000Y-101660000D02*
X86840000Y-101660000D01*
X83290000Y-101720000D02*
X83290000Y-102460000D01*
X83530000Y-101660000D02*
X84300000Y-101660000D01*
X83530000Y-102220000D02*
X84300000Y-102220000D01*
X83530000Y-95900000D02*
X89190000Y-95900000D01*
X88420000Y-102220000D02*
X89190000Y-102220000D01*
X83530000Y-96360000D02*
X89190000Y-96360000D01*
X83290000Y-102460000D02*
X83790000Y-102460000D01*
X85880000Y-102220000D02*
X86840000Y-102220000D01*
X89190000Y-95900000D02*
X89190000Y-102220000D01*
X83530000Y-95900000D02*
X83530000Y-102220000D01*
X88420000Y-101660000D02*
X89190000Y-101660000D01*
%TO.C,J4*%
X96810000Y-95900000D02*
X96810000Y-102220000D01*
X91150000Y-95900000D02*
X96810000Y-95900000D01*
X90910000Y-101720000D02*
X90910000Y-102460000D01*
X90910000Y-102460000D02*
X91410000Y-102460000D01*
X93500000Y-101660000D02*
X94460000Y-101660000D01*
X91150000Y-96360000D02*
X96810000Y-96360000D01*
X96040000Y-101660000D02*
X96810000Y-101660000D01*
X91150000Y-102220000D02*
X91920000Y-102220000D01*
X91150000Y-101660000D02*
X91920000Y-101660000D01*
X96040000Y-102220000D02*
X96810000Y-102220000D01*
X93500000Y-102220000D02*
X94460000Y-102220000D01*
X91150000Y-95900000D02*
X91150000Y-102220000D01*
%TO.C,J6*%
X111280000Y-102220000D02*
X112050000Y-102220000D01*
X108740000Y-102220000D02*
X109700000Y-102220000D01*
X106390000Y-96360000D02*
X112050000Y-96360000D01*
X111280000Y-101660000D02*
X112050000Y-101660000D01*
X106150000Y-102460000D02*
X106650000Y-102460000D01*
X106390000Y-102220000D02*
X107160000Y-102220000D01*
X106390000Y-95900000D02*
X112050000Y-95900000D01*
X108740000Y-101660000D02*
X109700000Y-101660000D01*
X106150000Y-101720000D02*
X106150000Y-102460000D01*
X106390000Y-101660000D02*
X107160000Y-101660000D01*
X106390000Y-95900000D02*
X106390000Y-102220000D01*
X112050000Y-95900000D02*
X112050000Y-102220000D01*
%TO.C,J1*%
X68290000Y-96360000D02*
X73950000Y-96360000D01*
X68290000Y-95900000D02*
X68290000Y-102220000D01*
X70640000Y-102220000D02*
X71600000Y-102220000D01*
X73950000Y-95900000D02*
X73950000Y-102220000D01*
X68050000Y-101720000D02*
X68050000Y-102460000D01*
X73180000Y-102220000D02*
X73950000Y-102220000D01*
X70640000Y-101660000D02*
X71600000Y-101660000D01*
X68290000Y-95900000D02*
X73950000Y-95900000D01*
X68290000Y-102220000D02*
X69060000Y-102220000D01*
X68290000Y-101660000D02*
X69060000Y-101660000D01*
X68050000Y-102460000D02*
X68550000Y-102460000D01*
X73180000Y-101660000D02*
X73950000Y-101660000D01*
%TD*%
M02*
