%TF.GenerationSoftware,KiCad,Pcbnew,(6.0.5)*%
%TF.CreationDate,2023-02-15T13:54:09-05:00*%
%TF.ProjectId,floppy_power,666c6f70-7079-45f7-906f-7765722e6b69,rev?*%
%TF.SameCoordinates,Original*%
%TF.FileFunction,Copper,L2,Bot*%
%TF.FilePolarity,Positive*%
%FSLAX46Y46*%
G04 Gerber Fmt 4.6, Leading zero omitted, Abs format (unit mm)*
G04 Created by KiCad (PCBNEW (6.0.5)) date 2023-02-15 13:54:09*
%MOMM*%
%LPD*%
G01*
G04 APERTURE LIST*
%TA.AperFunction,ComponentPad*%
%ADD10R,2.200000X2.200000*%
%TD*%
%TA.AperFunction,ComponentPad*%
%ADD11C,2.200000*%
%TD*%
G04 APERTURE END LIST*
D10*
%TO.P,J2,1,Pin_1*%
%TO.N,+5V*%
X77470000Y-99060000D03*
D11*
%TO.P,J2,2,Pin_2*%
%TO.N,GND*%
X80010000Y-99060000D03*
%TD*%
D10*
%TO.P,J5,1,Pin_1*%
%TO.N,+5V*%
X100330000Y-99060000D03*
D11*
%TO.P,J5,2,Pin_2*%
%TO.N,GND*%
X102870000Y-99060000D03*
%TD*%
D10*
%TO.P,J3,1,Pin_1*%
%TO.N,+5V*%
X85090000Y-99060000D03*
D11*
%TO.P,J3,2,Pin_2*%
%TO.N,GND*%
X87630000Y-99060000D03*
%TD*%
D10*
%TO.P,J4,1,Pin_1*%
%TO.N,+5V*%
X92710000Y-99060000D03*
D11*
%TO.P,J4,2,Pin_2*%
%TO.N,GND*%
X95250000Y-99060000D03*
%TD*%
D10*
%TO.P,J6,1,Pin_1*%
%TO.N,+5V*%
X107950000Y-99060000D03*
D11*
%TO.P,J6,2,Pin_2*%
%TO.N,GND*%
X110490000Y-99060000D03*
%TD*%
D10*
%TO.P,J1,1,Pin_1*%
%TO.N,+5V*%
X69850000Y-99060000D03*
D11*
%TO.P,J1,2,Pin_2*%
%TO.N,GND*%
X72390000Y-99060000D03*
%TD*%
%TA.AperFunction,Conductor*%
%TO.N,GND*%
G36*
X116810018Y-95760000D02*
G01*
X116824851Y-95762310D01*
X116824855Y-95762310D01*
X116833724Y-95763691D01*
X116852436Y-95761244D01*
X116875366Y-95760353D01*
X117178503Y-95776240D01*
X117191617Y-95777618D01*
X117519898Y-95829613D01*
X117532798Y-95832355D01*
X117853846Y-95918379D01*
X117866382Y-95922453D01*
X118137468Y-96026513D01*
X118176672Y-96041562D01*
X118188720Y-96046926D01*
X118484867Y-96197820D01*
X118496288Y-96204414D01*
X118775040Y-96385437D01*
X118785710Y-96393190D01*
X119044004Y-96602352D01*
X119053805Y-96611177D01*
X119288823Y-96846195D01*
X119297648Y-96855996D01*
X119506810Y-97114290D01*
X119514563Y-97124960D01*
X119695586Y-97403712D01*
X119702180Y-97415133D01*
X119853074Y-97711280D01*
X119858438Y-97723328D01*
X119930812Y-97911866D01*
X119977545Y-98033610D01*
X119981621Y-98046154D01*
X120067645Y-98367202D01*
X120070387Y-98380102D01*
X120122382Y-98708383D01*
X120123760Y-98721500D01*
X120141154Y-99053406D01*
X120141154Y-99066594D01*
X120123760Y-99398500D01*
X120122382Y-99411617D01*
X120070387Y-99739898D01*
X120067645Y-99752798D01*
X119981621Y-100073846D01*
X119977547Y-100086382D01*
X119874030Y-100356054D01*
X119858438Y-100396672D01*
X119853074Y-100408720D01*
X119702180Y-100704867D01*
X119695586Y-100716288D01*
X119514563Y-100995040D01*
X119506810Y-101005710D01*
X119297648Y-101264004D01*
X119288823Y-101273805D01*
X119053805Y-101508823D01*
X119044004Y-101517648D01*
X118785710Y-101726810D01*
X118775040Y-101734563D01*
X118496288Y-101915586D01*
X118484867Y-101922180D01*
X118188720Y-102073074D01*
X118176671Y-102078438D01*
X117866382Y-102197547D01*
X117853848Y-102201620D01*
X117685380Y-102246761D01*
X117532798Y-102287645D01*
X117519898Y-102290387D01*
X117191617Y-102342382D01*
X117178501Y-102343760D01*
X117144848Y-102345524D01*
X116882702Y-102359262D01*
X116856727Y-102357935D01*
X116855157Y-102357691D01*
X116855151Y-102357691D01*
X116846276Y-102356309D01*
X116837374Y-102357473D01*
X116837372Y-102357473D01*
X116822323Y-102359441D01*
X116814714Y-102360436D01*
X116798379Y-102361500D01*
X111492999Y-102361500D01*
X111424878Y-102341498D01*
X111378385Y-102287842D01*
X111368281Y-102217568D01*
X111382162Y-102175575D01*
X111470514Y-102012170D01*
X111531898Y-101813871D01*
X111533429Y-101799303D01*
X111552952Y-101613554D01*
X111552952Y-101613552D01*
X111553596Y-101607425D01*
X111534782Y-101400697D01*
X111532298Y-101392255D01*
X111477912Y-101207469D01*
X111476173Y-101201560D01*
X111380001Y-101017600D01*
X111355380Y-100986977D01*
X111344985Y-100974049D01*
X111249929Y-100855823D01*
X111237371Y-100845285D01*
X111113688Y-100741503D01*
X111074361Y-100682393D01*
X111073235Y-100611405D01*
X111110666Y-100551078D01*
X111146461Y-100528572D01*
X111217700Y-100499064D01*
X111226494Y-100494583D01*
X111421167Y-100375287D01*
X111430627Y-100364830D01*
X111426844Y-100356054D01*
X110219885Y-99149095D01*
X110185859Y-99086783D01*
X110187694Y-99061132D01*
X110854408Y-99061132D01*
X110854539Y-99062965D01*
X110858790Y-99069580D01*
X111783010Y-99993800D01*
X111795390Y-100000560D01*
X111803040Y-99994833D01*
X111924583Y-99796494D01*
X111929064Y-99787700D01*
X112022134Y-99563009D01*
X112025183Y-99553624D01*
X112081959Y-99317137D01*
X112083502Y-99307390D01*
X112092528Y-99192703D01*
X114730743Y-99192703D01*
X114768268Y-99477734D01*
X114844129Y-99755036D01*
X114845813Y-99758984D01*
X114948855Y-100000560D01*
X114956923Y-100019476D01*
X114968693Y-100039142D01*
X115071866Y-100211531D01*
X115104561Y-100266161D01*
X115284313Y-100490528D01*
X115357122Y-100559621D01*
X115486497Y-100682393D01*
X115492851Y-100688423D01*
X115567631Y-100742158D01*
X115717756Y-100850034D01*
X115726317Y-100856186D01*
X115730112Y-100858195D01*
X115730113Y-100858196D01*
X115751869Y-100869715D01*
X115980392Y-100990712D01*
X116250373Y-101089511D01*
X116531264Y-101150755D01*
X116559841Y-101153004D01*
X116754282Y-101168307D01*
X116754291Y-101168307D01*
X116756739Y-101168500D01*
X116912271Y-101168500D01*
X116914407Y-101168354D01*
X116914418Y-101168354D01*
X117122548Y-101154165D01*
X117122554Y-101154164D01*
X117126825Y-101153873D01*
X117131020Y-101153004D01*
X117131022Y-101153004D01*
X117267583Y-101124724D01*
X117408342Y-101095574D01*
X117679343Y-100999607D01*
X117934812Y-100867750D01*
X117938313Y-100865289D01*
X117938317Y-100865287D01*
X118052417Y-100785096D01*
X118170023Y-100702441D01*
X118274635Y-100605229D01*
X118377479Y-100509661D01*
X118377481Y-100509658D01*
X118380622Y-100506740D01*
X118562713Y-100284268D01*
X118712927Y-100039142D01*
X118828483Y-99775898D01*
X118907244Y-99499406D01*
X118947751Y-99214784D01*
X118947845Y-99196951D01*
X118949235Y-98931583D01*
X118949235Y-98931576D01*
X118949257Y-98927297D01*
X118911732Y-98642266D01*
X118835871Y-98364964D01*
X118735152Y-98128833D01*
X118724763Y-98104476D01*
X118724761Y-98104472D01*
X118723077Y-98100524D01*
X118648527Y-97975960D01*
X118577643Y-97857521D01*
X118577640Y-97857517D01*
X118575439Y-97853839D01*
X118395687Y-97629472D01*
X118214363Y-97457402D01*
X118190258Y-97434527D01*
X118190255Y-97434525D01*
X118187149Y-97431577D01*
X117953683Y-97263814D01*
X117931843Y-97252250D01*
X117908654Y-97239972D01*
X117699608Y-97129288D01*
X117429627Y-97030489D01*
X117148736Y-96969245D01*
X117117685Y-96966801D01*
X116925718Y-96951693D01*
X116925709Y-96951693D01*
X116923261Y-96951500D01*
X116767729Y-96951500D01*
X116765593Y-96951646D01*
X116765582Y-96951646D01*
X116557452Y-96965835D01*
X116557446Y-96965836D01*
X116553175Y-96966127D01*
X116548980Y-96966996D01*
X116548978Y-96966996D01*
X116412417Y-96995276D01*
X116271658Y-97024426D01*
X116000657Y-97120393D01*
X115745188Y-97252250D01*
X115741687Y-97254711D01*
X115741683Y-97254713D01*
X115731594Y-97261804D01*
X115509977Y-97417559D01*
X115455652Y-97468041D01*
X115317157Y-97596739D01*
X115299378Y-97613260D01*
X115117287Y-97835732D01*
X114967073Y-98080858D01*
X114851517Y-98344102D01*
X114772756Y-98620594D01*
X114732249Y-98905216D01*
X114732227Y-98909505D01*
X114732226Y-98909512D01*
X114730971Y-99149095D01*
X114730743Y-99192703D01*
X112092528Y-99192703D01*
X112102584Y-99064930D01*
X112102584Y-99055070D01*
X112083502Y-98812610D01*
X112081959Y-98802863D01*
X112025183Y-98566376D01*
X112022134Y-98556991D01*
X111929064Y-98332300D01*
X111924583Y-98323506D01*
X111805287Y-98128833D01*
X111794830Y-98119373D01*
X111786054Y-98123156D01*
X110862022Y-99047188D01*
X110854408Y-99061132D01*
X110187694Y-99061132D01*
X110190924Y-99015968D01*
X110219885Y-98970905D01*
X111423800Y-97766990D01*
X111430560Y-97754610D01*
X111424833Y-97746960D01*
X111226494Y-97625417D01*
X111217700Y-97620936D01*
X110993009Y-97527866D01*
X110983624Y-97524817D01*
X110747137Y-97468041D01*
X110737390Y-97466498D01*
X110494930Y-97447416D01*
X110485070Y-97447416D01*
X110242610Y-97466498D01*
X110232863Y-97468041D01*
X109996376Y-97524817D01*
X109986991Y-97527866D01*
X109762300Y-97620936D01*
X109753506Y-97625417D01*
X109632915Y-97699315D01*
X109564381Y-97717853D01*
X109496704Y-97696396D01*
X109466254Y-97667447D01*
X109418643Y-97603920D01*
X109418642Y-97603919D01*
X109413261Y-97596739D01*
X109296705Y-97509385D01*
X109160316Y-97458255D01*
X109098134Y-97451500D01*
X106801866Y-97451500D01*
X106739684Y-97458255D01*
X106603295Y-97509385D01*
X106486739Y-97596739D01*
X106399385Y-97713295D01*
X106348255Y-97849684D01*
X106341500Y-97911866D01*
X106341500Y-100208134D01*
X106348255Y-100270316D01*
X106399385Y-100406705D01*
X106486739Y-100523261D01*
X106603295Y-100610615D01*
X106739684Y-100661745D01*
X106801866Y-100668500D01*
X107079022Y-100668500D01*
X107147143Y-100688502D01*
X107193636Y-100742158D01*
X107203740Y-100812432D01*
X107176106Y-100874815D01*
X107068217Y-101005230D01*
X107065288Y-101010647D01*
X107065286Y-101010650D01*
X106972416Y-101182410D01*
X106972414Y-101182415D01*
X106969486Y-101187830D01*
X106908102Y-101386129D01*
X106907458Y-101392254D01*
X106907458Y-101392255D01*
X106895207Y-101508823D01*
X106886404Y-101592575D01*
X106888313Y-101613554D01*
X106898621Y-101726810D01*
X106905218Y-101799303D01*
X106906956Y-101805209D01*
X106906957Y-101805213D01*
X106950473Y-101953068D01*
X106963827Y-101998440D01*
X106966681Y-102003899D01*
X107057241Y-102177125D01*
X107071075Y-102246761D01*
X107045065Y-102312821D01*
X106987469Y-102354333D01*
X106945579Y-102361500D01*
X103872999Y-102361500D01*
X103804878Y-102341498D01*
X103758385Y-102287842D01*
X103748281Y-102217568D01*
X103762162Y-102175575D01*
X103850514Y-102012170D01*
X103911898Y-101813871D01*
X103913429Y-101799303D01*
X103932952Y-101613554D01*
X103932952Y-101613552D01*
X103933596Y-101607425D01*
X103914782Y-101400697D01*
X103912298Y-101392255D01*
X103857912Y-101207469D01*
X103856173Y-101201560D01*
X103760001Y-101017600D01*
X103735380Y-100986977D01*
X103724985Y-100974049D01*
X103629929Y-100855823D01*
X103617371Y-100845285D01*
X103493688Y-100741503D01*
X103454361Y-100682393D01*
X103453235Y-100611405D01*
X103490666Y-100551078D01*
X103526461Y-100528572D01*
X103597700Y-100499064D01*
X103606494Y-100494583D01*
X103801167Y-100375287D01*
X103810627Y-100364830D01*
X103806844Y-100356054D01*
X102599885Y-99149095D01*
X102565859Y-99086783D01*
X102567694Y-99061132D01*
X103234408Y-99061132D01*
X103234539Y-99062965D01*
X103238790Y-99069580D01*
X104163010Y-99993800D01*
X104175390Y-100000560D01*
X104183040Y-99994833D01*
X104304583Y-99796494D01*
X104309064Y-99787700D01*
X104402134Y-99563009D01*
X104405183Y-99553624D01*
X104461959Y-99317137D01*
X104463502Y-99307390D01*
X104482584Y-99064930D01*
X104482584Y-99055070D01*
X104463502Y-98812610D01*
X104461959Y-98802863D01*
X104405183Y-98566376D01*
X104402134Y-98556991D01*
X104309064Y-98332300D01*
X104304583Y-98323506D01*
X104185287Y-98128833D01*
X104174830Y-98119373D01*
X104166054Y-98123156D01*
X103242022Y-99047188D01*
X103234408Y-99061132D01*
X102567694Y-99061132D01*
X102570924Y-99015968D01*
X102599885Y-98970905D01*
X103803800Y-97766990D01*
X103810560Y-97754610D01*
X103804833Y-97746960D01*
X103606494Y-97625417D01*
X103597700Y-97620936D01*
X103373009Y-97527866D01*
X103363624Y-97524817D01*
X103127137Y-97468041D01*
X103117390Y-97466498D01*
X102874930Y-97447416D01*
X102865070Y-97447416D01*
X102622610Y-97466498D01*
X102612863Y-97468041D01*
X102376376Y-97524817D01*
X102366991Y-97527866D01*
X102142300Y-97620936D01*
X102133506Y-97625417D01*
X102012915Y-97699315D01*
X101944381Y-97717853D01*
X101876704Y-97696396D01*
X101846254Y-97667447D01*
X101798643Y-97603920D01*
X101798642Y-97603919D01*
X101793261Y-97596739D01*
X101676705Y-97509385D01*
X101540316Y-97458255D01*
X101478134Y-97451500D01*
X99181866Y-97451500D01*
X99119684Y-97458255D01*
X98983295Y-97509385D01*
X98866739Y-97596739D01*
X98779385Y-97713295D01*
X98728255Y-97849684D01*
X98721500Y-97911866D01*
X98721500Y-100208134D01*
X98728255Y-100270316D01*
X98779385Y-100406705D01*
X98866739Y-100523261D01*
X98983295Y-100610615D01*
X99119684Y-100661745D01*
X99181866Y-100668500D01*
X99459022Y-100668500D01*
X99527143Y-100688502D01*
X99573636Y-100742158D01*
X99583740Y-100812432D01*
X99556106Y-100874815D01*
X99448217Y-101005230D01*
X99445288Y-101010647D01*
X99445286Y-101010650D01*
X99352416Y-101182410D01*
X99352414Y-101182415D01*
X99349486Y-101187830D01*
X99288102Y-101386129D01*
X99287458Y-101392254D01*
X99287458Y-101392255D01*
X99275207Y-101508823D01*
X99266404Y-101592575D01*
X99268313Y-101613554D01*
X99278621Y-101726810D01*
X99285218Y-101799303D01*
X99286956Y-101805209D01*
X99286957Y-101805213D01*
X99330473Y-101953068D01*
X99343827Y-101998440D01*
X99346681Y-102003899D01*
X99437241Y-102177125D01*
X99451075Y-102246761D01*
X99425065Y-102312821D01*
X99367469Y-102354333D01*
X99325579Y-102361500D01*
X96252999Y-102361500D01*
X96184878Y-102341498D01*
X96138385Y-102287842D01*
X96128281Y-102217568D01*
X96142162Y-102175575D01*
X96230514Y-102012170D01*
X96291898Y-101813871D01*
X96293429Y-101799303D01*
X96312952Y-101613554D01*
X96312952Y-101613552D01*
X96313596Y-101607425D01*
X96294782Y-101400697D01*
X96292298Y-101392255D01*
X96237912Y-101207469D01*
X96236173Y-101201560D01*
X96140001Y-101017600D01*
X96115380Y-100986977D01*
X96104985Y-100974049D01*
X96009929Y-100855823D01*
X95997371Y-100845285D01*
X95873688Y-100741503D01*
X95834361Y-100682393D01*
X95833235Y-100611405D01*
X95870666Y-100551078D01*
X95906461Y-100528572D01*
X95977700Y-100499064D01*
X95986494Y-100494583D01*
X96181167Y-100375287D01*
X96190627Y-100364830D01*
X96186844Y-100356054D01*
X94979885Y-99149095D01*
X94945859Y-99086783D01*
X94947694Y-99061132D01*
X95614408Y-99061132D01*
X95614539Y-99062965D01*
X95618790Y-99069580D01*
X96543010Y-99993800D01*
X96555390Y-100000560D01*
X96563040Y-99994833D01*
X96684583Y-99796494D01*
X96689064Y-99787700D01*
X96782134Y-99563009D01*
X96785183Y-99553624D01*
X96841959Y-99317137D01*
X96843502Y-99307390D01*
X96862584Y-99064930D01*
X96862584Y-99055070D01*
X96843502Y-98812610D01*
X96841959Y-98802863D01*
X96785183Y-98566376D01*
X96782134Y-98556991D01*
X96689064Y-98332300D01*
X96684583Y-98323506D01*
X96565287Y-98128833D01*
X96554830Y-98119373D01*
X96546054Y-98123156D01*
X95622022Y-99047188D01*
X95614408Y-99061132D01*
X94947694Y-99061132D01*
X94950924Y-99015968D01*
X94979885Y-98970905D01*
X96183800Y-97766990D01*
X96190560Y-97754610D01*
X96184833Y-97746960D01*
X95986494Y-97625417D01*
X95977700Y-97620936D01*
X95753009Y-97527866D01*
X95743624Y-97524817D01*
X95507137Y-97468041D01*
X95497390Y-97466498D01*
X95254930Y-97447416D01*
X95245070Y-97447416D01*
X95002610Y-97466498D01*
X94992863Y-97468041D01*
X94756376Y-97524817D01*
X94746991Y-97527866D01*
X94522300Y-97620936D01*
X94513506Y-97625417D01*
X94392915Y-97699315D01*
X94324381Y-97717853D01*
X94256704Y-97696396D01*
X94226254Y-97667447D01*
X94178643Y-97603920D01*
X94178642Y-97603919D01*
X94173261Y-97596739D01*
X94056705Y-97509385D01*
X93920316Y-97458255D01*
X93858134Y-97451500D01*
X91561866Y-97451500D01*
X91499684Y-97458255D01*
X91363295Y-97509385D01*
X91246739Y-97596739D01*
X91159385Y-97713295D01*
X91108255Y-97849684D01*
X91101500Y-97911866D01*
X91101500Y-100208134D01*
X91108255Y-100270316D01*
X91159385Y-100406705D01*
X91246739Y-100523261D01*
X91363295Y-100610615D01*
X91499684Y-100661745D01*
X91561866Y-100668500D01*
X91839022Y-100668500D01*
X91907143Y-100688502D01*
X91953636Y-100742158D01*
X91963740Y-100812432D01*
X91936106Y-100874815D01*
X91828217Y-101005230D01*
X91825288Y-101010647D01*
X91825286Y-101010650D01*
X91732416Y-101182410D01*
X91732414Y-101182415D01*
X91729486Y-101187830D01*
X91668102Y-101386129D01*
X91667458Y-101392254D01*
X91667458Y-101392255D01*
X91655207Y-101508823D01*
X91646404Y-101592575D01*
X91648313Y-101613554D01*
X91658621Y-101726810D01*
X91665218Y-101799303D01*
X91666956Y-101805209D01*
X91666957Y-101805213D01*
X91710473Y-101953068D01*
X91723827Y-101998440D01*
X91726681Y-102003899D01*
X91817241Y-102177125D01*
X91831075Y-102246761D01*
X91805065Y-102312821D01*
X91747469Y-102354333D01*
X91705579Y-102361500D01*
X88632999Y-102361500D01*
X88564878Y-102341498D01*
X88518385Y-102287842D01*
X88508281Y-102217568D01*
X88522162Y-102175575D01*
X88610514Y-102012170D01*
X88671898Y-101813871D01*
X88673429Y-101799303D01*
X88692952Y-101613554D01*
X88692952Y-101613552D01*
X88693596Y-101607425D01*
X88674782Y-101400697D01*
X88672298Y-101392255D01*
X88617912Y-101207469D01*
X88616173Y-101201560D01*
X88520001Y-101017600D01*
X88495380Y-100986977D01*
X88484985Y-100974049D01*
X88389929Y-100855823D01*
X88377371Y-100845285D01*
X88253688Y-100741503D01*
X88214361Y-100682393D01*
X88213235Y-100611405D01*
X88250666Y-100551078D01*
X88286461Y-100528572D01*
X88357700Y-100499064D01*
X88366494Y-100494583D01*
X88561167Y-100375287D01*
X88570627Y-100364830D01*
X88566844Y-100356054D01*
X87359885Y-99149095D01*
X87325859Y-99086783D01*
X87327694Y-99061132D01*
X87994408Y-99061132D01*
X87994539Y-99062965D01*
X87998790Y-99069580D01*
X88923010Y-99993800D01*
X88935390Y-100000560D01*
X88943040Y-99994833D01*
X89064583Y-99796494D01*
X89069064Y-99787700D01*
X89162134Y-99563009D01*
X89165183Y-99553624D01*
X89221959Y-99317137D01*
X89223502Y-99307390D01*
X89242584Y-99064930D01*
X89242584Y-99055070D01*
X89223502Y-98812610D01*
X89221959Y-98802863D01*
X89165183Y-98566376D01*
X89162134Y-98556991D01*
X89069064Y-98332300D01*
X89064583Y-98323506D01*
X88945287Y-98128833D01*
X88934830Y-98119373D01*
X88926054Y-98123156D01*
X88002022Y-99047188D01*
X87994408Y-99061132D01*
X87327694Y-99061132D01*
X87330924Y-99015968D01*
X87359885Y-98970905D01*
X88563800Y-97766990D01*
X88570560Y-97754610D01*
X88564833Y-97746960D01*
X88366494Y-97625417D01*
X88357700Y-97620936D01*
X88133009Y-97527866D01*
X88123624Y-97524817D01*
X87887137Y-97468041D01*
X87877390Y-97466498D01*
X87634930Y-97447416D01*
X87625070Y-97447416D01*
X87382610Y-97466498D01*
X87372863Y-97468041D01*
X87136376Y-97524817D01*
X87126991Y-97527866D01*
X86902300Y-97620936D01*
X86893506Y-97625417D01*
X86772915Y-97699315D01*
X86704381Y-97717853D01*
X86636704Y-97696396D01*
X86606254Y-97667447D01*
X86558643Y-97603920D01*
X86558642Y-97603919D01*
X86553261Y-97596739D01*
X86436705Y-97509385D01*
X86300316Y-97458255D01*
X86238134Y-97451500D01*
X83941866Y-97451500D01*
X83879684Y-97458255D01*
X83743295Y-97509385D01*
X83626739Y-97596739D01*
X83539385Y-97713295D01*
X83488255Y-97849684D01*
X83481500Y-97911866D01*
X83481500Y-100208134D01*
X83488255Y-100270316D01*
X83539385Y-100406705D01*
X83626739Y-100523261D01*
X83743295Y-100610615D01*
X83879684Y-100661745D01*
X83941866Y-100668500D01*
X84219022Y-100668500D01*
X84287143Y-100688502D01*
X84333636Y-100742158D01*
X84343740Y-100812432D01*
X84316106Y-100874815D01*
X84208217Y-101005230D01*
X84205288Y-101010647D01*
X84205286Y-101010650D01*
X84112416Y-101182410D01*
X84112414Y-101182415D01*
X84109486Y-101187830D01*
X84048102Y-101386129D01*
X84047458Y-101392254D01*
X84047458Y-101392255D01*
X84035207Y-101508823D01*
X84026404Y-101592575D01*
X84028313Y-101613554D01*
X84038621Y-101726810D01*
X84045218Y-101799303D01*
X84046956Y-101805209D01*
X84046957Y-101805213D01*
X84090473Y-101953068D01*
X84103827Y-101998440D01*
X84106681Y-102003899D01*
X84197241Y-102177125D01*
X84211075Y-102246761D01*
X84185065Y-102312821D01*
X84127469Y-102354333D01*
X84085579Y-102361500D01*
X81012999Y-102361500D01*
X80944878Y-102341498D01*
X80898385Y-102287842D01*
X80888281Y-102217568D01*
X80902162Y-102175575D01*
X80990514Y-102012170D01*
X81051898Y-101813871D01*
X81053429Y-101799303D01*
X81072952Y-101613554D01*
X81072952Y-101613552D01*
X81073596Y-101607425D01*
X81054782Y-101400697D01*
X81052298Y-101392255D01*
X80997912Y-101207469D01*
X80996173Y-101201560D01*
X80900001Y-101017600D01*
X80875380Y-100986977D01*
X80864985Y-100974049D01*
X80769929Y-100855823D01*
X80757371Y-100845285D01*
X80633688Y-100741503D01*
X80594361Y-100682393D01*
X80593235Y-100611405D01*
X80630666Y-100551078D01*
X80666461Y-100528572D01*
X80737700Y-100499064D01*
X80746494Y-100494583D01*
X80941167Y-100375287D01*
X80950627Y-100364830D01*
X80946844Y-100356054D01*
X79739885Y-99149095D01*
X79705859Y-99086783D01*
X79707694Y-99061132D01*
X80374408Y-99061132D01*
X80374539Y-99062965D01*
X80378790Y-99069580D01*
X81303010Y-99993800D01*
X81315390Y-100000560D01*
X81323040Y-99994833D01*
X81444583Y-99796494D01*
X81449064Y-99787700D01*
X81542134Y-99563009D01*
X81545183Y-99553624D01*
X81601959Y-99317137D01*
X81603502Y-99307390D01*
X81622584Y-99064930D01*
X81622584Y-99055070D01*
X81603502Y-98812610D01*
X81601959Y-98802863D01*
X81545183Y-98566376D01*
X81542134Y-98556991D01*
X81449064Y-98332300D01*
X81444583Y-98323506D01*
X81325287Y-98128833D01*
X81314830Y-98119373D01*
X81306054Y-98123156D01*
X80382022Y-99047188D01*
X80374408Y-99061132D01*
X79707694Y-99061132D01*
X79710924Y-99015968D01*
X79739885Y-98970905D01*
X80943800Y-97766990D01*
X80950560Y-97754610D01*
X80944833Y-97746960D01*
X80746494Y-97625417D01*
X80737700Y-97620936D01*
X80513009Y-97527866D01*
X80503624Y-97524817D01*
X80267137Y-97468041D01*
X80257390Y-97466498D01*
X80014930Y-97447416D01*
X80005070Y-97447416D01*
X79762610Y-97466498D01*
X79752863Y-97468041D01*
X79516376Y-97524817D01*
X79506991Y-97527866D01*
X79282300Y-97620936D01*
X79273506Y-97625417D01*
X79152915Y-97699315D01*
X79084381Y-97717853D01*
X79016704Y-97696396D01*
X78986254Y-97667447D01*
X78938643Y-97603920D01*
X78938642Y-97603919D01*
X78933261Y-97596739D01*
X78816705Y-97509385D01*
X78680316Y-97458255D01*
X78618134Y-97451500D01*
X76321866Y-97451500D01*
X76259684Y-97458255D01*
X76123295Y-97509385D01*
X76006739Y-97596739D01*
X75919385Y-97713295D01*
X75868255Y-97849684D01*
X75861500Y-97911866D01*
X75861500Y-100208134D01*
X75868255Y-100270316D01*
X75919385Y-100406705D01*
X76006739Y-100523261D01*
X76123295Y-100610615D01*
X76259684Y-100661745D01*
X76321866Y-100668500D01*
X76599022Y-100668500D01*
X76667143Y-100688502D01*
X76713636Y-100742158D01*
X76723740Y-100812432D01*
X76696106Y-100874815D01*
X76588217Y-101005230D01*
X76585288Y-101010647D01*
X76585286Y-101010650D01*
X76492416Y-101182410D01*
X76492414Y-101182415D01*
X76489486Y-101187830D01*
X76428102Y-101386129D01*
X76427458Y-101392254D01*
X76427458Y-101392255D01*
X76415207Y-101508823D01*
X76406404Y-101592575D01*
X76408313Y-101613554D01*
X76418621Y-101726810D01*
X76425218Y-101799303D01*
X76426956Y-101805209D01*
X76426957Y-101805213D01*
X76470473Y-101953068D01*
X76483827Y-101998440D01*
X76486681Y-102003899D01*
X76577241Y-102177125D01*
X76591075Y-102246761D01*
X76565065Y-102312821D01*
X76507469Y-102354333D01*
X76465579Y-102361500D01*
X73392999Y-102361500D01*
X73324878Y-102341498D01*
X73278385Y-102287842D01*
X73268281Y-102217568D01*
X73282162Y-102175575D01*
X73370514Y-102012170D01*
X73431898Y-101813871D01*
X73433429Y-101799303D01*
X73452952Y-101613554D01*
X73452952Y-101613552D01*
X73453596Y-101607425D01*
X73434782Y-101400697D01*
X73432298Y-101392255D01*
X73377912Y-101207469D01*
X73376173Y-101201560D01*
X73280001Y-101017600D01*
X73255380Y-100986977D01*
X73244985Y-100974049D01*
X73149929Y-100855823D01*
X73137371Y-100845285D01*
X73013688Y-100741503D01*
X72974361Y-100682393D01*
X72973235Y-100611405D01*
X73010666Y-100551078D01*
X73046461Y-100528572D01*
X73117700Y-100499064D01*
X73126494Y-100494583D01*
X73321167Y-100375287D01*
X73330627Y-100364830D01*
X73326844Y-100356054D01*
X72119885Y-99149095D01*
X72085859Y-99086783D01*
X72087694Y-99061132D01*
X72754408Y-99061132D01*
X72754539Y-99062965D01*
X72758790Y-99069580D01*
X73683010Y-99993800D01*
X73695390Y-100000560D01*
X73703040Y-99994833D01*
X73824583Y-99796494D01*
X73829064Y-99787700D01*
X73922134Y-99563009D01*
X73925183Y-99553624D01*
X73981959Y-99317137D01*
X73983502Y-99307390D01*
X74002584Y-99064930D01*
X74002584Y-99055070D01*
X73983502Y-98812610D01*
X73981959Y-98802863D01*
X73925183Y-98566376D01*
X73922134Y-98556991D01*
X73829064Y-98332300D01*
X73824583Y-98323506D01*
X73705287Y-98128833D01*
X73694830Y-98119373D01*
X73686054Y-98123156D01*
X72762022Y-99047188D01*
X72754408Y-99061132D01*
X72087694Y-99061132D01*
X72090924Y-99015968D01*
X72119885Y-98970905D01*
X73323800Y-97766990D01*
X73330560Y-97754610D01*
X73324833Y-97746960D01*
X73126494Y-97625417D01*
X73117700Y-97620936D01*
X72893009Y-97527866D01*
X72883624Y-97524817D01*
X72647137Y-97468041D01*
X72637390Y-97466498D01*
X72394930Y-97447416D01*
X72385070Y-97447416D01*
X72142610Y-97466498D01*
X72132863Y-97468041D01*
X71896376Y-97524817D01*
X71886991Y-97527866D01*
X71662300Y-97620936D01*
X71653506Y-97625417D01*
X71532915Y-97699315D01*
X71464381Y-97717853D01*
X71396704Y-97696396D01*
X71366254Y-97667447D01*
X71318643Y-97603920D01*
X71318642Y-97603919D01*
X71313261Y-97596739D01*
X71196705Y-97509385D01*
X71060316Y-97458255D01*
X70998134Y-97451500D01*
X68701866Y-97451500D01*
X68639684Y-97458255D01*
X68503295Y-97509385D01*
X68386739Y-97596739D01*
X68299385Y-97713295D01*
X68248255Y-97849684D01*
X68241500Y-97911866D01*
X68241500Y-100208134D01*
X68248255Y-100270316D01*
X68299385Y-100406705D01*
X68386739Y-100523261D01*
X68503295Y-100610615D01*
X68639684Y-100661745D01*
X68701866Y-100668500D01*
X68979022Y-100668500D01*
X69047143Y-100688502D01*
X69093636Y-100742158D01*
X69103740Y-100812432D01*
X69076106Y-100874815D01*
X68968217Y-101005230D01*
X68965288Y-101010647D01*
X68965286Y-101010650D01*
X68872416Y-101182410D01*
X68872414Y-101182415D01*
X68869486Y-101187830D01*
X68808102Y-101386129D01*
X68807458Y-101392254D01*
X68807458Y-101392255D01*
X68795207Y-101508823D01*
X68786404Y-101592575D01*
X68788313Y-101613554D01*
X68798621Y-101726810D01*
X68805218Y-101799303D01*
X68806956Y-101805209D01*
X68806957Y-101805213D01*
X68850473Y-101953068D01*
X68863827Y-101998440D01*
X68866681Y-102003899D01*
X68957241Y-102177125D01*
X68971075Y-102246761D01*
X68945065Y-102312821D01*
X68887469Y-102354333D01*
X68845579Y-102361500D01*
X63549367Y-102361500D01*
X63529982Y-102360000D01*
X63515149Y-102357690D01*
X63515145Y-102357690D01*
X63506276Y-102356309D01*
X63487564Y-102358756D01*
X63464634Y-102359647D01*
X63161497Y-102343760D01*
X63148383Y-102342382D01*
X62820102Y-102290387D01*
X62807202Y-102287645D01*
X62654620Y-102246761D01*
X62486152Y-102201620D01*
X62473618Y-102197547D01*
X62163329Y-102078438D01*
X62151280Y-102073074D01*
X61855133Y-101922180D01*
X61843712Y-101915586D01*
X61564960Y-101734563D01*
X61554290Y-101726810D01*
X61295996Y-101517648D01*
X61286195Y-101508823D01*
X61051177Y-101273805D01*
X61042352Y-101264004D01*
X60833190Y-101005710D01*
X60825437Y-100995040D01*
X60644414Y-100716288D01*
X60637820Y-100704867D01*
X60486926Y-100408720D01*
X60481562Y-100396672D01*
X60465970Y-100356054D01*
X60362453Y-100086382D01*
X60358379Y-100073846D01*
X60272355Y-99752798D01*
X60269613Y-99739898D01*
X60217618Y-99411617D01*
X60216240Y-99398500D01*
X60205455Y-99192703D01*
X61390743Y-99192703D01*
X61428268Y-99477734D01*
X61504129Y-99755036D01*
X61505813Y-99758984D01*
X61608855Y-100000560D01*
X61616923Y-100019476D01*
X61628693Y-100039142D01*
X61731866Y-100211531D01*
X61764561Y-100266161D01*
X61944313Y-100490528D01*
X62017122Y-100559621D01*
X62146497Y-100682393D01*
X62152851Y-100688423D01*
X62227631Y-100742158D01*
X62377756Y-100850034D01*
X62386317Y-100856186D01*
X62390112Y-100858195D01*
X62390113Y-100858196D01*
X62411869Y-100869715D01*
X62640392Y-100990712D01*
X62910373Y-101089511D01*
X63191264Y-101150755D01*
X63219841Y-101153004D01*
X63414282Y-101168307D01*
X63414291Y-101168307D01*
X63416739Y-101168500D01*
X63572271Y-101168500D01*
X63574407Y-101168354D01*
X63574418Y-101168354D01*
X63782548Y-101154165D01*
X63782554Y-101154164D01*
X63786825Y-101153873D01*
X63791020Y-101153004D01*
X63791022Y-101153004D01*
X63927583Y-101124724D01*
X64068342Y-101095574D01*
X64339343Y-100999607D01*
X64594812Y-100867750D01*
X64598313Y-100865289D01*
X64598317Y-100865287D01*
X64712417Y-100785096D01*
X64830023Y-100702441D01*
X64934635Y-100605229D01*
X65037479Y-100509661D01*
X65037481Y-100509658D01*
X65040622Y-100506740D01*
X65222713Y-100284268D01*
X65372927Y-100039142D01*
X65488483Y-99775898D01*
X65567244Y-99499406D01*
X65607751Y-99214784D01*
X65607845Y-99196951D01*
X65609235Y-98931583D01*
X65609235Y-98931576D01*
X65609257Y-98927297D01*
X65571732Y-98642266D01*
X65495871Y-98364964D01*
X65395152Y-98128833D01*
X65384763Y-98104476D01*
X65384761Y-98104472D01*
X65383077Y-98100524D01*
X65308527Y-97975960D01*
X65237643Y-97857521D01*
X65237640Y-97857517D01*
X65235439Y-97853839D01*
X65055687Y-97629472D01*
X64874363Y-97457402D01*
X64850258Y-97434527D01*
X64850255Y-97434525D01*
X64847149Y-97431577D01*
X64613683Y-97263814D01*
X64591843Y-97252250D01*
X64568654Y-97239972D01*
X64359608Y-97129288D01*
X64089627Y-97030489D01*
X63808736Y-96969245D01*
X63777685Y-96966801D01*
X63585718Y-96951693D01*
X63585709Y-96951693D01*
X63583261Y-96951500D01*
X63427729Y-96951500D01*
X63425593Y-96951646D01*
X63425582Y-96951646D01*
X63217452Y-96965835D01*
X63217446Y-96965836D01*
X63213175Y-96966127D01*
X63208980Y-96966996D01*
X63208978Y-96966996D01*
X63072416Y-96995277D01*
X62931658Y-97024426D01*
X62660657Y-97120393D01*
X62405188Y-97252250D01*
X62401687Y-97254711D01*
X62401683Y-97254713D01*
X62391594Y-97261804D01*
X62169977Y-97417559D01*
X62115652Y-97468041D01*
X61977157Y-97596739D01*
X61959378Y-97613260D01*
X61777287Y-97835732D01*
X61627073Y-98080858D01*
X61511517Y-98344102D01*
X61432756Y-98620594D01*
X61392249Y-98905216D01*
X61392227Y-98909505D01*
X61392226Y-98909512D01*
X61390971Y-99149095D01*
X61390743Y-99192703D01*
X60205455Y-99192703D01*
X60198846Y-99066594D01*
X60198846Y-99053406D01*
X60216240Y-98721500D01*
X60217618Y-98708383D01*
X60269613Y-98380102D01*
X60272355Y-98367202D01*
X60358379Y-98046154D01*
X60362455Y-98033610D01*
X60409189Y-97911866D01*
X60481562Y-97723328D01*
X60486926Y-97711280D01*
X60637820Y-97415133D01*
X60644414Y-97403712D01*
X60825437Y-97124960D01*
X60833190Y-97114290D01*
X61042352Y-96855996D01*
X61051177Y-96846195D01*
X61286195Y-96611177D01*
X61295996Y-96602352D01*
X61554290Y-96393190D01*
X61564960Y-96385437D01*
X61843712Y-96204414D01*
X61855133Y-96197820D01*
X62151280Y-96046926D01*
X62163328Y-96041562D01*
X62202532Y-96026513D01*
X62473618Y-95922453D01*
X62486154Y-95918379D01*
X62807202Y-95832355D01*
X62820102Y-95829613D01*
X63148383Y-95777618D01*
X63161499Y-95776240D01*
X63195152Y-95774476D01*
X63457298Y-95760738D01*
X63483273Y-95762065D01*
X63484843Y-95762309D01*
X63484849Y-95762309D01*
X63493724Y-95763691D01*
X63502626Y-95762527D01*
X63502628Y-95762527D01*
X63517677Y-95760559D01*
X63525286Y-95759564D01*
X63541621Y-95758500D01*
X116790633Y-95758500D01*
X116810018Y-95760000D01*
G37*
%TD.AperFunction*%
%TD*%
M02*
