%TF.GenerationSoftware,KiCad,Pcbnew,(6.0.5)*%
%TF.CreationDate,2023-01-19T14:10:39-05:00*%
%TF.ProjectId,floppy_mega,666c6f70-7079-45f6-9d65-67612e6b6963,rev?*%
%TF.SameCoordinates,Original*%
%TF.FileFunction,Soldermask,Bot*%
%TF.FilePolarity,Negative*%
%FSLAX46Y46*%
G04 Gerber Fmt 4.6, Leading zero omitted, Abs format (unit mm)*
G04 Created by KiCad (PCBNEW (6.0.5)) date 2023-01-19 14:10:39*
%MOMM*%
%LPD*%
G01*
G04 APERTURE LIST*
%ADD10C,1.600000*%
%ADD11O,1.600000X1.600000*%
%ADD12R,1.700000X1.700000*%
%ADD13O,1.700000X1.700000*%
%ADD14C,1.100000*%
%ADD15R,2.200000X2.200000*%
%ADD16C,2.200000*%
%ADD17C,2.400000*%
%ADD18C,1.950000*%
%ADD19R,1.600000X1.600000*%
%ADD20R,1.500000X1.500000*%
%ADD21O,1.500000X1.500000*%
%ADD22C,3.200000*%
G04 APERTURE END LIST*
D10*
%TO.C,R2*%
X137668000Y-94996000D03*
D11*
X137668000Y-105156000D03*
%TD*%
D12*
%TO.C,J11*%
X136398000Y-88646000D03*
D13*
X138938000Y-88646000D03*
%TD*%
D12*
%TO.C,J10*%
X136398000Y-108966000D03*
D13*
X138938000Y-108966000D03*
%TD*%
D12*
%TO.C,F11*%
X178308000Y-98806000D03*
D13*
X178308000Y-101346000D03*
X175768000Y-98806000D03*
X175768000Y-101346000D03*
X173228000Y-98806000D03*
X173228000Y-101346000D03*
%TD*%
D12*
%TO.C,F10*%
X178308000Y-88646000D03*
D13*
X178308000Y-91186000D03*
X175768000Y-88646000D03*
X175768000Y-91186000D03*
X173228000Y-88646000D03*
X173228000Y-91186000D03*
%TD*%
%TO.C,F4*%
X145288000Y-111506000D03*
X145288000Y-108966000D03*
X147828000Y-111506000D03*
X147828000Y-108966000D03*
X150368000Y-111506000D03*
D12*
X150368000Y-108966000D03*
%TD*%
%TO.C,F2*%
X150368000Y-88646000D03*
D13*
X150368000Y-91186000D03*
X147828000Y-88646000D03*
X147828000Y-91186000D03*
X145288000Y-88646000D03*
X145288000Y-91186000D03*
%TD*%
D12*
%TO.C,F1*%
X150368000Y-78486000D03*
D13*
X150368000Y-81026000D03*
X147828000Y-78486000D03*
X147828000Y-81026000D03*
X145288000Y-78486000D03*
X145288000Y-81026000D03*
%TD*%
D12*
%TO.C,F6*%
X164338000Y-88646000D03*
D13*
X164338000Y-91186000D03*
X161798000Y-88646000D03*
X161798000Y-91186000D03*
X159258000Y-88646000D03*
X159258000Y-91186000D03*
%TD*%
D12*
%TO.C,F5*%
X164338000Y-78486000D03*
D13*
X164338000Y-81026000D03*
X161798000Y-78486000D03*
X161798000Y-81026000D03*
X159258000Y-78486000D03*
X159258000Y-81026000D03*
%TD*%
D12*
%TO.C,F9*%
X178308000Y-78486000D03*
D13*
X178308000Y-81026000D03*
X175768000Y-78486000D03*
X175768000Y-81026000D03*
X173228000Y-78486000D03*
X173228000Y-81026000D03*
%TD*%
D12*
%TO.C,F13*%
X192278000Y-78486000D03*
D13*
X192278000Y-81026000D03*
X189738000Y-78486000D03*
X189738000Y-81026000D03*
X187198000Y-78486000D03*
X187198000Y-81026000D03*
%TD*%
D12*
%TO.C,F14*%
X192278000Y-88646000D03*
D13*
X192278000Y-91186000D03*
X189738000Y-88646000D03*
X189738000Y-91186000D03*
X187198000Y-88646000D03*
X187198000Y-91186000D03*
%TD*%
D12*
%TO.C,F15*%
X192278000Y-98806000D03*
D13*
X192278000Y-101346000D03*
X189738000Y-98806000D03*
X189738000Y-101346000D03*
X187198000Y-98806000D03*
X187198000Y-101346000D03*
%TD*%
D12*
%TO.C,F12*%
X178308000Y-108966000D03*
D13*
X178308000Y-111506000D03*
X175768000Y-108966000D03*
X175768000Y-111506000D03*
X173228000Y-108966000D03*
X173228000Y-111506000D03*
%TD*%
%TO.C,F16*%
X187198000Y-111506000D03*
X187198000Y-108966000D03*
X189738000Y-111506000D03*
X189738000Y-108966000D03*
X192278000Y-111506000D03*
D12*
X192278000Y-108966000D03*
%TD*%
D14*
%TO.C,J9*%
X123698000Y-120396000D03*
X126238000Y-120396000D03*
D15*
X123698000Y-117856000D03*
D16*
X126238000Y-117856000D03*
%TD*%
D12*
%TO.C,F7*%
X164338000Y-98806000D03*
D13*
X164338000Y-101346000D03*
X161798000Y-98806000D03*
X161798000Y-101346000D03*
X159258000Y-98806000D03*
X159258000Y-101346000D03*
%TD*%
%TO.C,F3*%
X145288000Y-101346000D03*
X145288000Y-98806000D03*
X147828000Y-101346000D03*
X147828000Y-98806000D03*
X150368000Y-101346000D03*
D12*
X150368000Y-98806000D03*
%TD*%
D13*
%TO.C,F8*%
X159258000Y-111506000D03*
X159258000Y-108966000D03*
X161798000Y-111506000D03*
X161798000Y-108966000D03*
X164338000Y-111506000D03*
D12*
X164338000Y-108966000D03*
%TD*%
D17*
%TO.C,J8*%
X111078000Y-106306000D03*
X111078000Y-91306000D03*
D18*
X116078000Y-106306000D03*
X116078000Y-98806000D03*
X116078000Y-91306000D03*
X118578000Y-103806000D03*
X118578000Y-93806000D03*
X106078000Y-96306000D03*
X106078000Y-101306000D03*
%TD*%
D11*
%TO.C,U1*%
X135128000Y-94996000D03*
X135128000Y-97536000D03*
X135128000Y-100076000D03*
X135128000Y-102616000D03*
X127508000Y-102616000D03*
X127508000Y-100076000D03*
X127508000Y-97536000D03*
D19*
X127508000Y-94996000D03*
%TD*%
D11*
%TO.C,R1*%
X122428000Y-102616000D03*
D10*
X122428000Y-92456000D03*
%TD*%
D20*
%TO.C,D1*%
X124968000Y-94991000D03*
D21*
X124968000Y-102611000D03*
%TD*%
D10*
%TO.C,C2*%
X118618000Y-98806000D03*
X118618000Y-101306000D03*
%TD*%
%TO.C,C1*%
X116078000Y-110236000D03*
X118578000Y-110236000D03*
%TD*%
D22*
%TO.C,H4*%
X117348000Y-119126000D03*
%TD*%
%TO.C,H3*%
X199898000Y-119126000D03*
%TD*%
%TO.C,H2*%
X193548000Y-70866000D03*
%TD*%
%TO.C,H1*%
X118618000Y-70866000D03*
%TD*%
D12*
%TO.C,J5*%
X171958000Y-70866000D03*
D13*
X174498000Y-70866000D03*
X177038000Y-70866000D03*
X179578000Y-70866000D03*
X182118000Y-70866000D03*
X184658000Y-70866000D03*
X187198000Y-70866000D03*
X189738000Y-70866000D03*
%TD*%
D12*
%TO.C,J6*%
X166878000Y-70866000D03*
D13*
X164338000Y-70866000D03*
X161798000Y-70866000D03*
X159258000Y-70866000D03*
X156718000Y-70866000D03*
X154178000Y-70866000D03*
X151638000Y-70866000D03*
X149098000Y-70866000D03*
%TD*%
D12*
%TO.C,J7*%
X145034000Y-70866000D03*
D13*
X142494000Y-70866000D03*
X139954000Y-70866000D03*
X137414000Y-70866000D03*
X134874000Y-70866000D03*
X132334000Y-70866000D03*
X129794000Y-70866000D03*
X127254000Y-70866000D03*
X124714000Y-70866000D03*
X122174000Y-70866000D03*
%TD*%
D12*
%TO.C,J3*%
X177038000Y-119126000D03*
D13*
X179578000Y-119126000D03*
X182118000Y-119126000D03*
X184658000Y-119126000D03*
X187198000Y-119126000D03*
X189738000Y-119126000D03*
X192278000Y-119126000D03*
X194818000Y-119126000D03*
%TD*%
D12*
%TO.C,J2*%
X154178000Y-119126000D03*
D13*
X156718000Y-119126000D03*
X159258000Y-119126000D03*
X161798000Y-119126000D03*
X164338000Y-119126000D03*
X166878000Y-119126000D03*
X169418000Y-119126000D03*
X171958000Y-119126000D03*
%TD*%
D12*
%TO.C,J1*%
X131318000Y-119126000D03*
D13*
X133858000Y-119126000D03*
X136398000Y-119126000D03*
X138938000Y-119126000D03*
X141478000Y-119126000D03*
X144018000Y-119126000D03*
X146558000Y-119126000D03*
X149098000Y-119126000D03*
%TD*%
%TO.C,J4*%
X199898000Y-114046000D03*
X197358000Y-114046000D03*
X199898000Y-111506000D03*
X197358000Y-111506000D03*
X199898000Y-108966000D03*
X197358000Y-108966000D03*
X199898000Y-106426000D03*
X197358000Y-106426000D03*
X199898000Y-103886000D03*
X197358000Y-103886000D03*
X199898000Y-101346000D03*
X197358000Y-101346000D03*
X199898000Y-98806000D03*
X197358000Y-98806000D03*
X199898000Y-96266000D03*
X197358000Y-96266000D03*
X199898000Y-93726000D03*
X197358000Y-93726000D03*
X199898000Y-91186000D03*
X197358000Y-91186000D03*
X199898000Y-88646000D03*
X197358000Y-88646000D03*
X199898000Y-86106000D03*
X197358000Y-86106000D03*
X199898000Y-83566000D03*
X197358000Y-83566000D03*
X199898000Y-81026000D03*
X197358000Y-81026000D03*
X199898000Y-78486000D03*
X197358000Y-78486000D03*
X199898000Y-75946000D03*
X197358000Y-75946000D03*
X199898000Y-73406000D03*
X197358000Y-73406000D03*
X199898000Y-70866000D03*
D12*
X197358000Y-70866000D03*
%TD*%
M02*
