%TF.GenerationSoftware,KiCad,Pcbnew,(6.0.5)*%
%TF.CreationDate,2023-01-19T15:03:14-05:00*%
%TF.ProjectId,floppy_mega,666c6f70-7079-45f6-9d65-67612e6b6963,rev?*%
%TF.SameCoordinates,Original*%
%TF.FileFunction,Legend,Top*%
%TF.FilePolarity,Positive*%
%FSLAX46Y46*%
G04 Gerber Fmt 4.6, Leading zero omitted, Abs format (unit mm)*
G04 Created by KiCad (PCBNEW (6.0.5)) date 2023-01-19 15:03:14*
%MOMM*%
%LPD*%
G01*
G04 APERTURE LIST*
%ADD10C,0.000000*%
%ADD11C,0.150000*%
%ADD12C,0.120000*%
%ADD13C,0.127000*%
G04 APERTURE END LIST*
D10*
G36*
X136398000Y-107061000D02*
G01*
X135763000Y-106426000D01*
X137033000Y-106426000D01*
X136398000Y-107061000D01*
G37*
D11*
X126238000Y-84201000D02*
X126238000Y-82296000D01*
X126873000Y-86741000D02*
G75*
G03*
X126873000Y-86741000I-635000J0D01*
G01*
X130048000Y-82931000D02*
X130048000Y-84201000D01*
D10*
G36*
X192278000Y-86741000D02*
G01*
X191643000Y-86106000D01*
X192913000Y-86106000D01*
X192278000Y-86741000D01*
G37*
G36*
X150368000Y-107061000D02*
G01*
X149733000Y-106426000D01*
X151003000Y-106426000D01*
X150368000Y-107061000D01*
G37*
G36*
X178308000Y-107061000D02*
G01*
X177673000Y-106426000D01*
X178943000Y-106426000D01*
X178308000Y-107061000D01*
G37*
G36*
X178308000Y-86741000D02*
G01*
X177673000Y-86106000D01*
X178943000Y-86106000D01*
X178308000Y-86741000D01*
G37*
G36*
X150368000Y-76581000D02*
G01*
X149733000Y-75946000D01*
X151003000Y-75946000D01*
X150368000Y-76581000D01*
G37*
D11*
X128778000Y-86741000D02*
X130683000Y-86741000D01*
X122428000Y-88011000D02*
X130048000Y-88011000D01*
D10*
G36*
X136398000Y-86741000D02*
G01*
X135763000Y-86106000D01*
X137033000Y-86106000D01*
X136398000Y-86741000D01*
G37*
G36*
X178308000Y-76581000D02*
G01*
X177673000Y-75946000D01*
X178943000Y-75946000D01*
X178308000Y-76581000D01*
G37*
G36*
X128778000Y-82296000D02*
G01*
X128143000Y-81661000D01*
X129413000Y-81661000D01*
X128778000Y-82296000D01*
G37*
G36*
X192278000Y-107061000D02*
G01*
X191643000Y-106426000D01*
X192913000Y-106426000D01*
X192278000Y-107061000D01*
G37*
D11*
X130048000Y-88011000D02*
X130048000Y-85471000D01*
X182118000Y-73406000D02*
X182118000Y-72771000D01*
D10*
G36*
X192278000Y-76581000D02*
G01*
X191643000Y-75946000D01*
X192913000Y-75946000D01*
X192278000Y-76581000D01*
G37*
D11*
X129413000Y-84201000D02*
G75*
G03*
X129413000Y-84201000I-635000J0D01*
G01*
D10*
G36*
X150368000Y-86741000D02*
G01*
X149733000Y-86106000D01*
X151003000Y-86106000D01*
X150368000Y-86741000D01*
G37*
D11*
X189738000Y-73406000D02*
X188468000Y-73406000D01*
X128778000Y-82931000D02*
X130048000Y-82931000D01*
X124333000Y-86741000D02*
G75*
G03*
X124333000Y-86741000I-635000J0D01*
G01*
D10*
G36*
X178308000Y-96901000D02*
G01*
X177673000Y-96266000D01*
X178943000Y-96266000D01*
X178308000Y-96901000D01*
G37*
G36*
X164338000Y-76581000D02*
G01*
X163703000Y-75946000D01*
X164973000Y-75946000D01*
X164338000Y-76581000D01*
G37*
D11*
X127508000Y-82931000D02*
X122428000Y-82931000D01*
D10*
G36*
X192278000Y-96901000D02*
G01*
X191643000Y-96266000D01*
X192913000Y-96266000D01*
X192278000Y-96901000D01*
G37*
G36*
X164338000Y-86741000D02*
G01*
X163703000Y-86106000D01*
X164973000Y-86106000D01*
X164338000Y-86741000D01*
G37*
D11*
X123698000Y-84201000D02*
X121793000Y-84201000D01*
X183388000Y-73406000D02*
X182118000Y-73406000D01*
D10*
G36*
X164338000Y-96901000D02*
G01*
X163703000Y-96266000D01*
X164973000Y-96266000D01*
X164338000Y-96901000D01*
G37*
D11*
X129413000Y-86741000D02*
G75*
G03*
X129413000Y-86741000I-635000J0D01*
G01*
X189738000Y-72771000D02*
X189738000Y-73406000D01*
X122428000Y-82931000D02*
X122428000Y-88011000D01*
X126873000Y-84201000D02*
G75*
G03*
X126873000Y-84201000I-635000J0D01*
G01*
D10*
G36*
X164338000Y-107061000D02*
G01*
X163703000Y-106426000D01*
X164973000Y-106426000D01*
X164338000Y-107061000D01*
G37*
D11*
X128778000Y-84201000D02*
X130683000Y-84201000D01*
X124333000Y-84201000D02*
G75*
G03*
X124333000Y-84201000I-635000J0D01*
G01*
X126238000Y-86741000D02*
X126238000Y-88646000D01*
D10*
G36*
X150368000Y-96901000D02*
G01*
X149733000Y-96266000D01*
X151003000Y-96266000D01*
X150368000Y-96901000D01*
G37*
D11*
X121793000Y-86741000D02*
X123698000Y-86741000D01*
X127508000Y-85471000D02*
X130048000Y-85471000D01*
X127508000Y-82931000D02*
X127508000Y-85471000D01*
X110450380Y-103425047D02*
X111164666Y-103425047D01*
X111307523Y-103472666D01*
X111402761Y-103567904D01*
X111450380Y-103710761D01*
X111450380Y-103806000D01*
X111450380Y-102472666D02*
X111450380Y-102948857D01*
X110450380Y-102948857D01*
X111355142Y-101567904D02*
X111402761Y-101615523D01*
X111450380Y-101758380D01*
X111450380Y-101853619D01*
X111402761Y-101996476D01*
X111307523Y-102091714D01*
X111212285Y-102139333D01*
X111021809Y-102186952D01*
X110878952Y-102186952D01*
X110688476Y-102139333D01*
X110593238Y-102091714D01*
X110498000Y-101996476D01*
X110450380Y-101853619D01*
X110450380Y-101758380D01*
X110498000Y-101615523D01*
X110545619Y-101567904D01*
X110450380Y-100853619D02*
X111164666Y-100853619D01*
X111307523Y-100901238D01*
X111402761Y-100996476D01*
X111450380Y-101139333D01*
X111450380Y-101234571D01*
X111450380Y-99901238D02*
X111450380Y-100377428D01*
X110450380Y-100377428D01*
X111355142Y-98996476D02*
X111402761Y-99044095D01*
X111450380Y-99186952D01*
X111450380Y-99282190D01*
X111402761Y-99425047D01*
X111307523Y-99520285D01*
X111212285Y-99567904D01*
X111021809Y-99615523D01*
X110878952Y-99615523D01*
X110688476Y-99567904D01*
X110593238Y-99520285D01*
X110498000Y-99425047D01*
X110450380Y-99282190D01*
X110450380Y-99186952D01*
X110498000Y-99044095D01*
X110545619Y-98996476D01*
X110450380Y-98282190D02*
X111164666Y-98282190D01*
X111307523Y-98329809D01*
X111402761Y-98425047D01*
X111450380Y-98567904D01*
X111450380Y-98663142D01*
X111450380Y-97329809D02*
X111450380Y-97806000D01*
X110450380Y-97806000D01*
X111355142Y-96425047D02*
X111402761Y-96472666D01*
X111450380Y-96615523D01*
X111450380Y-96710761D01*
X111402761Y-96853619D01*
X111307523Y-96948857D01*
X111212285Y-96996476D01*
X111021809Y-97044095D01*
X110878952Y-97044095D01*
X110688476Y-96996476D01*
X110593238Y-96948857D01*
X110498000Y-96853619D01*
X110450380Y-96710761D01*
X110450380Y-96615523D01*
X110498000Y-96472666D01*
X110545619Y-96425047D01*
X110450380Y-95710761D02*
X111164666Y-95710761D01*
X111307523Y-95758380D01*
X111402761Y-95853619D01*
X111450380Y-95996476D01*
X111450380Y-96091714D01*
X111450380Y-94758380D02*
X111450380Y-95234571D01*
X110450380Y-95234571D01*
X111355142Y-93853619D02*
X111402761Y-93901238D01*
X111450380Y-94044095D01*
X111450380Y-94139333D01*
X111402761Y-94282190D01*
X111307523Y-94377428D01*
X111212285Y-94425047D01*
X111021809Y-94472666D01*
X110878952Y-94472666D01*
X110688476Y-94425047D01*
X110593238Y-94377428D01*
X110498000Y-94282190D01*
X110450380Y-94139333D01*
X110450380Y-94044095D01*
X110498000Y-93901238D01*
X110545619Y-93853619D01*
X183689904Y-73858380D02*
X183689904Y-72858380D01*
X183928000Y-72858380D01*
X184070857Y-72906000D01*
X184166095Y-73001238D01*
X184213714Y-73096476D01*
X184261333Y-73286952D01*
X184261333Y-73429809D01*
X184213714Y-73620285D01*
X184166095Y-73715523D01*
X184070857Y-73810761D01*
X183928000Y-73858380D01*
X183689904Y-73858380D01*
X184689904Y-73334571D02*
X185023238Y-73334571D01*
X185166095Y-73858380D02*
X184689904Y-73858380D01*
X184689904Y-72858380D01*
X185166095Y-72858380D01*
X185928000Y-73334571D02*
X186070857Y-73382190D01*
X186118476Y-73429809D01*
X186166095Y-73525047D01*
X186166095Y-73667904D01*
X186118476Y-73763142D01*
X186070857Y-73810761D01*
X185975619Y-73858380D01*
X185594666Y-73858380D01*
X185594666Y-72858380D01*
X185928000Y-72858380D01*
X186023238Y-72906000D01*
X186070857Y-72953619D01*
X186118476Y-73048857D01*
X186118476Y-73144095D01*
X186070857Y-73239333D01*
X186023238Y-73286952D01*
X185928000Y-73334571D01*
X185594666Y-73334571D01*
X186594666Y-72858380D02*
X186594666Y-73667904D01*
X186642285Y-73763142D01*
X186689904Y-73810761D01*
X186785142Y-73858380D01*
X186975619Y-73858380D01*
X187070857Y-73810761D01*
X187118476Y-73763142D01*
X187166095Y-73667904D01*
X187166095Y-72858380D01*
X188166095Y-72906000D02*
X188070857Y-72858380D01*
X187928000Y-72858380D01*
X187785142Y-72906000D01*
X187689904Y-73001238D01*
X187642285Y-73096476D01*
X187594666Y-73286952D01*
X187594666Y-73429809D01*
X187642285Y-73620285D01*
X187689904Y-73715523D01*
X187785142Y-73810761D01*
X187928000Y-73858380D01*
X188023238Y-73858380D01*
X188166095Y-73810761D01*
X188213714Y-73763142D01*
X188213714Y-73429809D01*
X188023238Y-73429809D01*
X123999904Y-88733380D02*
X124571333Y-88733380D01*
X124285619Y-89733380D02*
X124285619Y-88733380D01*
X125476095Y-89733380D02*
X125142761Y-89257190D01*
X124904666Y-89733380D02*
X124904666Y-88733380D01*
X125285619Y-88733380D01*
X125380857Y-88781000D01*
X125428476Y-88828619D01*
X125476095Y-88923857D01*
X125476095Y-89066714D01*
X125428476Y-89161952D01*
X125380857Y-89209571D01*
X125285619Y-89257190D01*
X124904666Y-89257190D01*
X125904666Y-89733380D02*
X125904666Y-88733380D01*
X126476095Y-89733380D02*
X126047523Y-89161952D01*
X126476095Y-88733380D02*
X125904666Y-89304809D01*
X127095142Y-88733380D02*
X127190380Y-88733380D01*
X127285619Y-88781000D01*
X127333238Y-88828619D01*
X127380857Y-88923857D01*
X127428476Y-89114333D01*
X127428476Y-89352428D01*
X127380857Y-89542904D01*
X127333238Y-89638142D01*
X127285619Y-89685761D01*
X127190380Y-89733380D01*
X127095142Y-89733380D01*
X126999904Y-89685761D01*
X126952285Y-89638142D01*
X126904666Y-89542904D01*
X126857047Y-89352428D01*
X126857047Y-89114333D01*
X126904666Y-88923857D01*
X126952285Y-88828619D01*
X126999904Y-88781000D01*
X127095142Y-88733380D01*
X128047523Y-88733380D02*
X128142761Y-88733380D01*
X128238000Y-88781000D01*
X128285619Y-88828619D01*
X128333238Y-88923857D01*
X128380857Y-89114333D01*
X128380857Y-89352428D01*
X128333238Y-89542904D01*
X128285619Y-89638142D01*
X128238000Y-89685761D01*
X128142761Y-89733380D01*
X128047523Y-89733380D01*
X127952285Y-89685761D01*
X127904666Y-89638142D01*
X127857047Y-89542904D01*
X127809428Y-89352428D01*
X127809428Y-89114333D01*
X127857047Y-88923857D01*
X127904666Y-88828619D01*
X127952285Y-88781000D01*
X128047523Y-88733380D01*
X114666095Y-74264571D02*
X114332761Y-74264571D01*
X114332761Y-74788380D02*
X114332761Y-73788380D01*
X114808952Y-73788380D01*
X115332761Y-74788380D02*
X115237523Y-74740761D01*
X115189904Y-74645523D01*
X115189904Y-73788380D01*
X115856571Y-74788380D02*
X115761333Y-74740761D01*
X115713714Y-74693142D01*
X115666095Y-74597904D01*
X115666095Y-74312190D01*
X115713714Y-74216952D01*
X115761333Y-74169333D01*
X115856571Y-74121714D01*
X115999428Y-74121714D01*
X116094666Y-74169333D01*
X116142285Y-74216952D01*
X116189904Y-74312190D01*
X116189904Y-74597904D01*
X116142285Y-74693142D01*
X116094666Y-74740761D01*
X115999428Y-74788380D01*
X115856571Y-74788380D01*
X116618476Y-74121714D02*
X116618476Y-75121714D01*
X116618476Y-74169333D02*
X116713714Y-74121714D01*
X116904190Y-74121714D01*
X116999428Y-74169333D01*
X117047047Y-74216952D01*
X117094666Y-74312190D01*
X117094666Y-74597904D01*
X117047047Y-74693142D01*
X116999428Y-74740761D01*
X116904190Y-74788380D01*
X116713714Y-74788380D01*
X116618476Y-74740761D01*
X117523238Y-74121714D02*
X117523238Y-75121714D01*
X117523238Y-74169333D02*
X117618476Y-74121714D01*
X117808952Y-74121714D01*
X117904190Y-74169333D01*
X117951809Y-74216952D01*
X117999428Y-74312190D01*
X117999428Y-74597904D01*
X117951809Y-74693142D01*
X117904190Y-74740761D01*
X117808952Y-74788380D01*
X117618476Y-74788380D01*
X117523238Y-74740761D01*
X118332761Y-74121714D02*
X118570857Y-74788380D01*
X118808952Y-74121714D02*
X118570857Y-74788380D01*
X118475619Y-75026476D01*
X118428000Y-75074095D01*
X118332761Y-75121714D01*
X119951809Y-74788380D02*
X119951809Y-73788380D01*
X120189904Y-73788380D01*
X120332761Y-73836000D01*
X120428000Y-73931238D01*
X120475619Y-74026476D01*
X120523238Y-74216952D01*
X120523238Y-74359809D01*
X120475619Y-74550285D01*
X120428000Y-74645523D01*
X120332761Y-74740761D01*
X120189904Y-74788380D01*
X119951809Y-74788380D01*
X120951809Y-74788380D02*
X120951809Y-74121714D01*
X120951809Y-74312190D02*
X120999428Y-74216952D01*
X121047047Y-74169333D01*
X121142285Y-74121714D01*
X121237523Y-74121714D01*
X121570857Y-74788380D02*
X121570857Y-74121714D01*
X121570857Y-73788380D02*
X121523238Y-73836000D01*
X121570857Y-73883619D01*
X121618476Y-73836000D01*
X121570857Y-73788380D01*
X121570857Y-73883619D01*
X121951809Y-74121714D02*
X122189904Y-74788380D01*
X122428000Y-74121714D01*
X123189904Y-74740761D02*
X123094666Y-74788380D01*
X122904190Y-74788380D01*
X122808952Y-74740761D01*
X122761333Y-74645523D01*
X122761333Y-74264571D01*
X122808952Y-74169333D01*
X122904190Y-74121714D01*
X123094666Y-74121714D01*
X123189904Y-74169333D01*
X123237523Y-74264571D01*
X123237523Y-74359809D01*
X122761333Y-74455047D01*
X124761333Y-74264571D02*
X124904190Y-74312190D01*
X124951809Y-74359809D01*
X124999428Y-74455047D01*
X124999428Y-74597904D01*
X124951809Y-74693142D01*
X124904190Y-74740761D01*
X124808952Y-74788380D01*
X124428000Y-74788380D01*
X124428000Y-73788380D01*
X124761333Y-73788380D01*
X124856571Y-73836000D01*
X124904190Y-73883619D01*
X124951809Y-73978857D01*
X124951809Y-74074095D01*
X124904190Y-74169333D01*
X124856571Y-74216952D01*
X124761333Y-74264571D01*
X124428000Y-74264571D01*
X125428000Y-74788380D02*
X125428000Y-74121714D01*
X125428000Y-74312190D02*
X125475619Y-74216952D01*
X125523238Y-74169333D01*
X125618476Y-74121714D01*
X125713714Y-74121714D01*
X126428000Y-74740761D02*
X126332761Y-74788380D01*
X126142285Y-74788380D01*
X126047047Y-74740761D01*
X125999428Y-74645523D01*
X125999428Y-74264571D01*
X126047047Y-74169333D01*
X126142285Y-74121714D01*
X126332761Y-74121714D01*
X126428000Y-74169333D01*
X126475619Y-74264571D01*
X126475619Y-74359809D01*
X125999428Y-74455047D01*
X127332761Y-74788380D02*
X127332761Y-74264571D01*
X127285142Y-74169333D01*
X127189904Y-74121714D01*
X126999428Y-74121714D01*
X126904190Y-74169333D01*
X127332761Y-74740761D02*
X127237523Y-74788380D01*
X126999428Y-74788380D01*
X126904190Y-74740761D01*
X126856571Y-74645523D01*
X126856571Y-74550285D01*
X126904190Y-74455047D01*
X126999428Y-74407428D01*
X127237523Y-74407428D01*
X127332761Y-74359809D01*
X127808952Y-74788380D02*
X127808952Y-73788380D01*
X127904190Y-74407428D02*
X128189904Y-74788380D01*
X128189904Y-74121714D02*
X127808952Y-74502666D01*
X128761333Y-74788380D02*
X128666095Y-74740761D01*
X128618476Y-74693142D01*
X128570857Y-74597904D01*
X128570857Y-74312190D01*
X128618476Y-74216952D01*
X128666095Y-74169333D01*
X128761333Y-74121714D01*
X128904190Y-74121714D01*
X128999428Y-74169333D01*
X129047047Y-74216952D01*
X129094666Y-74312190D01*
X129094666Y-74597904D01*
X129047047Y-74693142D01*
X128999428Y-74740761D01*
X128904190Y-74788380D01*
X128761333Y-74788380D01*
X129951809Y-74121714D02*
X129951809Y-74788380D01*
X129523238Y-74121714D02*
X129523238Y-74645523D01*
X129570857Y-74740761D01*
X129666095Y-74788380D01*
X129808952Y-74788380D01*
X129904190Y-74740761D01*
X129951809Y-74693142D01*
X130285142Y-74121714D02*
X130666095Y-74121714D01*
X130428000Y-73788380D02*
X130428000Y-74645523D01*
X130475619Y-74740761D01*
X130570857Y-74788380D01*
X130666095Y-74788380D01*
X110475619Y-76398380D02*
X110475619Y-75398380D01*
X110808952Y-76112666D01*
X111142285Y-75398380D01*
X111142285Y-76398380D01*
X112047047Y-76398380D02*
X112047047Y-75874571D01*
X111999428Y-75779333D01*
X111904190Y-75731714D01*
X111713714Y-75731714D01*
X111618476Y-75779333D01*
X112047047Y-76350761D02*
X111951809Y-76398380D01*
X111713714Y-76398380D01*
X111618476Y-76350761D01*
X111570857Y-76255523D01*
X111570857Y-76160285D01*
X111618476Y-76065047D01*
X111713714Y-76017428D01*
X111951809Y-76017428D01*
X112047047Y-75969809D01*
X112428000Y-76398380D02*
X112951809Y-75731714D01*
X112428000Y-75731714D02*
X112951809Y-76398380D01*
X114094666Y-76398380D02*
X114094666Y-75398380D01*
X114475619Y-75398380D01*
X114570857Y-75446000D01*
X114618476Y-75493619D01*
X114666095Y-75588857D01*
X114666095Y-75731714D01*
X114618476Y-75826952D01*
X114570857Y-75874571D01*
X114475619Y-75922190D01*
X114094666Y-75922190D01*
X115094666Y-76398380D02*
X115094666Y-75731714D01*
X115094666Y-75922190D02*
X115142285Y-75826952D01*
X115189904Y-75779333D01*
X115285142Y-75731714D01*
X115380380Y-75731714D01*
X115856571Y-76398380D02*
X115761333Y-76350761D01*
X115713714Y-76303142D01*
X115666095Y-76207904D01*
X115666095Y-75922190D01*
X115713714Y-75826952D01*
X115761333Y-75779333D01*
X115856571Y-75731714D01*
X115999428Y-75731714D01*
X116094666Y-75779333D01*
X116142285Y-75826952D01*
X116189904Y-75922190D01*
X116189904Y-76207904D01*
X116142285Y-76303142D01*
X116094666Y-76350761D01*
X115999428Y-76398380D01*
X115856571Y-76398380D01*
X116570857Y-76350761D02*
X116666095Y-76398380D01*
X116856571Y-76398380D01*
X116951809Y-76350761D01*
X116999428Y-76255523D01*
X116999428Y-76207904D01*
X116951809Y-76112666D01*
X116856571Y-76065047D01*
X116713714Y-76065047D01*
X116618476Y-76017428D01*
X116570857Y-75922190D01*
X116570857Y-75874571D01*
X116618476Y-75779333D01*
X116713714Y-75731714D01*
X116856571Y-75731714D01*
X116951809Y-75779333D01*
X117428000Y-76398380D02*
X117428000Y-75398380D01*
X117523238Y-76017428D02*
X117808952Y-76398380D01*
X117808952Y-75731714D02*
X117428000Y-76112666D01*
X118666095Y-76398380D02*
X118666095Y-75874571D01*
X118618476Y-75779333D01*
X118523238Y-75731714D01*
X118332761Y-75731714D01*
X118237523Y-75779333D01*
X118666095Y-76350761D02*
X118570857Y-76398380D01*
X118332761Y-76398380D01*
X118237523Y-76350761D01*
X118189904Y-76255523D01*
X118189904Y-76160285D01*
X118237523Y-76065047D01*
X118332761Y-76017428D01*
X118570857Y-76017428D01*
X118666095Y-75969809D01*
X119570857Y-75731714D02*
X119570857Y-76398380D01*
X119142285Y-75731714D02*
X119142285Y-76255523D01*
X119189904Y-76350761D01*
X119285142Y-76398380D01*
X119428000Y-76398380D01*
X119523238Y-76350761D01*
X119570857Y-76303142D01*
X120428000Y-76350761D02*
X120332761Y-76398380D01*
X120142285Y-76398380D01*
X120047047Y-76350761D01*
X119999428Y-76255523D01*
X119999428Y-75874571D01*
X120047047Y-75779333D01*
X120142285Y-75731714D01*
X120332761Y-75731714D01*
X120428000Y-75779333D01*
X120475619Y-75874571D01*
X120475619Y-75969809D01*
X119999428Y-76065047D01*
X120904190Y-76398380D02*
X120904190Y-75731714D01*
X120904190Y-75922190D02*
X120951809Y-75826952D01*
X120999428Y-75779333D01*
X121094666Y-75731714D01*
X121189904Y-75731714D01*
X122951809Y-75731714D02*
X123189904Y-76398380D01*
X123428000Y-75731714D01*
X123999428Y-75398380D02*
X124094666Y-75398380D01*
X124189904Y-75446000D01*
X124237523Y-75493619D01*
X124285142Y-75588857D01*
X124332761Y-75779333D01*
X124332761Y-76017428D01*
X124285142Y-76207904D01*
X124237523Y-76303142D01*
X124189904Y-76350761D01*
X124094666Y-76398380D01*
X123999428Y-76398380D01*
X123904190Y-76350761D01*
X123856571Y-76303142D01*
X123808952Y-76207904D01*
X123761333Y-76017428D01*
X123761333Y-75779333D01*
X123808952Y-75588857D01*
X123856571Y-75493619D01*
X123904190Y-75446000D01*
X123999428Y-75398380D01*
X124761333Y-76303142D02*
X124808952Y-76350761D01*
X124761333Y-76398380D01*
X124713714Y-76350761D01*
X124761333Y-76303142D01*
X124761333Y-76398380D01*
X125761333Y-76398380D02*
X125189904Y-76398380D01*
X125475619Y-76398380D02*
X125475619Y-75398380D01*
X125380380Y-75541238D01*
X125285142Y-75636476D01*
X125189904Y-75684095D01*
X127999428Y-75398380D02*
X127999428Y-76112666D01*
X127951809Y-76255523D01*
X127856571Y-76350761D01*
X127713714Y-76398380D01*
X127618476Y-76398380D01*
X128904190Y-76398380D02*
X128904190Y-75874571D01*
X128856571Y-75779333D01*
X128761333Y-75731714D01*
X128570857Y-75731714D01*
X128475619Y-75779333D01*
X128904190Y-76350761D02*
X128808952Y-76398380D01*
X128570857Y-76398380D01*
X128475619Y-76350761D01*
X128427999Y-76255523D01*
X128427999Y-76160285D01*
X128475619Y-76065047D01*
X128570857Y-76017428D01*
X128808952Y-76017428D01*
X128904190Y-75969809D01*
X129380380Y-75731714D02*
X129380380Y-76398380D01*
X129380380Y-75826952D02*
X129427999Y-75779333D01*
X129523238Y-75731714D01*
X129666095Y-75731714D01*
X129761333Y-75779333D01*
X129808952Y-75874571D01*
X129808952Y-76398380D01*
X130999428Y-75493619D02*
X131047047Y-75446000D01*
X131142285Y-75398380D01*
X131380380Y-75398380D01*
X131475619Y-75446000D01*
X131523238Y-75493619D01*
X131570857Y-75588857D01*
X131570857Y-75684095D01*
X131523238Y-75826952D01*
X130951809Y-76398380D01*
X131570857Y-76398380D01*
X132189904Y-75398380D02*
X132285142Y-75398380D01*
X132380380Y-75446000D01*
X132427999Y-75493619D01*
X132475619Y-75588857D01*
X132523238Y-75779333D01*
X132523238Y-76017428D01*
X132475619Y-76207904D01*
X132427999Y-76303142D01*
X132380380Y-76350761D01*
X132285142Y-76398380D01*
X132189904Y-76398380D01*
X132094666Y-76350761D01*
X132047047Y-76303142D01*
X131999428Y-76207904D01*
X131951809Y-76017428D01*
X131951809Y-75779333D01*
X131999428Y-75588857D01*
X132047047Y-75493619D01*
X132094666Y-75446000D01*
X132189904Y-75398380D01*
X132904190Y-75493619D02*
X132951809Y-75446000D01*
X133047047Y-75398380D01*
X133285142Y-75398380D01*
X133380380Y-75446000D01*
X133427999Y-75493619D01*
X133475619Y-75588857D01*
X133475619Y-75684095D01*
X133427999Y-75826952D01*
X132856571Y-76398380D01*
X133475619Y-76398380D01*
X133808952Y-75398380D02*
X134427999Y-75398380D01*
X134094666Y-75779333D01*
X134237523Y-75779333D01*
X134332761Y-75826952D01*
X134380380Y-75874571D01*
X134427999Y-75969809D01*
X134427999Y-76207904D01*
X134380380Y-76303142D01*
X134332761Y-76350761D01*
X134237523Y-76398380D01*
X133951809Y-76398380D01*
X133856571Y-76350761D01*
X133808952Y-76303142D01*
X107070857Y-77341714D02*
X107070857Y-78151238D01*
X107023238Y-78246476D01*
X106975619Y-78294095D01*
X106880380Y-78341714D01*
X106737523Y-78341714D01*
X106642285Y-78294095D01*
X107070857Y-77960761D02*
X106975619Y-78008380D01*
X106785142Y-78008380D01*
X106689904Y-77960761D01*
X106642285Y-77913142D01*
X106594666Y-77817904D01*
X106594666Y-77532190D01*
X106642285Y-77436952D01*
X106689904Y-77389333D01*
X106785142Y-77341714D01*
X106975619Y-77341714D01*
X107070857Y-77389333D01*
X107547047Y-78008380D02*
X107547047Y-77341714D01*
X107547047Y-77008380D02*
X107499428Y-77056000D01*
X107547047Y-77103619D01*
X107594666Y-77056000D01*
X107547047Y-77008380D01*
X107547047Y-77103619D01*
X107880380Y-77341714D02*
X108261333Y-77341714D01*
X108023238Y-77008380D02*
X108023238Y-77865523D01*
X108070857Y-77960761D01*
X108166095Y-78008380D01*
X108261333Y-78008380D01*
X108594666Y-78008380D02*
X108594666Y-77008380D01*
X109023238Y-78008380D02*
X109023238Y-77484571D01*
X108975619Y-77389333D01*
X108880380Y-77341714D01*
X108737523Y-77341714D01*
X108642285Y-77389333D01*
X108594666Y-77436952D01*
X109928000Y-77341714D02*
X109928000Y-78008380D01*
X109499428Y-77341714D02*
X109499428Y-77865523D01*
X109547047Y-77960761D01*
X109642285Y-78008380D01*
X109785142Y-78008380D01*
X109880380Y-77960761D01*
X109928000Y-77913142D01*
X110404190Y-78008380D02*
X110404190Y-77008380D01*
X110404190Y-77389333D02*
X110499428Y-77341714D01*
X110689904Y-77341714D01*
X110785142Y-77389333D01*
X110832761Y-77436952D01*
X110880380Y-77532190D01*
X110880380Y-77817904D01*
X110832761Y-77913142D01*
X110785142Y-77960761D01*
X110689904Y-78008380D01*
X110499428Y-78008380D01*
X110404190Y-77960761D01*
X111308952Y-77913142D02*
X111356571Y-77960761D01*
X111308952Y-78008380D01*
X111261333Y-77960761D01*
X111308952Y-77913142D01*
X111308952Y-78008380D01*
X112213714Y-77960761D02*
X112118476Y-78008380D01*
X111928000Y-78008380D01*
X111832761Y-77960761D01*
X111785142Y-77913142D01*
X111737523Y-77817904D01*
X111737523Y-77532190D01*
X111785142Y-77436952D01*
X111832761Y-77389333D01*
X111928000Y-77341714D01*
X112118476Y-77341714D01*
X112213714Y-77389333D01*
X112785142Y-78008380D02*
X112689904Y-77960761D01*
X112642285Y-77913142D01*
X112594666Y-77817904D01*
X112594666Y-77532190D01*
X112642285Y-77436952D01*
X112689904Y-77389333D01*
X112785142Y-77341714D01*
X112928000Y-77341714D01*
X113023238Y-77389333D01*
X113070857Y-77436952D01*
X113118476Y-77532190D01*
X113118476Y-77817904D01*
X113070857Y-77913142D01*
X113023238Y-77960761D01*
X112928000Y-78008380D01*
X112785142Y-78008380D01*
X113547047Y-78008380D02*
X113547047Y-77341714D01*
X113547047Y-77436952D02*
X113594666Y-77389333D01*
X113689904Y-77341714D01*
X113832761Y-77341714D01*
X113928000Y-77389333D01*
X113975619Y-77484571D01*
X113975619Y-78008380D01*
X113975619Y-77484571D02*
X114023238Y-77389333D01*
X114118476Y-77341714D01*
X114261333Y-77341714D01*
X114356571Y-77389333D01*
X114404190Y-77484571D01*
X114404190Y-78008380D01*
X115594666Y-76960761D02*
X114737523Y-78246476D01*
X115928000Y-78008380D02*
X115928000Y-77341714D01*
X115928000Y-77436952D02*
X115975619Y-77389333D01*
X116070857Y-77341714D01*
X116213714Y-77341714D01*
X116308952Y-77389333D01*
X116356571Y-77484571D01*
X116356571Y-78008380D01*
X116356571Y-77484571D02*
X116404190Y-77389333D01*
X116499428Y-77341714D01*
X116642285Y-77341714D01*
X116737523Y-77389333D01*
X116785142Y-77484571D01*
X116785142Y-78008380D01*
X117261333Y-77341714D02*
X117261333Y-78341714D01*
X117261333Y-77389333D02*
X117356571Y-77341714D01*
X117547047Y-77341714D01*
X117642285Y-77389333D01*
X117689904Y-77436952D01*
X117737523Y-77532190D01*
X117737523Y-77817904D01*
X117689904Y-77913142D01*
X117642285Y-77960761D01*
X117547047Y-78008380D01*
X117356571Y-78008380D01*
X117261333Y-77960761D01*
X118166095Y-78008380D02*
X118166095Y-77341714D01*
X118166095Y-77532190D02*
X118213714Y-77436952D01*
X118261333Y-77389333D01*
X118356571Y-77341714D01*
X118451809Y-77341714D01*
X118928000Y-78008380D02*
X118832761Y-77960761D01*
X118785142Y-77913142D01*
X118737523Y-77817904D01*
X118737523Y-77532190D01*
X118785142Y-77436952D01*
X118832761Y-77389333D01*
X118928000Y-77341714D01*
X119070857Y-77341714D01*
X119166095Y-77389333D01*
X119213714Y-77436952D01*
X119261333Y-77532190D01*
X119261333Y-77817904D01*
X119213714Y-77913142D01*
X119166095Y-77960761D01*
X119070857Y-78008380D01*
X118928000Y-78008380D01*
X119642285Y-77960761D02*
X119737523Y-78008380D01*
X119928000Y-78008380D01*
X120023238Y-77960761D01*
X120070857Y-77865523D01*
X120070857Y-77817904D01*
X120023238Y-77722666D01*
X119928000Y-77675047D01*
X119785142Y-77675047D01*
X119689904Y-77627428D01*
X119642285Y-77532190D01*
X119642285Y-77484571D01*
X119689904Y-77389333D01*
X119785142Y-77341714D01*
X119928000Y-77341714D01*
X120023238Y-77389333D01*
X120499428Y-78008380D02*
X120499428Y-77008380D01*
X120594666Y-77627428D02*
X120880380Y-78008380D01*
X120880380Y-77341714D02*
X120499428Y-77722666D01*
X122023238Y-76960761D02*
X121166095Y-78246476D01*
X122356571Y-78008380D02*
X122356571Y-77341714D01*
X122356571Y-77436952D02*
X122404190Y-77389333D01*
X122499428Y-77341714D01*
X122642285Y-77341714D01*
X122737523Y-77389333D01*
X122785142Y-77484571D01*
X122785142Y-78008380D01*
X122785142Y-77484571D02*
X122832761Y-77389333D01*
X122928000Y-77341714D01*
X123070857Y-77341714D01*
X123166095Y-77389333D01*
X123213714Y-77484571D01*
X123213714Y-78008380D01*
X124118476Y-77341714D02*
X124118476Y-78008380D01*
X123689904Y-77341714D02*
X123689904Y-77865523D01*
X123737523Y-77960761D01*
X123832761Y-78008380D01*
X123975619Y-78008380D01*
X124070857Y-77960761D01*
X124118476Y-77913142D01*
X124547047Y-77960761D02*
X124642285Y-78008380D01*
X124832761Y-78008380D01*
X124928000Y-77960761D01*
X124975619Y-77865523D01*
X124975619Y-77817904D01*
X124928000Y-77722666D01*
X124832761Y-77675047D01*
X124689904Y-77675047D01*
X124594666Y-77627428D01*
X124547047Y-77532190D01*
X124547047Y-77484571D01*
X124594666Y-77389333D01*
X124689904Y-77341714D01*
X124832761Y-77341714D01*
X124928000Y-77389333D01*
X125404190Y-78008380D02*
X125404190Y-77341714D01*
X125404190Y-77008380D02*
X125356571Y-77056000D01*
X125404190Y-77103619D01*
X125451809Y-77056000D01*
X125404190Y-77008380D01*
X125404190Y-77103619D01*
X126308952Y-77960761D02*
X126213714Y-78008380D01*
X126023238Y-78008380D01*
X125928000Y-77960761D01*
X125880380Y-77913142D01*
X125832761Y-77817904D01*
X125832761Y-77532190D01*
X125880380Y-77436952D01*
X125928000Y-77389333D01*
X126023238Y-77341714D01*
X126213714Y-77341714D01*
X126308952Y-77389333D01*
X127166095Y-78008380D02*
X127166095Y-77484571D01*
X127118476Y-77389333D01*
X127023238Y-77341714D01*
X126832761Y-77341714D01*
X126737523Y-77389333D01*
X127166095Y-77960761D02*
X127070857Y-78008380D01*
X126832761Y-78008380D01*
X126737523Y-77960761D01*
X126689904Y-77865523D01*
X126689904Y-77770285D01*
X126737523Y-77675047D01*
X126832761Y-77627428D01*
X127070857Y-77627428D01*
X127166095Y-77579809D01*
X127785142Y-78008380D02*
X127689904Y-77960761D01*
X127642285Y-77865523D01*
X127642285Y-77008380D01*
X127928000Y-78103619D02*
X128689904Y-78103619D01*
X128785142Y-77341714D02*
X129166095Y-77341714D01*
X128928000Y-78008380D02*
X128928000Y-77151238D01*
X128975619Y-77056000D01*
X129070857Y-77008380D01*
X129166095Y-77008380D01*
X129642285Y-78008380D02*
X129547047Y-77960761D01*
X129499428Y-77865523D01*
X129499428Y-77008380D01*
X130166095Y-78008380D02*
X130070857Y-77960761D01*
X130023238Y-77913142D01*
X129975619Y-77817904D01*
X129975619Y-77532190D01*
X130023238Y-77436952D01*
X130070857Y-77389333D01*
X130166095Y-77341714D01*
X130308952Y-77341714D01*
X130404190Y-77389333D01*
X130451809Y-77436952D01*
X130499428Y-77532190D01*
X130499428Y-77817904D01*
X130451809Y-77913142D01*
X130404190Y-77960761D01*
X130308952Y-78008380D01*
X130166095Y-78008380D01*
X130928000Y-77341714D02*
X130928000Y-78341714D01*
X130928000Y-77389333D02*
X131023238Y-77341714D01*
X131213714Y-77341714D01*
X131308952Y-77389333D01*
X131356571Y-77436952D01*
X131404190Y-77532190D01*
X131404190Y-77817904D01*
X131356571Y-77913142D01*
X131308952Y-77960761D01*
X131213714Y-78008380D01*
X131023238Y-78008380D01*
X130928000Y-77960761D01*
X131832761Y-77341714D02*
X131832761Y-78341714D01*
X131832761Y-77389333D02*
X131927999Y-77341714D01*
X132118476Y-77341714D01*
X132213714Y-77389333D01*
X132261333Y-77436952D01*
X132308952Y-77532190D01*
X132308952Y-77817904D01*
X132261333Y-77913142D01*
X132213714Y-77960761D01*
X132118476Y-78008380D01*
X131927999Y-78008380D01*
X131832761Y-77960761D01*
X132642285Y-77341714D02*
X132880380Y-78008380D01*
X133118476Y-77341714D02*
X132880380Y-78008380D01*
X132785142Y-78246476D01*
X132737523Y-78294095D01*
X132642285Y-78341714D01*
X133261333Y-78103619D02*
X134023238Y-78103619D01*
X134689904Y-78008380D02*
X134689904Y-77008380D01*
X134689904Y-77960761D02*
X134594666Y-78008380D01*
X134404190Y-78008380D01*
X134308952Y-77960761D01*
X134261333Y-77913142D01*
X134213714Y-77817904D01*
X134213714Y-77532190D01*
X134261333Y-77436952D01*
X134308952Y-77389333D01*
X134404190Y-77341714D01*
X134594666Y-77341714D01*
X134689904Y-77389333D01*
X135166095Y-78008380D02*
X135166095Y-77341714D01*
X135166095Y-77532190D02*
X135213714Y-77436952D01*
X135261333Y-77389333D01*
X135356571Y-77341714D01*
X135451809Y-77341714D01*
X135785142Y-78008380D02*
X135785142Y-77341714D01*
X135785142Y-77008380D02*
X135737523Y-77056000D01*
X135785142Y-77103619D01*
X135832761Y-77056000D01*
X135785142Y-77008380D01*
X135785142Y-77103619D01*
X136166095Y-77341714D02*
X136404190Y-78008380D01*
X136642285Y-77341714D01*
X137404190Y-77960761D02*
X137308952Y-78008380D01*
X137118476Y-78008380D01*
X137023238Y-77960761D01*
X136975619Y-77865523D01*
X136975619Y-77484571D01*
X137023238Y-77389333D01*
X137118476Y-77341714D01*
X137308952Y-77341714D01*
X137404190Y-77389333D01*
X137451809Y-77484571D01*
X137451809Y-77579809D01*
X136975619Y-77675047D01*
X137832761Y-77960761D02*
X137928000Y-78008380D01*
X138118476Y-78008380D01*
X138213714Y-77960761D01*
X138261333Y-77865523D01*
X138261333Y-77817904D01*
X138213714Y-77722666D01*
X138118476Y-77675047D01*
X137975619Y-77675047D01*
X137880380Y-77627428D01*
X137832761Y-77532190D01*
X137832761Y-77484571D01*
X137880380Y-77389333D01*
X137975619Y-77341714D01*
X138118476Y-77341714D01*
X138213714Y-77389333D01*
X119409785Y-86241000D02*
X119314547Y-86193380D01*
X119171690Y-86193380D01*
X119028833Y-86241000D01*
X118933595Y-86336238D01*
X118885976Y-86431476D01*
X118838357Y-86621952D01*
X118838357Y-86764809D01*
X118885976Y-86955285D01*
X118933595Y-87050523D01*
X119028833Y-87145761D01*
X119171690Y-87193380D01*
X119266928Y-87193380D01*
X119409785Y-87145761D01*
X119457404Y-87098142D01*
X119457404Y-86764809D01*
X119266928Y-86764809D01*
X119885976Y-87193380D02*
X119885976Y-86193380D01*
X120457404Y-87193380D01*
X120457404Y-86193380D01*
X120933595Y-87193380D02*
X120933595Y-86193380D01*
X121171690Y-86193380D01*
X121314547Y-86241000D01*
X121409785Y-86336238D01*
X121457404Y-86431476D01*
X121505023Y-86621952D01*
X121505023Y-86764809D01*
X121457404Y-86955285D01*
X121409785Y-87050523D01*
X121314547Y-87145761D01*
X121171690Y-87193380D01*
X120933595Y-87193380D01*
X131018595Y-87193380D02*
X131018595Y-86193380D01*
X131256690Y-86193380D01*
X131399547Y-86241000D01*
X131494785Y-86336238D01*
X131542404Y-86431476D01*
X131590023Y-86621952D01*
X131590023Y-86764809D01*
X131542404Y-86955285D01*
X131494785Y-87050523D01*
X131399547Y-87145761D01*
X131256690Y-87193380D01*
X131018595Y-87193380D01*
X132018595Y-87193380D02*
X132018595Y-86193380D01*
X133066214Y-87193380D02*
X132732880Y-86717190D01*
X132494785Y-87193380D02*
X132494785Y-86193380D01*
X132875738Y-86193380D01*
X132970976Y-86241000D01*
X133018595Y-86288619D01*
X133066214Y-86383857D01*
X133066214Y-86526714D01*
X133018595Y-86621952D01*
X132970976Y-86669571D01*
X132875738Y-86717190D01*
X132494785Y-86717190D01*
X125738000Y-113186595D02*
X125690380Y-113281833D01*
X125690380Y-113424690D01*
X125738000Y-113567547D01*
X125833238Y-113662785D01*
X125928476Y-113710404D01*
X126118952Y-113758023D01*
X126261809Y-113758023D01*
X126452285Y-113710404D01*
X126547523Y-113662785D01*
X126642761Y-113567547D01*
X126690380Y-113424690D01*
X126690380Y-113329452D01*
X126642761Y-113186595D01*
X126595142Y-113138976D01*
X126261809Y-113138976D01*
X126261809Y-113329452D01*
X126690380Y-112710404D02*
X125690380Y-112710404D01*
X126690380Y-112138976D01*
X125690380Y-112138976D01*
X126690380Y-111662785D02*
X125690380Y-111662785D01*
X125690380Y-111424690D01*
X125738000Y-111281833D01*
X125833238Y-111186595D01*
X125928476Y-111138976D01*
X126118952Y-111091357D01*
X126261809Y-111091357D01*
X126452285Y-111138976D01*
X126547523Y-111186595D01*
X126642761Y-111281833D01*
X126690380Y-111424690D01*
X126690380Y-111662785D01*
X140978000Y-109727904D02*
X140930380Y-109823142D01*
X140930380Y-109966000D01*
X140978000Y-110108857D01*
X141073238Y-110204095D01*
X141168476Y-110251714D01*
X141358952Y-110299333D01*
X141501809Y-110299333D01*
X141692285Y-110251714D01*
X141787523Y-110204095D01*
X141882761Y-110108857D01*
X141930380Y-109966000D01*
X141930380Y-109870761D01*
X141882761Y-109727904D01*
X141835142Y-109680285D01*
X141501809Y-109680285D01*
X141501809Y-109870761D01*
X141930380Y-109251714D02*
X140930380Y-109251714D01*
X141930380Y-108680285D01*
X140930380Y-108680285D01*
X141930380Y-108204095D02*
X140930380Y-108204095D01*
X140930380Y-107966000D01*
X140978000Y-107823142D01*
X141073238Y-107727904D01*
X141168476Y-107680285D01*
X141358952Y-107632666D01*
X141501809Y-107632666D01*
X141692285Y-107680285D01*
X141787523Y-107727904D01*
X141882761Y-107823142D01*
X141930380Y-107966000D01*
X141930380Y-108204095D01*
X140978000Y-89407904D02*
X140930380Y-89503142D01*
X140930380Y-89646000D01*
X140978000Y-89788857D01*
X141073238Y-89884095D01*
X141168476Y-89931714D01*
X141358952Y-89979333D01*
X141501809Y-89979333D01*
X141692285Y-89931714D01*
X141787523Y-89884095D01*
X141882761Y-89788857D01*
X141930380Y-89646000D01*
X141930380Y-89550761D01*
X141882761Y-89407904D01*
X141835142Y-89360285D01*
X141501809Y-89360285D01*
X141501809Y-89550761D01*
X141930380Y-88931714D02*
X140930380Y-88931714D01*
X141930380Y-88360285D01*
X140930380Y-88360285D01*
X141930380Y-87884095D02*
X140930380Y-87884095D01*
X140930380Y-87646000D01*
X140978000Y-87503142D01*
X141073238Y-87407904D01*
X141168476Y-87360285D01*
X141358952Y-87312666D01*
X141501809Y-87312666D01*
X141692285Y-87360285D01*
X141787523Y-87407904D01*
X141882761Y-87503142D01*
X141930380Y-87646000D01*
X141930380Y-87884095D01*
X130970976Y-84605761D02*
X131113833Y-84653380D01*
X131351928Y-84653380D01*
X131447166Y-84605761D01*
X131494785Y-84558142D01*
X131542404Y-84462904D01*
X131542404Y-84367666D01*
X131494785Y-84272428D01*
X131447166Y-84224809D01*
X131351928Y-84177190D01*
X131161452Y-84129571D01*
X131066214Y-84081952D01*
X131018595Y-84034333D01*
X130970976Y-83939095D01*
X130970976Y-83843857D01*
X131018595Y-83748619D01*
X131066214Y-83701000D01*
X131161452Y-83653380D01*
X131399547Y-83653380D01*
X131542404Y-83701000D01*
X131828119Y-83653380D02*
X132399547Y-83653380D01*
X132113833Y-84653380D02*
X132113833Y-83653380D01*
X132732880Y-84129571D02*
X133066214Y-84129571D01*
X133209071Y-84653380D02*
X132732880Y-84653380D01*
X132732880Y-83653380D01*
X133209071Y-83653380D01*
X133637642Y-84653380D02*
X133637642Y-83653380D01*
X134018595Y-83653380D01*
X134113833Y-83701000D01*
X134161452Y-83748619D01*
X134209071Y-83843857D01*
X134209071Y-83986714D01*
X134161452Y-84081952D01*
X134113833Y-84129571D01*
X134018595Y-84177190D01*
X133637642Y-84177190D01*
X119409785Y-83701000D02*
X119314547Y-83653380D01*
X119171690Y-83653380D01*
X119028833Y-83701000D01*
X118933595Y-83796238D01*
X118885976Y-83891476D01*
X118838357Y-84081952D01*
X118838357Y-84224809D01*
X118885976Y-84415285D01*
X118933595Y-84510523D01*
X119028833Y-84605761D01*
X119171690Y-84653380D01*
X119266928Y-84653380D01*
X119409785Y-84605761D01*
X119457404Y-84558142D01*
X119457404Y-84224809D01*
X119266928Y-84224809D01*
X119885976Y-84653380D02*
X119885976Y-83653380D01*
X120457404Y-84653380D01*
X120457404Y-83653380D01*
X120933595Y-84653380D02*
X120933595Y-83653380D01*
X121171690Y-83653380D01*
X121314547Y-83701000D01*
X121409785Y-83796238D01*
X121457404Y-83891476D01*
X121505023Y-84081952D01*
X121505023Y-84224809D01*
X121457404Y-84415285D01*
X121409785Y-84510523D01*
X121314547Y-84605761D01*
X121171690Y-84653380D01*
X120933595Y-84653380D01*
X125095142Y-82065761D02*
X125238000Y-82113380D01*
X125476095Y-82113380D01*
X125571333Y-82065761D01*
X125618952Y-82018142D01*
X125666571Y-81922904D01*
X125666571Y-81827666D01*
X125618952Y-81732428D01*
X125571333Y-81684809D01*
X125476095Y-81637190D01*
X125285619Y-81589571D01*
X125190380Y-81541952D01*
X125142761Y-81494333D01*
X125095142Y-81399095D01*
X125095142Y-81303857D01*
X125142761Y-81208619D01*
X125190380Y-81161000D01*
X125285619Y-81113380D01*
X125523714Y-81113380D01*
X125666571Y-81161000D01*
X126095142Y-81589571D02*
X126428476Y-81589571D01*
X126571333Y-82113380D02*
X126095142Y-82113380D01*
X126095142Y-81113380D01*
X126571333Y-81113380D01*
X127476095Y-82113380D02*
X126999904Y-82113380D01*
X126999904Y-81113380D01*
X123769428Y-113710404D02*
X123769428Y-112948500D01*
X124150380Y-113329452D02*
X123388476Y-113329452D01*
X123150380Y-111996119D02*
X123150380Y-112472309D01*
X123626571Y-112519928D01*
X123578952Y-112472309D01*
X123531333Y-112377071D01*
X123531333Y-112138976D01*
X123578952Y-112043738D01*
X123626571Y-111996119D01*
X123721809Y-111948500D01*
X123959904Y-111948500D01*
X124055142Y-111996119D01*
X124102761Y-112043738D01*
X124150380Y-112138976D01*
X124150380Y-112377071D01*
X124102761Y-112472309D01*
X124055142Y-112519928D01*
X123150380Y-111662785D02*
X124150380Y-111329452D01*
X123150380Y-110996119D01*
%TO.C,J10*%
X135215619Y-111958380D02*
X135215619Y-110958380D01*
X135548952Y-111672666D01*
X135882285Y-110958380D01*
X135882285Y-111958380D01*
X136358476Y-111958380D02*
X136358476Y-110958380D01*
X136834666Y-111958380D02*
X136834666Y-110958380D01*
X137072761Y-110958380D01*
X137215619Y-111006000D01*
X137310857Y-111101238D01*
X137358476Y-111196476D01*
X137406095Y-111386952D01*
X137406095Y-111529809D01*
X137358476Y-111720285D01*
X137310857Y-111815523D01*
X137215619Y-111910761D01*
X137072761Y-111958380D01*
X136834666Y-111958380D01*
X137834666Y-111958380D02*
X137834666Y-110958380D01*
X139072761Y-111958380D02*
X139072761Y-110958380D01*
X139548952Y-111958380D02*
X139548952Y-110958380D01*
X140120380Y-111958380D01*
X140120380Y-110958380D01*
%TO.C,R1*%
X122261333Y-104973380D02*
X121928000Y-104497190D01*
X121689904Y-104973380D02*
X121689904Y-103973380D01*
X122070857Y-103973380D01*
X122166095Y-104021000D01*
X122213714Y-104068619D01*
X122261333Y-104163857D01*
X122261333Y-104306714D01*
X122213714Y-104401952D01*
X122166095Y-104449571D01*
X122070857Y-104497190D01*
X121689904Y-104497190D01*
X123213714Y-104973380D02*
X122642285Y-104973380D01*
X122928000Y-104973380D02*
X122928000Y-103973380D01*
X122832761Y-104116238D01*
X122737523Y-104211476D01*
X122642285Y-104259095D01*
X121975619Y-99274095D02*
X121928000Y-99226476D01*
X121880380Y-99131238D01*
X121880380Y-98893142D01*
X121928000Y-98797904D01*
X121975619Y-98750285D01*
X122070857Y-98702666D01*
X122166095Y-98702666D01*
X122308952Y-98750285D01*
X122880380Y-99321714D01*
X122880380Y-98702666D01*
X121975619Y-98321714D02*
X121928000Y-98274095D01*
X121880380Y-98178857D01*
X121880380Y-97940761D01*
X121928000Y-97845523D01*
X121975619Y-97797904D01*
X122070857Y-97750285D01*
X122166095Y-97750285D01*
X122308952Y-97797904D01*
X122880380Y-98369333D01*
X122880380Y-97750285D01*
X121880380Y-97131238D02*
X121880380Y-97036000D01*
X121928000Y-96940761D01*
X121975619Y-96893142D01*
X122070857Y-96845523D01*
X122261333Y-96797904D01*
X122499428Y-96797904D01*
X122689904Y-96845523D01*
X122785142Y-96893142D01*
X122832761Y-96940761D01*
X122880380Y-97036000D01*
X122880380Y-97131238D01*
X122832761Y-97226476D01*
X122785142Y-97274095D01*
X122689904Y-97321714D01*
X122499428Y-97369333D01*
X122261333Y-97369333D01*
X122070857Y-97321714D01*
X121975619Y-97274095D01*
X121928000Y-97226476D01*
X121880380Y-97131238D01*
X122880380Y-95797904D02*
X122404190Y-96131238D01*
X122880380Y-96369333D02*
X121880380Y-96369333D01*
X121880380Y-95988380D01*
X121928000Y-95893142D01*
X121975619Y-95845523D01*
X122070857Y-95797904D01*
X122213714Y-95797904D01*
X122308952Y-95845523D01*
X122356571Y-95893142D01*
X122404190Y-95988380D01*
X122404190Y-96369333D01*
%TO.C,F4*%
X144280380Y-113974571D02*
X143947047Y-113974571D01*
X143947047Y-114498380D02*
X143947047Y-113498380D01*
X144423238Y-113498380D01*
X145280380Y-114498380D02*
X144804190Y-114498380D01*
X144804190Y-113498380D01*
X145804190Y-113498380D02*
X145994666Y-113498380D01*
X146089904Y-113546000D01*
X146185142Y-113641238D01*
X146232761Y-113831714D01*
X146232761Y-114165047D01*
X146185142Y-114355523D01*
X146089904Y-114450761D01*
X145994666Y-114498380D01*
X145804190Y-114498380D01*
X145708952Y-114450761D01*
X145613714Y-114355523D01*
X145566095Y-114165047D01*
X145566095Y-113831714D01*
X145613714Y-113641238D01*
X145708952Y-113546000D01*
X145804190Y-113498380D01*
X146661333Y-114498380D02*
X146661333Y-113498380D01*
X147042285Y-113498380D01*
X147137523Y-113546000D01*
X147185142Y-113593619D01*
X147232761Y-113688857D01*
X147232761Y-113831714D01*
X147185142Y-113926952D01*
X147137523Y-113974571D01*
X147042285Y-114022190D01*
X146661333Y-114022190D01*
X147661333Y-114498380D02*
X147661333Y-113498380D01*
X148042285Y-113498380D01*
X148137523Y-113546000D01*
X148185142Y-113593619D01*
X148232761Y-113688857D01*
X148232761Y-113831714D01*
X148185142Y-113926952D01*
X148137523Y-113974571D01*
X148042285Y-114022190D01*
X147661333Y-114022190D01*
X148851809Y-114022190D02*
X148851809Y-114498380D01*
X148518476Y-113498380D02*
X148851809Y-114022190D01*
X149185142Y-113498380D01*
X150804190Y-114498380D02*
X150232761Y-114498380D01*
X150518476Y-114498380D02*
X150518476Y-113498380D01*
X150423238Y-113641238D01*
X150328000Y-113736476D01*
X150232761Y-113784095D01*
X151185142Y-113593619D02*
X151232761Y-113546000D01*
X151328000Y-113498380D01*
X151566095Y-113498380D01*
X151661333Y-113546000D01*
X151708952Y-113593619D01*
X151756571Y-113688857D01*
X151756571Y-113784095D01*
X151708952Y-113926952D01*
X151137523Y-114498380D01*
X151756571Y-114498380D01*
%TO.C,F16*%
X186190380Y-113979571D02*
X185857047Y-113979571D01*
X185857047Y-114503380D02*
X185857047Y-113503380D01*
X186333238Y-113503380D01*
X187190380Y-114503380D02*
X186714190Y-114503380D01*
X186714190Y-113503380D01*
X187714190Y-113503380D02*
X187904666Y-113503380D01*
X187999904Y-113551000D01*
X188095142Y-113646238D01*
X188142761Y-113836714D01*
X188142761Y-114170047D01*
X188095142Y-114360523D01*
X187999904Y-114455761D01*
X187904666Y-114503380D01*
X187714190Y-114503380D01*
X187618952Y-114455761D01*
X187523714Y-114360523D01*
X187476095Y-114170047D01*
X187476095Y-113836714D01*
X187523714Y-113646238D01*
X187618952Y-113551000D01*
X187714190Y-113503380D01*
X188571333Y-114503380D02*
X188571333Y-113503380D01*
X188952285Y-113503380D01*
X189047523Y-113551000D01*
X189095142Y-113598619D01*
X189142761Y-113693857D01*
X189142761Y-113836714D01*
X189095142Y-113931952D01*
X189047523Y-113979571D01*
X188952285Y-114027190D01*
X188571333Y-114027190D01*
X189571333Y-114503380D02*
X189571333Y-113503380D01*
X189952285Y-113503380D01*
X190047523Y-113551000D01*
X190095142Y-113598619D01*
X190142761Y-113693857D01*
X190142761Y-113836714D01*
X190095142Y-113931952D01*
X190047523Y-113979571D01*
X189952285Y-114027190D01*
X189571333Y-114027190D01*
X190761809Y-114027190D02*
X190761809Y-114503380D01*
X190428476Y-113503380D02*
X190761809Y-114027190D01*
X191095142Y-113503380D01*
X192714190Y-114503380D02*
X192142761Y-114503380D01*
X192428476Y-114503380D02*
X192428476Y-113503380D01*
X192333238Y-113646238D01*
X192238000Y-113741476D01*
X192142761Y-113789095D01*
X193618952Y-113503380D02*
X193142761Y-113503380D01*
X193095142Y-113979571D01*
X193142761Y-113931952D01*
X193238000Y-113884333D01*
X193476095Y-113884333D01*
X193571333Y-113931952D01*
X193618952Y-113979571D01*
X193666571Y-114074809D01*
X193666571Y-114312904D01*
X193618952Y-114408142D01*
X193571333Y-114455761D01*
X193476095Y-114503380D01*
X193238000Y-114503380D01*
X193142761Y-114455761D01*
X193095142Y-114408142D01*
%TO.C,F5*%
X158741571Y-83499571D02*
X158408238Y-83499571D01*
X158408238Y-84023380D02*
X158408238Y-83023380D01*
X158884428Y-83023380D01*
X159741571Y-84023380D02*
X159265380Y-84023380D01*
X159265380Y-83023380D01*
X160265380Y-83023380D02*
X160455857Y-83023380D01*
X160551095Y-83071000D01*
X160646333Y-83166238D01*
X160693952Y-83356714D01*
X160693952Y-83690047D01*
X160646333Y-83880523D01*
X160551095Y-83975761D01*
X160455857Y-84023380D01*
X160265380Y-84023380D01*
X160170142Y-83975761D01*
X160074904Y-83880523D01*
X160027285Y-83690047D01*
X160027285Y-83356714D01*
X160074904Y-83166238D01*
X160170142Y-83071000D01*
X160265380Y-83023380D01*
X161122523Y-84023380D02*
X161122523Y-83023380D01*
X161503476Y-83023380D01*
X161598714Y-83071000D01*
X161646333Y-83118619D01*
X161693952Y-83213857D01*
X161693952Y-83356714D01*
X161646333Y-83451952D01*
X161598714Y-83499571D01*
X161503476Y-83547190D01*
X161122523Y-83547190D01*
X162122523Y-84023380D02*
X162122523Y-83023380D01*
X162503476Y-83023380D01*
X162598714Y-83071000D01*
X162646333Y-83118619D01*
X162693952Y-83213857D01*
X162693952Y-83356714D01*
X162646333Y-83451952D01*
X162598714Y-83499571D01*
X162503476Y-83547190D01*
X162122523Y-83547190D01*
X163313000Y-83547190D02*
X163313000Y-84023380D01*
X162979666Y-83023380D02*
X163313000Y-83547190D01*
X163646333Y-83023380D01*
X165265380Y-84023380D02*
X164693952Y-84023380D01*
X164979666Y-84023380D02*
X164979666Y-83023380D01*
X164884428Y-83166238D01*
X164789190Y-83261476D01*
X164693952Y-83309095D01*
%TO.C,F8*%
X158250380Y-113979571D02*
X157917047Y-113979571D01*
X157917047Y-114503380D02*
X157917047Y-113503380D01*
X158393238Y-113503380D01*
X159250380Y-114503380D02*
X158774190Y-114503380D01*
X158774190Y-113503380D01*
X159774190Y-113503380D02*
X159964666Y-113503380D01*
X160059904Y-113551000D01*
X160155142Y-113646238D01*
X160202761Y-113836714D01*
X160202761Y-114170047D01*
X160155142Y-114360523D01*
X160059904Y-114455761D01*
X159964666Y-114503380D01*
X159774190Y-114503380D01*
X159678952Y-114455761D01*
X159583714Y-114360523D01*
X159536095Y-114170047D01*
X159536095Y-113836714D01*
X159583714Y-113646238D01*
X159678952Y-113551000D01*
X159774190Y-113503380D01*
X160631333Y-114503380D02*
X160631333Y-113503380D01*
X161012285Y-113503380D01*
X161107523Y-113551000D01*
X161155142Y-113598619D01*
X161202761Y-113693857D01*
X161202761Y-113836714D01*
X161155142Y-113931952D01*
X161107523Y-113979571D01*
X161012285Y-114027190D01*
X160631333Y-114027190D01*
X161631333Y-114503380D02*
X161631333Y-113503380D01*
X162012285Y-113503380D01*
X162107523Y-113551000D01*
X162155142Y-113598619D01*
X162202761Y-113693857D01*
X162202761Y-113836714D01*
X162155142Y-113931952D01*
X162107523Y-113979571D01*
X162012285Y-114027190D01*
X161631333Y-114027190D01*
X162821809Y-114027190D02*
X162821809Y-114503380D01*
X162488476Y-113503380D02*
X162821809Y-114027190D01*
X163155142Y-113503380D01*
X164774190Y-114503380D02*
X164202761Y-114503380D01*
X164488476Y-114503380D02*
X164488476Y-113503380D01*
X164393238Y-113646238D01*
X164298000Y-113741476D01*
X164202761Y-113789095D01*
X165107523Y-113503380D02*
X165726571Y-113503380D01*
X165393238Y-113884333D01*
X165536095Y-113884333D01*
X165631333Y-113931952D01*
X165678952Y-113979571D01*
X165726571Y-114074809D01*
X165726571Y-114312904D01*
X165678952Y-114408142D01*
X165631333Y-114455761D01*
X165536095Y-114503380D01*
X165250380Y-114503380D01*
X165155142Y-114455761D01*
X165107523Y-114408142D01*
%TO.C,F9*%
X172696571Y-83494571D02*
X172363238Y-83494571D01*
X172363238Y-84018380D02*
X172363238Y-83018380D01*
X172839428Y-83018380D01*
X173696571Y-84018380D02*
X173220380Y-84018380D01*
X173220380Y-83018380D01*
X174220380Y-83018380D02*
X174410857Y-83018380D01*
X174506095Y-83066000D01*
X174601333Y-83161238D01*
X174648952Y-83351714D01*
X174648952Y-83685047D01*
X174601333Y-83875523D01*
X174506095Y-83970761D01*
X174410857Y-84018380D01*
X174220380Y-84018380D01*
X174125142Y-83970761D01*
X174029904Y-83875523D01*
X173982285Y-83685047D01*
X173982285Y-83351714D01*
X174029904Y-83161238D01*
X174125142Y-83066000D01*
X174220380Y-83018380D01*
X175077523Y-84018380D02*
X175077523Y-83018380D01*
X175458476Y-83018380D01*
X175553714Y-83066000D01*
X175601333Y-83113619D01*
X175648952Y-83208857D01*
X175648952Y-83351714D01*
X175601333Y-83446952D01*
X175553714Y-83494571D01*
X175458476Y-83542190D01*
X175077523Y-83542190D01*
X176077523Y-84018380D02*
X176077523Y-83018380D01*
X176458476Y-83018380D01*
X176553714Y-83066000D01*
X176601333Y-83113619D01*
X176648952Y-83208857D01*
X176648952Y-83351714D01*
X176601333Y-83446952D01*
X176553714Y-83494571D01*
X176458476Y-83542190D01*
X176077523Y-83542190D01*
X177268000Y-83542190D02*
X177268000Y-84018380D01*
X176934666Y-83018380D02*
X177268000Y-83542190D01*
X177601333Y-83018380D01*
X178648952Y-83113619D02*
X178696571Y-83066000D01*
X178791809Y-83018380D01*
X179029904Y-83018380D01*
X179125142Y-83066000D01*
X179172761Y-83113619D01*
X179220380Y-83208857D01*
X179220380Y-83304095D01*
X179172761Y-83446952D01*
X178601333Y-84018380D01*
X179220380Y-84018380D01*
%TO.C,C1*%
X117181333Y-113133142D02*
X117133714Y-113180761D01*
X116990857Y-113228380D01*
X116895619Y-113228380D01*
X116752761Y-113180761D01*
X116657523Y-113085523D01*
X116609904Y-112990285D01*
X116562285Y-112799809D01*
X116562285Y-112656952D01*
X116609904Y-112466476D01*
X116657523Y-112371238D01*
X116752761Y-112276000D01*
X116895619Y-112228380D01*
X116990857Y-112228380D01*
X117133714Y-112276000D01*
X117181333Y-112323619D01*
X118133714Y-113228380D02*
X117562285Y-113228380D01*
X117848000Y-113228380D02*
X117848000Y-112228380D01*
X117752761Y-112371238D01*
X117657523Y-112466476D01*
X117562285Y-112514095D01*
%TO.C,R2*%
X140041333Y-100528380D02*
X139708000Y-100052190D01*
X139469904Y-100528380D02*
X139469904Y-99528380D01*
X139850857Y-99528380D01*
X139946095Y-99576000D01*
X139993714Y-99623619D01*
X140041333Y-99718857D01*
X140041333Y-99861714D01*
X139993714Y-99956952D01*
X139946095Y-100004571D01*
X139850857Y-100052190D01*
X139469904Y-100052190D01*
X140422285Y-99623619D02*
X140469904Y-99576000D01*
X140565142Y-99528380D01*
X140803238Y-99528380D01*
X140898476Y-99576000D01*
X140946095Y-99623619D01*
X140993714Y-99718857D01*
X140993714Y-99814095D01*
X140946095Y-99956952D01*
X140374666Y-100528380D01*
X140993714Y-100528380D01*
X137215619Y-101814095D02*
X137168000Y-101766476D01*
X137120380Y-101671238D01*
X137120380Y-101433142D01*
X137168000Y-101337904D01*
X137215619Y-101290285D01*
X137310857Y-101242666D01*
X137406095Y-101242666D01*
X137548952Y-101290285D01*
X138120380Y-101861714D01*
X138120380Y-101242666D01*
X137548952Y-100671238D02*
X137501333Y-100766476D01*
X137453714Y-100814095D01*
X137358476Y-100861714D01*
X137310857Y-100861714D01*
X137215619Y-100814095D01*
X137168000Y-100766476D01*
X137120380Y-100671238D01*
X137120380Y-100480761D01*
X137168000Y-100385523D01*
X137215619Y-100337904D01*
X137310857Y-100290285D01*
X137358476Y-100290285D01*
X137453714Y-100337904D01*
X137501333Y-100385523D01*
X137548952Y-100480761D01*
X137548952Y-100671238D01*
X137596571Y-100766476D01*
X137644190Y-100814095D01*
X137739428Y-100861714D01*
X137929904Y-100861714D01*
X138025142Y-100814095D01*
X138072761Y-100766476D01*
X138120380Y-100671238D01*
X138120380Y-100480761D01*
X138072761Y-100385523D01*
X138025142Y-100337904D01*
X137929904Y-100290285D01*
X137739428Y-100290285D01*
X137644190Y-100337904D01*
X137596571Y-100385523D01*
X137548952Y-100480761D01*
X137120380Y-99671238D02*
X137120380Y-99576000D01*
X137168000Y-99480761D01*
X137215619Y-99433142D01*
X137310857Y-99385523D01*
X137501333Y-99337904D01*
X137739428Y-99337904D01*
X137929904Y-99385523D01*
X138025142Y-99433142D01*
X138072761Y-99480761D01*
X138120380Y-99576000D01*
X138120380Y-99671238D01*
X138072761Y-99766476D01*
X138025142Y-99814095D01*
X137929904Y-99861714D01*
X137739428Y-99909333D01*
X137501333Y-99909333D01*
X137310857Y-99861714D01*
X137215619Y-99814095D01*
X137168000Y-99766476D01*
X137120380Y-99671238D01*
X138120380Y-98337904D02*
X137644190Y-98671238D01*
X138120380Y-98909333D02*
X137120380Y-98909333D01*
X137120380Y-98528380D01*
X137168000Y-98433142D01*
X137215619Y-98385523D01*
X137310857Y-98337904D01*
X137453714Y-98337904D01*
X137548952Y-98385523D01*
X137596571Y-98433142D01*
X137644190Y-98528380D01*
X137644190Y-98909333D01*
%TO.C,F15*%
X186190380Y-103814571D02*
X185857047Y-103814571D01*
X185857047Y-104338380D02*
X185857047Y-103338380D01*
X186333238Y-103338380D01*
X187190380Y-104338380D02*
X186714190Y-104338380D01*
X186714190Y-103338380D01*
X187714190Y-103338380D02*
X187904666Y-103338380D01*
X187999904Y-103386000D01*
X188095142Y-103481238D01*
X188142761Y-103671714D01*
X188142761Y-104005047D01*
X188095142Y-104195523D01*
X187999904Y-104290761D01*
X187904666Y-104338380D01*
X187714190Y-104338380D01*
X187618952Y-104290761D01*
X187523714Y-104195523D01*
X187476095Y-104005047D01*
X187476095Y-103671714D01*
X187523714Y-103481238D01*
X187618952Y-103386000D01*
X187714190Y-103338380D01*
X188571333Y-104338380D02*
X188571333Y-103338380D01*
X188952285Y-103338380D01*
X189047523Y-103386000D01*
X189095142Y-103433619D01*
X189142761Y-103528857D01*
X189142761Y-103671714D01*
X189095142Y-103766952D01*
X189047523Y-103814571D01*
X188952285Y-103862190D01*
X188571333Y-103862190D01*
X189571333Y-104338380D02*
X189571333Y-103338380D01*
X189952285Y-103338380D01*
X190047523Y-103386000D01*
X190095142Y-103433619D01*
X190142761Y-103528857D01*
X190142761Y-103671714D01*
X190095142Y-103766952D01*
X190047523Y-103814571D01*
X189952285Y-103862190D01*
X189571333Y-103862190D01*
X190761809Y-103862190D02*
X190761809Y-104338380D01*
X190428476Y-103338380D02*
X190761809Y-103862190D01*
X191095142Y-103338380D01*
X192714190Y-104338380D02*
X192142761Y-104338380D01*
X192428476Y-104338380D02*
X192428476Y-103338380D01*
X192333238Y-103481238D01*
X192238000Y-103576476D01*
X192142761Y-103624095D01*
X193666571Y-104338380D02*
X193095142Y-104338380D01*
X193380857Y-104338380D02*
X193380857Y-103338380D01*
X193285619Y-103481238D01*
X193190380Y-103576476D01*
X193095142Y-103624095D01*
%TO.C,F11*%
X172220380Y-103814571D02*
X171887047Y-103814571D01*
X171887047Y-104338380D02*
X171887047Y-103338380D01*
X172363238Y-103338380D01*
X173220380Y-104338380D02*
X172744190Y-104338380D01*
X172744190Y-103338380D01*
X173744190Y-103338380D02*
X173934666Y-103338380D01*
X174029904Y-103386000D01*
X174125142Y-103481238D01*
X174172761Y-103671714D01*
X174172761Y-104005047D01*
X174125142Y-104195523D01*
X174029904Y-104290761D01*
X173934666Y-104338380D01*
X173744190Y-104338380D01*
X173648952Y-104290761D01*
X173553714Y-104195523D01*
X173506095Y-104005047D01*
X173506095Y-103671714D01*
X173553714Y-103481238D01*
X173648952Y-103386000D01*
X173744190Y-103338380D01*
X174601333Y-104338380D02*
X174601333Y-103338380D01*
X174982285Y-103338380D01*
X175077523Y-103386000D01*
X175125142Y-103433619D01*
X175172761Y-103528857D01*
X175172761Y-103671714D01*
X175125142Y-103766952D01*
X175077523Y-103814571D01*
X174982285Y-103862190D01*
X174601333Y-103862190D01*
X175601333Y-104338380D02*
X175601333Y-103338380D01*
X175982285Y-103338380D01*
X176077523Y-103386000D01*
X176125142Y-103433619D01*
X176172761Y-103528857D01*
X176172761Y-103671714D01*
X176125142Y-103766952D01*
X176077523Y-103814571D01*
X175982285Y-103862190D01*
X175601333Y-103862190D01*
X176791809Y-103862190D02*
X176791809Y-104338380D01*
X176458476Y-103338380D02*
X176791809Y-103862190D01*
X177125142Y-103338380D01*
X178744190Y-104338380D02*
X178172761Y-104338380D01*
X178458476Y-104338380D02*
X178458476Y-103338380D01*
X178363238Y-103481238D01*
X178268000Y-103576476D01*
X178172761Y-103624095D01*
X179363238Y-103338380D02*
X179458476Y-103338380D01*
X179553714Y-103386000D01*
X179601333Y-103433619D01*
X179648952Y-103528857D01*
X179696571Y-103719333D01*
X179696571Y-103957428D01*
X179648952Y-104147904D01*
X179601333Y-104243142D01*
X179553714Y-104290761D01*
X179458476Y-104338380D01*
X179363238Y-104338380D01*
X179268000Y-104290761D01*
X179220380Y-104243142D01*
X179172761Y-104147904D01*
X179125142Y-103957428D01*
X179125142Y-103719333D01*
X179172761Y-103528857D01*
X179220380Y-103433619D01*
X179268000Y-103386000D01*
X179363238Y-103338380D01*
%TO.C,F7*%
X158726571Y-103819571D02*
X158393238Y-103819571D01*
X158393238Y-104343380D02*
X158393238Y-103343380D01*
X158869428Y-103343380D01*
X159726571Y-104343380D02*
X159250380Y-104343380D01*
X159250380Y-103343380D01*
X160250380Y-103343380D02*
X160440857Y-103343380D01*
X160536095Y-103391000D01*
X160631333Y-103486238D01*
X160678952Y-103676714D01*
X160678952Y-104010047D01*
X160631333Y-104200523D01*
X160536095Y-104295761D01*
X160440857Y-104343380D01*
X160250380Y-104343380D01*
X160155142Y-104295761D01*
X160059904Y-104200523D01*
X160012285Y-104010047D01*
X160012285Y-103676714D01*
X160059904Y-103486238D01*
X160155142Y-103391000D01*
X160250380Y-103343380D01*
X161107523Y-104343380D02*
X161107523Y-103343380D01*
X161488476Y-103343380D01*
X161583714Y-103391000D01*
X161631333Y-103438619D01*
X161678952Y-103533857D01*
X161678952Y-103676714D01*
X161631333Y-103771952D01*
X161583714Y-103819571D01*
X161488476Y-103867190D01*
X161107523Y-103867190D01*
X162107523Y-104343380D02*
X162107523Y-103343380D01*
X162488476Y-103343380D01*
X162583714Y-103391000D01*
X162631333Y-103438619D01*
X162678952Y-103533857D01*
X162678952Y-103676714D01*
X162631333Y-103771952D01*
X162583714Y-103819571D01*
X162488476Y-103867190D01*
X162107523Y-103867190D01*
X163298000Y-103867190D02*
X163298000Y-104343380D01*
X162964666Y-103343380D02*
X163298000Y-103867190D01*
X163631333Y-103343380D01*
X164774190Y-104343380D02*
X164964666Y-104343380D01*
X165059904Y-104295761D01*
X165107523Y-104248142D01*
X165202761Y-104105285D01*
X165250380Y-103914809D01*
X165250380Y-103533857D01*
X165202761Y-103438619D01*
X165155142Y-103391000D01*
X165059904Y-103343380D01*
X164869428Y-103343380D01*
X164774190Y-103391000D01*
X164726571Y-103438619D01*
X164678952Y-103533857D01*
X164678952Y-103771952D01*
X164726571Y-103867190D01*
X164774190Y-103914809D01*
X164869428Y-103962428D01*
X165059904Y-103962428D01*
X165155142Y-103914809D01*
X165202761Y-103867190D01*
X165250380Y-103771952D01*
%TO.C,F6*%
X158741571Y-93659571D02*
X158408238Y-93659571D01*
X158408238Y-94183380D02*
X158408238Y-93183380D01*
X158884428Y-93183380D01*
X159741571Y-94183380D02*
X159265380Y-94183380D01*
X159265380Y-93183380D01*
X160265380Y-93183380D02*
X160455857Y-93183380D01*
X160551095Y-93231000D01*
X160646333Y-93326238D01*
X160693952Y-93516714D01*
X160693952Y-93850047D01*
X160646333Y-94040523D01*
X160551095Y-94135761D01*
X160455857Y-94183380D01*
X160265380Y-94183380D01*
X160170142Y-94135761D01*
X160074904Y-94040523D01*
X160027285Y-93850047D01*
X160027285Y-93516714D01*
X160074904Y-93326238D01*
X160170142Y-93231000D01*
X160265380Y-93183380D01*
X161122523Y-94183380D02*
X161122523Y-93183380D01*
X161503476Y-93183380D01*
X161598714Y-93231000D01*
X161646333Y-93278619D01*
X161693952Y-93373857D01*
X161693952Y-93516714D01*
X161646333Y-93611952D01*
X161598714Y-93659571D01*
X161503476Y-93707190D01*
X161122523Y-93707190D01*
X162122523Y-94183380D02*
X162122523Y-93183380D01*
X162503476Y-93183380D01*
X162598714Y-93231000D01*
X162646333Y-93278619D01*
X162693952Y-93373857D01*
X162693952Y-93516714D01*
X162646333Y-93611952D01*
X162598714Y-93659571D01*
X162503476Y-93707190D01*
X162122523Y-93707190D01*
X163313000Y-93707190D02*
X163313000Y-94183380D01*
X162979666Y-93183380D02*
X163313000Y-93707190D01*
X163646333Y-93183380D01*
X165217761Y-93183380D02*
X164741571Y-93183380D01*
X164693952Y-93659571D01*
X164741571Y-93611952D01*
X164836809Y-93564333D01*
X165074904Y-93564333D01*
X165170142Y-93611952D01*
X165217761Y-93659571D01*
X165265380Y-93754809D01*
X165265380Y-93992904D01*
X165217761Y-94088142D01*
X165170142Y-94135761D01*
X165074904Y-94183380D01*
X164836809Y-94183380D01*
X164741571Y-94135761D01*
X164693952Y-94088142D01*
%TO.C,F14*%
X186681571Y-93659571D02*
X186348238Y-93659571D01*
X186348238Y-94183380D02*
X186348238Y-93183380D01*
X186824428Y-93183380D01*
X187681571Y-94183380D02*
X187205380Y-94183380D01*
X187205380Y-93183380D01*
X188205380Y-93183380D02*
X188395857Y-93183380D01*
X188491095Y-93231000D01*
X188586333Y-93326238D01*
X188633952Y-93516714D01*
X188633952Y-93850047D01*
X188586333Y-94040523D01*
X188491095Y-94135761D01*
X188395857Y-94183380D01*
X188205380Y-94183380D01*
X188110142Y-94135761D01*
X188014904Y-94040523D01*
X187967285Y-93850047D01*
X187967285Y-93516714D01*
X188014904Y-93326238D01*
X188110142Y-93231000D01*
X188205380Y-93183380D01*
X189062523Y-94183380D02*
X189062523Y-93183380D01*
X189443476Y-93183380D01*
X189538714Y-93231000D01*
X189586333Y-93278619D01*
X189633952Y-93373857D01*
X189633952Y-93516714D01*
X189586333Y-93611952D01*
X189538714Y-93659571D01*
X189443476Y-93707190D01*
X189062523Y-93707190D01*
X190062523Y-94183380D02*
X190062523Y-93183380D01*
X190443476Y-93183380D01*
X190538714Y-93231000D01*
X190586333Y-93278619D01*
X190633952Y-93373857D01*
X190633952Y-93516714D01*
X190586333Y-93611952D01*
X190538714Y-93659571D01*
X190443476Y-93707190D01*
X190062523Y-93707190D01*
X191253000Y-93707190D02*
X191253000Y-94183380D01*
X190919666Y-93183380D02*
X191253000Y-93707190D01*
X191586333Y-93183380D01*
X192586333Y-93183380D02*
X193253000Y-93183380D01*
X192824428Y-94183380D01*
%TO.C,J11*%
X134548952Y-91638380D02*
X134548952Y-90638380D01*
X134882285Y-91352666D01*
X135215619Y-90638380D01*
X135215619Y-91638380D01*
X135691809Y-91638380D02*
X135691809Y-90638380D01*
X136168000Y-91638380D02*
X136168000Y-90638380D01*
X136406095Y-90638380D01*
X136548952Y-90686000D01*
X136644190Y-90781238D01*
X136691809Y-90876476D01*
X136739428Y-91066952D01*
X136739428Y-91209809D01*
X136691809Y-91400285D01*
X136644190Y-91495523D01*
X136548952Y-91590761D01*
X136406095Y-91638380D01*
X136168000Y-91638380D01*
X137168000Y-91638380D02*
X137168000Y-90638380D01*
X137406095Y-91733619D02*
X138168000Y-91733619D01*
X138596571Y-90638380D02*
X138787047Y-90638380D01*
X138882285Y-90686000D01*
X138977523Y-90781238D01*
X139025142Y-90971714D01*
X139025142Y-91305047D01*
X138977523Y-91495523D01*
X138882285Y-91590761D01*
X138787047Y-91638380D01*
X138596571Y-91638380D01*
X138501333Y-91590761D01*
X138406095Y-91495523D01*
X138358476Y-91305047D01*
X138358476Y-90971714D01*
X138406095Y-90781238D01*
X138501333Y-90686000D01*
X138596571Y-90638380D01*
X139453714Y-90638380D02*
X139453714Y-91447904D01*
X139501333Y-91543142D01*
X139548952Y-91590761D01*
X139644190Y-91638380D01*
X139834666Y-91638380D01*
X139929904Y-91590761D01*
X139977523Y-91543142D01*
X140025142Y-91447904D01*
X140025142Y-90638380D01*
X140358476Y-90638380D02*
X140929904Y-90638380D01*
X140644190Y-91638380D02*
X140644190Y-90638380D01*
%TO.C,F1*%
X144756571Y-83494571D02*
X144423238Y-83494571D01*
X144423238Y-84018380D02*
X144423238Y-83018380D01*
X144899428Y-83018380D01*
X145756571Y-84018380D02*
X145280380Y-84018380D01*
X145280380Y-83018380D01*
X146280380Y-83018380D02*
X146470857Y-83018380D01*
X146566095Y-83066000D01*
X146661333Y-83161238D01*
X146708952Y-83351714D01*
X146708952Y-83685047D01*
X146661333Y-83875523D01*
X146566095Y-83970761D01*
X146470857Y-84018380D01*
X146280380Y-84018380D01*
X146185142Y-83970761D01*
X146089904Y-83875523D01*
X146042285Y-83685047D01*
X146042285Y-83351714D01*
X146089904Y-83161238D01*
X146185142Y-83066000D01*
X146280380Y-83018380D01*
X147137523Y-84018380D02*
X147137523Y-83018380D01*
X147518476Y-83018380D01*
X147613714Y-83066000D01*
X147661333Y-83113619D01*
X147708952Y-83208857D01*
X147708952Y-83351714D01*
X147661333Y-83446952D01*
X147613714Y-83494571D01*
X147518476Y-83542190D01*
X147137523Y-83542190D01*
X148137523Y-84018380D02*
X148137523Y-83018380D01*
X148518476Y-83018380D01*
X148613714Y-83066000D01*
X148661333Y-83113619D01*
X148708952Y-83208857D01*
X148708952Y-83351714D01*
X148661333Y-83446952D01*
X148613714Y-83494571D01*
X148518476Y-83542190D01*
X148137523Y-83542190D01*
X149328000Y-83542190D02*
X149328000Y-84018380D01*
X148994666Y-83018380D02*
X149328000Y-83542190D01*
X149661333Y-83018380D01*
X150947047Y-83018380D02*
X151042285Y-83018380D01*
X151137523Y-83066000D01*
X151185142Y-83113619D01*
X151232761Y-83208857D01*
X151280380Y-83399333D01*
X151280380Y-83637428D01*
X151232761Y-83827904D01*
X151185142Y-83923142D01*
X151137523Y-83970761D01*
X151042285Y-84018380D01*
X150947047Y-84018380D01*
X150851809Y-83970761D01*
X150804190Y-83923142D01*
X150756571Y-83827904D01*
X150708952Y-83637428D01*
X150708952Y-83399333D01*
X150756571Y-83208857D01*
X150804190Y-83113619D01*
X150851809Y-83066000D01*
X150947047Y-83018380D01*
%TO.C,F3*%
X144771571Y-103819571D02*
X144438238Y-103819571D01*
X144438238Y-104343380D02*
X144438238Y-103343380D01*
X144914428Y-103343380D01*
X145771571Y-104343380D02*
X145295380Y-104343380D01*
X145295380Y-103343380D01*
X146295380Y-103343380D02*
X146485857Y-103343380D01*
X146581095Y-103391000D01*
X146676333Y-103486238D01*
X146723952Y-103676714D01*
X146723952Y-104010047D01*
X146676333Y-104200523D01*
X146581095Y-104295761D01*
X146485857Y-104343380D01*
X146295380Y-104343380D01*
X146200142Y-104295761D01*
X146104904Y-104200523D01*
X146057285Y-104010047D01*
X146057285Y-103676714D01*
X146104904Y-103486238D01*
X146200142Y-103391000D01*
X146295380Y-103343380D01*
X147152523Y-104343380D02*
X147152523Y-103343380D01*
X147533476Y-103343380D01*
X147628714Y-103391000D01*
X147676333Y-103438619D01*
X147723952Y-103533857D01*
X147723952Y-103676714D01*
X147676333Y-103771952D01*
X147628714Y-103819571D01*
X147533476Y-103867190D01*
X147152523Y-103867190D01*
X148152523Y-104343380D02*
X148152523Y-103343380D01*
X148533476Y-103343380D01*
X148628714Y-103391000D01*
X148676333Y-103438619D01*
X148723952Y-103533857D01*
X148723952Y-103676714D01*
X148676333Y-103771952D01*
X148628714Y-103819571D01*
X148533476Y-103867190D01*
X148152523Y-103867190D01*
X149343000Y-103867190D02*
X149343000Y-104343380D01*
X149009666Y-103343380D02*
X149343000Y-103867190D01*
X149676333Y-103343380D01*
X150914428Y-103771952D02*
X150819190Y-103724333D01*
X150771571Y-103676714D01*
X150723952Y-103581476D01*
X150723952Y-103533857D01*
X150771571Y-103438619D01*
X150819190Y-103391000D01*
X150914428Y-103343380D01*
X151104904Y-103343380D01*
X151200142Y-103391000D01*
X151247761Y-103438619D01*
X151295380Y-103533857D01*
X151295380Y-103581476D01*
X151247761Y-103676714D01*
X151200142Y-103724333D01*
X151104904Y-103771952D01*
X150914428Y-103771952D01*
X150819190Y-103819571D01*
X150771571Y-103867190D01*
X150723952Y-103962428D01*
X150723952Y-104152904D01*
X150771571Y-104248142D01*
X150819190Y-104295761D01*
X150914428Y-104343380D01*
X151104904Y-104343380D01*
X151200142Y-104295761D01*
X151247761Y-104248142D01*
X151295380Y-104152904D01*
X151295380Y-103962428D01*
X151247761Y-103867190D01*
X151200142Y-103819571D01*
X151104904Y-103771952D01*
%TO.C,F13*%
X186681571Y-83499571D02*
X186348238Y-83499571D01*
X186348238Y-84023380D02*
X186348238Y-83023380D01*
X186824428Y-83023380D01*
X187681571Y-84023380D02*
X187205380Y-84023380D01*
X187205380Y-83023380D01*
X188205380Y-83023380D02*
X188395857Y-83023380D01*
X188491095Y-83071000D01*
X188586333Y-83166238D01*
X188633952Y-83356714D01*
X188633952Y-83690047D01*
X188586333Y-83880523D01*
X188491095Y-83975761D01*
X188395857Y-84023380D01*
X188205380Y-84023380D01*
X188110142Y-83975761D01*
X188014904Y-83880523D01*
X187967285Y-83690047D01*
X187967285Y-83356714D01*
X188014904Y-83166238D01*
X188110142Y-83071000D01*
X188205380Y-83023380D01*
X189062523Y-84023380D02*
X189062523Y-83023380D01*
X189443476Y-83023380D01*
X189538714Y-83071000D01*
X189586333Y-83118619D01*
X189633952Y-83213857D01*
X189633952Y-83356714D01*
X189586333Y-83451952D01*
X189538714Y-83499571D01*
X189443476Y-83547190D01*
X189062523Y-83547190D01*
X190062523Y-84023380D02*
X190062523Y-83023380D01*
X190443476Y-83023380D01*
X190538714Y-83071000D01*
X190586333Y-83118619D01*
X190633952Y-83213857D01*
X190633952Y-83356714D01*
X190586333Y-83451952D01*
X190538714Y-83499571D01*
X190443476Y-83547190D01*
X190062523Y-83547190D01*
X191253000Y-83547190D02*
X191253000Y-84023380D01*
X190919666Y-83023380D02*
X191253000Y-83547190D01*
X191586333Y-83023380D01*
X192586333Y-83023380D02*
X193205380Y-83023380D01*
X192872047Y-83404333D01*
X193014904Y-83404333D01*
X193110142Y-83451952D01*
X193157761Y-83499571D01*
X193205380Y-83594809D01*
X193205380Y-83832904D01*
X193157761Y-83928142D01*
X193110142Y-83975761D01*
X193014904Y-84023380D01*
X192729190Y-84023380D01*
X192633952Y-83975761D01*
X192586333Y-83928142D01*
%TO.C,U1*%
X130556095Y-91898380D02*
X130556095Y-92707904D01*
X130603714Y-92803142D01*
X130651333Y-92850761D01*
X130746571Y-92898380D01*
X130937047Y-92898380D01*
X131032285Y-92850761D01*
X131079904Y-92803142D01*
X131127523Y-92707904D01*
X131127523Y-91898380D01*
X132127523Y-92898380D02*
X131556095Y-92898380D01*
X131841809Y-92898380D02*
X131841809Y-91898380D01*
X131746571Y-92041238D01*
X131651333Y-92136476D01*
X131556095Y-92184095D01*
%TO.C,D1*%
X124229904Y-93538380D02*
X124229904Y-92538380D01*
X124468000Y-92538380D01*
X124610857Y-92586000D01*
X124706095Y-92681238D01*
X124753714Y-92776476D01*
X124801333Y-92966952D01*
X124801333Y-93109809D01*
X124753714Y-93300285D01*
X124706095Y-93395523D01*
X124610857Y-93490761D01*
X124468000Y-93538380D01*
X124229904Y-93538380D01*
X125753714Y-93538380D02*
X125182285Y-93538380D01*
X125468000Y-93538380D02*
X125468000Y-92538380D01*
X125372761Y-92681238D01*
X125277523Y-92776476D01*
X125182285Y-92824095D01*
%TO.C,C2*%
X117816333Y-97258142D02*
X117768714Y-97305761D01*
X117625857Y-97353380D01*
X117530619Y-97353380D01*
X117387761Y-97305761D01*
X117292523Y-97210523D01*
X117244904Y-97115285D01*
X117197285Y-96924809D01*
X117197285Y-96781952D01*
X117244904Y-96591476D01*
X117292523Y-96496238D01*
X117387761Y-96401000D01*
X117530619Y-96353380D01*
X117625857Y-96353380D01*
X117768714Y-96401000D01*
X117816333Y-96448619D01*
X118197285Y-96448619D02*
X118244904Y-96401000D01*
X118340142Y-96353380D01*
X118578238Y-96353380D01*
X118673476Y-96401000D01*
X118721095Y-96448619D01*
X118768714Y-96543857D01*
X118768714Y-96639095D01*
X118721095Y-96781952D01*
X118149666Y-97353380D01*
X118768714Y-97353380D01*
%TO.C,F10*%
X172711571Y-93659571D02*
X172378238Y-93659571D01*
X172378238Y-94183380D02*
X172378238Y-93183380D01*
X172854428Y-93183380D01*
X173711571Y-94183380D02*
X173235380Y-94183380D01*
X173235380Y-93183380D01*
X174235380Y-93183380D02*
X174425857Y-93183380D01*
X174521095Y-93231000D01*
X174616333Y-93326238D01*
X174663952Y-93516714D01*
X174663952Y-93850047D01*
X174616333Y-94040523D01*
X174521095Y-94135761D01*
X174425857Y-94183380D01*
X174235380Y-94183380D01*
X174140142Y-94135761D01*
X174044904Y-94040523D01*
X173997285Y-93850047D01*
X173997285Y-93516714D01*
X174044904Y-93326238D01*
X174140142Y-93231000D01*
X174235380Y-93183380D01*
X175092523Y-94183380D02*
X175092523Y-93183380D01*
X175473476Y-93183380D01*
X175568714Y-93231000D01*
X175616333Y-93278619D01*
X175663952Y-93373857D01*
X175663952Y-93516714D01*
X175616333Y-93611952D01*
X175568714Y-93659571D01*
X175473476Y-93707190D01*
X175092523Y-93707190D01*
X176092523Y-94183380D02*
X176092523Y-93183380D01*
X176473476Y-93183380D01*
X176568714Y-93231000D01*
X176616333Y-93278619D01*
X176663952Y-93373857D01*
X176663952Y-93516714D01*
X176616333Y-93611952D01*
X176568714Y-93659571D01*
X176473476Y-93707190D01*
X176092523Y-93707190D01*
X177283000Y-93707190D02*
X177283000Y-94183380D01*
X176949666Y-93183380D02*
X177283000Y-93707190D01*
X177616333Y-93183380D01*
X179140142Y-93183380D02*
X178949666Y-93183380D01*
X178854428Y-93231000D01*
X178806809Y-93278619D01*
X178711571Y-93421476D01*
X178663952Y-93611952D01*
X178663952Y-93992904D01*
X178711571Y-94088142D01*
X178759190Y-94135761D01*
X178854428Y-94183380D01*
X179044904Y-94183380D01*
X179140142Y-94135761D01*
X179187761Y-94088142D01*
X179235380Y-93992904D01*
X179235380Y-93754809D01*
X179187761Y-93659571D01*
X179140142Y-93611952D01*
X179044904Y-93564333D01*
X178854428Y-93564333D01*
X178759190Y-93611952D01*
X178711571Y-93659571D01*
X178663952Y-93754809D01*
%TO.C,F12*%
X172235380Y-113979571D02*
X171902047Y-113979571D01*
X171902047Y-114503380D02*
X171902047Y-113503380D01*
X172378238Y-113503380D01*
X173235380Y-114503380D02*
X172759190Y-114503380D01*
X172759190Y-113503380D01*
X173759190Y-113503380D02*
X173949666Y-113503380D01*
X174044904Y-113551000D01*
X174140142Y-113646238D01*
X174187761Y-113836714D01*
X174187761Y-114170047D01*
X174140142Y-114360523D01*
X174044904Y-114455761D01*
X173949666Y-114503380D01*
X173759190Y-114503380D01*
X173663952Y-114455761D01*
X173568714Y-114360523D01*
X173521095Y-114170047D01*
X173521095Y-113836714D01*
X173568714Y-113646238D01*
X173663952Y-113551000D01*
X173759190Y-113503380D01*
X174616333Y-114503380D02*
X174616333Y-113503380D01*
X174997285Y-113503380D01*
X175092523Y-113551000D01*
X175140142Y-113598619D01*
X175187761Y-113693857D01*
X175187761Y-113836714D01*
X175140142Y-113931952D01*
X175092523Y-113979571D01*
X174997285Y-114027190D01*
X174616333Y-114027190D01*
X175616333Y-114503380D02*
X175616333Y-113503380D01*
X175997285Y-113503380D01*
X176092523Y-113551000D01*
X176140142Y-113598619D01*
X176187761Y-113693857D01*
X176187761Y-113836714D01*
X176140142Y-113931952D01*
X176092523Y-113979571D01*
X175997285Y-114027190D01*
X175616333Y-114027190D01*
X176806809Y-114027190D02*
X176806809Y-114503380D01*
X176473476Y-113503380D02*
X176806809Y-114027190D01*
X177140142Y-113503380D01*
X178759190Y-114503380D02*
X178187761Y-114503380D01*
X178473476Y-114503380D02*
X178473476Y-113503380D01*
X178378238Y-113646238D01*
X178283000Y-113741476D01*
X178187761Y-113789095D01*
X179616333Y-113836714D02*
X179616333Y-114503380D01*
X179378238Y-113455761D02*
X179140142Y-114170047D01*
X179759190Y-114170047D01*
%TO.C,F2*%
X144756571Y-93654571D02*
X144423238Y-93654571D01*
X144423238Y-94178380D02*
X144423238Y-93178380D01*
X144899428Y-93178380D01*
X145756571Y-94178380D02*
X145280380Y-94178380D01*
X145280380Y-93178380D01*
X146280380Y-93178380D02*
X146470857Y-93178380D01*
X146566095Y-93226000D01*
X146661333Y-93321238D01*
X146708952Y-93511714D01*
X146708952Y-93845047D01*
X146661333Y-94035523D01*
X146566095Y-94130761D01*
X146470857Y-94178380D01*
X146280380Y-94178380D01*
X146185142Y-94130761D01*
X146089904Y-94035523D01*
X146042285Y-93845047D01*
X146042285Y-93511714D01*
X146089904Y-93321238D01*
X146185142Y-93226000D01*
X146280380Y-93178380D01*
X147137523Y-94178380D02*
X147137523Y-93178380D01*
X147518476Y-93178380D01*
X147613714Y-93226000D01*
X147661333Y-93273619D01*
X147708952Y-93368857D01*
X147708952Y-93511714D01*
X147661333Y-93606952D01*
X147613714Y-93654571D01*
X147518476Y-93702190D01*
X147137523Y-93702190D01*
X148137523Y-94178380D02*
X148137523Y-93178380D01*
X148518476Y-93178380D01*
X148613714Y-93226000D01*
X148661333Y-93273619D01*
X148708952Y-93368857D01*
X148708952Y-93511714D01*
X148661333Y-93606952D01*
X148613714Y-93654571D01*
X148518476Y-93702190D01*
X148137523Y-93702190D01*
X149328000Y-93702190D02*
X149328000Y-94178380D01*
X148994666Y-93178380D02*
X149328000Y-93702190D01*
X149661333Y-93178380D01*
X151185142Y-93511714D02*
X151185142Y-94178380D01*
X150947047Y-93130761D02*
X150708952Y-93845047D01*
X151328000Y-93845047D01*
D12*
%TO.C,J4*%
X196028000Y-70866000D02*
X196028000Y-69536000D01*
X196028000Y-72136000D02*
X198628000Y-72136000D01*
X196028000Y-115376000D02*
X201228000Y-115376000D01*
X196028000Y-72136000D02*
X196028000Y-115376000D01*
X201228000Y-69536000D02*
X201228000Y-115376000D01*
X196028000Y-69536000D02*
X197358000Y-69536000D01*
X198628000Y-69536000D02*
X201228000Y-69536000D01*
X198628000Y-72136000D02*
X198628000Y-69536000D01*
%TO.C,J1*%
X150428000Y-120456000D02*
X150428000Y-117796000D01*
X132588000Y-120456000D02*
X132588000Y-117796000D01*
X131318000Y-120456000D02*
X129988000Y-120456000D01*
X132588000Y-120456000D02*
X150428000Y-120456000D01*
X129988000Y-120456000D02*
X129988000Y-119126000D01*
X132588000Y-117796000D02*
X150428000Y-117796000D01*
%TO.C,J2*%
X155448000Y-117796000D02*
X173288000Y-117796000D01*
X152848000Y-120456000D02*
X152848000Y-119126000D01*
X154178000Y-120456000D02*
X152848000Y-120456000D01*
X173288000Y-120456000D02*
X173288000Y-117796000D01*
X155448000Y-120456000D02*
X173288000Y-120456000D01*
X155448000Y-120456000D02*
X155448000Y-117796000D01*
%TO.C,J3*%
X178308000Y-117796000D02*
X196148000Y-117796000D01*
X196148000Y-120456000D02*
X196148000Y-117796000D01*
X175708000Y-120456000D02*
X175708000Y-119126000D01*
X177038000Y-120456000D02*
X175708000Y-120456000D01*
X178308000Y-120456000D02*
X178308000Y-117796000D01*
X178308000Y-120456000D02*
X196148000Y-120456000D01*
%TO.C,J7*%
X143764000Y-69536000D02*
X120844000Y-69536000D01*
X120844000Y-69536000D02*
X120844000Y-72196000D01*
X143764000Y-72196000D02*
X120844000Y-72196000D01*
X145034000Y-69536000D02*
X146364000Y-69536000D01*
X146364000Y-69536000D02*
X146364000Y-70866000D01*
X143764000Y-69536000D02*
X143764000Y-72196000D01*
%TO.C,J6*%
X147768000Y-69536000D02*
X147768000Y-72196000D01*
X165608000Y-69536000D02*
X147768000Y-69536000D01*
X165608000Y-72196000D02*
X147768000Y-72196000D01*
X166878000Y-69536000D02*
X168208000Y-69536000D01*
X168208000Y-69536000D02*
X168208000Y-70866000D01*
X165608000Y-69536000D02*
X165608000Y-72196000D01*
%TO.C,J5*%
X171958000Y-72196000D02*
X170628000Y-72196000D01*
X173228000Y-72196000D02*
X191068000Y-72196000D01*
X191068000Y-72196000D02*
X191068000Y-69536000D01*
X173228000Y-69536000D02*
X191068000Y-69536000D01*
X173228000Y-72196000D02*
X173228000Y-69536000D01*
X170628000Y-72196000D02*
X170628000Y-70866000D01*
%TO.C,J10*%
X137668000Y-110296000D02*
X140268000Y-110296000D01*
X140268000Y-110296000D02*
X140268000Y-107636000D01*
X136398000Y-110296000D02*
X135068000Y-110296000D01*
X135068000Y-110296000D02*
X135068000Y-108966000D01*
X137668000Y-110296000D02*
X137668000Y-107636000D01*
X137668000Y-107636000D02*
X140268000Y-107636000D01*
%TO.C,R1*%
X121058000Y-94266000D02*
X121058000Y-100806000D01*
X122428000Y-101576000D02*
X122428000Y-100806000D01*
X123798000Y-100806000D02*
X123798000Y-94266000D01*
X121058000Y-100806000D02*
X123798000Y-100806000D01*
X122428000Y-93496000D02*
X122428000Y-94266000D01*
X123798000Y-94266000D02*
X121058000Y-94266000D01*
%TO.C,F4*%
X151698000Y-110236000D02*
X151698000Y-112836000D01*
X149098000Y-110236000D02*
X151698000Y-110236000D01*
X149098000Y-107636000D02*
X149098000Y-110236000D01*
X143958000Y-107636000D02*
X143958000Y-112836000D01*
X150368000Y-107636000D02*
X151698000Y-107636000D01*
X149098000Y-107636000D02*
X143958000Y-107636000D01*
X151698000Y-112836000D02*
X143958000Y-112836000D01*
X151698000Y-107636000D02*
X151698000Y-108966000D01*
%TO.C,F16*%
X191008000Y-110236000D02*
X193608000Y-110236000D01*
X191008000Y-107636000D02*
X191008000Y-110236000D01*
X191008000Y-107636000D02*
X185868000Y-107636000D01*
X193608000Y-107636000D02*
X193608000Y-108966000D01*
X185868000Y-107636000D02*
X185868000Y-112836000D01*
X193608000Y-110236000D02*
X193608000Y-112836000D01*
X193608000Y-112836000D02*
X185868000Y-112836000D01*
X192278000Y-107636000D02*
X193608000Y-107636000D01*
%TO.C,F5*%
X165668000Y-82356000D02*
X157928000Y-82356000D01*
X163068000Y-77156000D02*
X163068000Y-79756000D01*
X165668000Y-77156000D02*
X165668000Y-78486000D01*
X163068000Y-77156000D02*
X157928000Y-77156000D01*
X165668000Y-79756000D02*
X165668000Y-82356000D01*
X164338000Y-77156000D02*
X165668000Y-77156000D01*
X157928000Y-77156000D02*
X157928000Y-82356000D01*
X163068000Y-79756000D02*
X165668000Y-79756000D01*
%TO.C,F8*%
X165668000Y-107636000D02*
X165668000Y-108966000D01*
X163068000Y-107636000D02*
X163068000Y-110236000D01*
X164338000Y-107636000D02*
X165668000Y-107636000D01*
X157928000Y-107636000D02*
X157928000Y-112836000D01*
X163068000Y-107636000D02*
X157928000Y-107636000D01*
X163068000Y-110236000D02*
X165668000Y-110236000D01*
X165668000Y-112836000D02*
X157928000Y-112836000D01*
X165668000Y-110236000D02*
X165668000Y-112836000D01*
%TO.C,F9*%
X171898000Y-77156000D02*
X171898000Y-82356000D01*
X177038000Y-79756000D02*
X179638000Y-79756000D01*
X177038000Y-77156000D02*
X177038000Y-79756000D01*
X179638000Y-79756000D02*
X179638000Y-82356000D01*
X179638000Y-82356000D02*
X171898000Y-82356000D01*
X178308000Y-77156000D02*
X179638000Y-77156000D01*
X177038000Y-77156000D02*
X171898000Y-77156000D01*
X179638000Y-77156000D02*
X179638000Y-78486000D01*
%TO.C,C1*%
X116699000Y-111156000D02*
X117957000Y-111156000D01*
X116699000Y-109316000D02*
X117957000Y-109316000D01*
%TO.C,R2*%
X136298000Y-96806000D02*
X136298000Y-103346000D01*
X136298000Y-103346000D02*
X139038000Y-103346000D01*
X139038000Y-103346000D02*
X139038000Y-96806000D01*
X139038000Y-96806000D02*
X136298000Y-96806000D01*
X137668000Y-104116000D02*
X137668000Y-103346000D01*
X137668000Y-96036000D02*
X137668000Y-96806000D01*
%TO.C,F15*%
X185868000Y-97476000D02*
X185868000Y-102676000D01*
X193608000Y-97476000D02*
X193608000Y-98806000D01*
X191008000Y-100076000D02*
X193608000Y-100076000D01*
X191008000Y-97476000D02*
X185868000Y-97476000D01*
X192278000Y-97476000D02*
X193608000Y-97476000D01*
X193608000Y-102676000D02*
X185868000Y-102676000D01*
X193608000Y-100076000D02*
X193608000Y-102676000D01*
X191008000Y-97476000D02*
X191008000Y-100076000D01*
D13*
%TO.C,J8*%
X116078000Y-92506000D02*
X116078000Y-97606000D01*
X103578000Y-88806000D02*
X103578000Y-108806000D01*
X116078000Y-88806000D02*
X103578000Y-88806000D01*
X116078000Y-108806000D02*
X116078000Y-107506000D01*
X116078000Y-88806000D02*
X116078000Y-90106000D01*
X103578000Y-108806000D02*
X116078000Y-108806000D01*
X116078000Y-100006000D02*
X116078000Y-105106000D01*
D12*
%TO.C,F11*%
X179638000Y-97476000D02*
X179638000Y-98806000D01*
X171898000Y-97476000D02*
X171898000Y-102676000D01*
X179638000Y-100076000D02*
X179638000Y-102676000D01*
X177038000Y-97476000D02*
X177038000Y-100076000D01*
X179638000Y-102676000D02*
X171898000Y-102676000D01*
X178308000Y-97476000D02*
X179638000Y-97476000D01*
X177038000Y-97476000D02*
X171898000Y-97476000D01*
X177038000Y-100076000D02*
X179638000Y-100076000D01*
%TO.C,F7*%
X165668000Y-97476000D02*
X165668000Y-98806000D01*
X164338000Y-97476000D02*
X165668000Y-97476000D01*
X165668000Y-102676000D02*
X157928000Y-102676000D01*
X165668000Y-100076000D02*
X165668000Y-102676000D01*
X163068000Y-97476000D02*
X163068000Y-100076000D01*
X157928000Y-97476000D02*
X157928000Y-102676000D01*
X163068000Y-97476000D02*
X157928000Y-97476000D01*
X163068000Y-100076000D02*
X165668000Y-100076000D01*
%TO.C,F6*%
X165668000Y-89916000D02*
X165668000Y-92516000D01*
X163068000Y-87316000D02*
X163068000Y-89916000D01*
X163068000Y-89916000D02*
X165668000Y-89916000D01*
X165668000Y-92516000D02*
X157928000Y-92516000D01*
X163068000Y-87316000D02*
X157928000Y-87316000D01*
X164338000Y-87316000D02*
X165668000Y-87316000D01*
X157928000Y-87316000D02*
X157928000Y-92516000D01*
X165668000Y-87316000D02*
X165668000Y-88646000D01*
%TO.C,F14*%
X192278000Y-87316000D02*
X193608000Y-87316000D01*
X191008000Y-89916000D02*
X193608000Y-89916000D01*
X193608000Y-92516000D02*
X185868000Y-92516000D01*
X191008000Y-87316000D02*
X191008000Y-89916000D01*
X185868000Y-87316000D02*
X185868000Y-92516000D01*
X191008000Y-87316000D02*
X185868000Y-87316000D01*
X193608000Y-87316000D02*
X193608000Y-88646000D01*
X193608000Y-89916000D02*
X193608000Y-92516000D01*
%TO.C,J11*%
X136398000Y-89976000D02*
X135068000Y-89976000D01*
X140268000Y-89976000D02*
X140268000Y-87316000D01*
X137668000Y-89976000D02*
X137668000Y-87316000D01*
X135068000Y-89976000D02*
X135068000Y-88646000D01*
X137668000Y-87316000D02*
X140268000Y-87316000D01*
X137668000Y-89976000D02*
X140268000Y-89976000D01*
%TO.C,F1*%
X143958000Y-77156000D02*
X143958000Y-82356000D01*
X151698000Y-79756000D02*
X151698000Y-82356000D01*
X149098000Y-77156000D02*
X149098000Y-79756000D01*
X151698000Y-77156000D02*
X151698000Y-78486000D01*
X150368000Y-77156000D02*
X151698000Y-77156000D01*
X151698000Y-82356000D02*
X143958000Y-82356000D01*
X149098000Y-77156000D02*
X143958000Y-77156000D01*
X149098000Y-79756000D02*
X151698000Y-79756000D01*
%TO.C,F3*%
X150368000Y-97476000D02*
X151698000Y-97476000D01*
X151698000Y-102676000D02*
X143958000Y-102676000D01*
X149098000Y-97476000D02*
X143958000Y-97476000D01*
X143958000Y-97476000D02*
X143958000Y-102676000D01*
X151698000Y-97476000D02*
X151698000Y-98806000D01*
X151698000Y-100076000D02*
X151698000Y-102676000D01*
X149098000Y-100076000D02*
X151698000Y-100076000D01*
X149098000Y-97476000D02*
X149098000Y-100076000D01*
%TO.C,J9*%
X124488000Y-120456000D02*
X125448000Y-120456000D01*
X127798000Y-114696000D02*
X127798000Y-121016000D01*
X124488000Y-121016000D02*
X125448000Y-121016000D01*
X121898000Y-121256000D02*
X122398000Y-121256000D01*
X122138000Y-114696000D02*
X127798000Y-114696000D01*
X122138000Y-120456000D02*
X122908000Y-120456000D01*
X122138000Y-114696000D02*
X122138000Y-121016000D01*
X127028000Y-121016000D02*
X127798000Y-121016000D01*
X122138000Y-121016000D02*
X122908000Y-121016000D01*
X127028000Y-120456000D02*
X127798000Y-120456000D01*
X121898000Y-120516000D02*
X121898000Y-121256000D01*
X122138000Y-115156000D02*
X127798000Y-115156000D01*
%TO.C,F13*%
X185868000Y-77156000D02*
X185868000Y-82356000D01*
X191008000Y-77156000D02*
X191008000Y-79756000D01*
X193608000Y-82356000D02*
X185868000Y-82356000D01*
X191008000Y-77156000D02*
X185868000Y-77156000D01*
X192278000Y-77156000D02*
X193608000Y-77156000D01*
X191008000Y-79756000D02*
X193608000Y-79756000D01*
X193608000Y-77156000D02*
X193608000Y-78486000D01*
X193608000Y-79756000D02*
X193608000Y-82356000D01*
%TO.C,U1*%
X128668000Y-103946000D02*
X133968000Y-103946000D01*
X133968000Y-103946000D02*
X133968000Y-93666000D01*
X133968000Y-93666000D02*
X132318000Y-93666000D01*
X130318000Y-93666000D02*
X128668000Y-93666000D01*
X128668000Y-93666000D02*
X128668000Y-103946000D01*
X130318000Y-93666000D02*
G75*
G03*
X132318000Y-93666000I1000000J0D01*
G01*
%TO.C,D1*%
X124968000Y-101621000D02*
X124968000Y-100441000D01*
X124048000Y-100441000D02*
X125888000Y-100441000D01*
X124048000Y-97161000D02*
X124048000Y-100441000D01*
X125888000Y-97161000D02*
X124048000Y-97161000D01*
X125888000Y-100441000D02*
X125888000Y-97161000D01*
X125888000Y-97617000D02*
X124048000Y-97617000D01*
X125888000Y-97737000D02*
X124048000Y-97737000D01*
X125888000Y-97857000D02*
X124048000Y-97857000D01*
X124968000Y-95981000D02*
X124968000Y-97161000D01*
%TO.C,C2*%
X117698000Y-99427000D02*
X117698000Y-100685000D01*
X119538000Y-99427000D02*
X119538000Y-100685000D01*
%TO.C,F10*%
X179638000Y-92516000D02*
X171898000Y-92516000D01*
X177038000Y-89916000D02*
X179638000Y-89916000D01*
X177038000Y-87316000D02*
X171898000Y-87316000D01*
X171898000Y-87316000D02*
X171898000Y-92516000D01*
X179638000Y-87316000D02*
X179638000Y-88646000D01*
X177038000Y-87316000D02*
X177038000Y-89916000D01*
X178308000Y-87316000D02*
X179638000Y-87316000D01*
X179638000Y-89916000D02*
X179638000Y-92516000D01*
%TO.C,F12*%
X178308000Y-107636000D02*
X179638000Y-107636000D01*
X179638000Y-110236000D02*
X179638000Y-112836000D01*
X177038000Y-110236000D02*
X179638000Y-110236000D01*
X177038000Y-107636000D02*
X171898000Y-107636000D01*
X179638000Y-107636000D02*
X179638000Y-108966000D01*
X179638000Y-112836000D02*
X171898000Y-112836000D01*
X177038000Y-107636000D02*
X177038000Y-110236000D01*
X171898000Y-107636000D02*
X171898000Y-112836000D01*
%TO.C,F2*%
X149098000Y-87316000D02*
X143958000Y-87316000D01*
X151698000Y-89916000D02*
X151698000Y-92516000D01*
X150368000Y-87316000D02*
X151698000Y-87316000D01*
X151698000Y-87316000D02*
X151698000Y-88646000D01*
X143958000Y-87316000D02*
X143958000Y-92516000D01*
X149098000Y-89916000D02*
X151698000Y-89916000D01*
X149098000Y-87316000D02*
X149098000Y-89916000D01*
X151698000Y-92516000D02*
X143958000Y-92516000D01*
%TD*%
M02*
