M48
; DRILL file {KiCad (6.0.5)} date Thu Jan 19 14:10:41 2023
; FORMAT={-:-/ absolute / inch / decimal}
; #@! TF.CreationDate,2023-01-19T14:10:41-05:00
; #@! TF.GenerationSoftware,Kicad,Pcbnew,(6.0.5)
; #@! TF.FileFunction,Plated,1,2,PTH
FMAT,2
INCH
; #@! TA.AperFunction,Plated,PTH,ViaDrill
T1C0.0157
; #@! TA.AperFunction,Plated,PTH,ComponentDrill
T2C0.0295
; #@! TA.AperFunction,Plated,PTH,ComponentDrill
T3C0.0315
; #@! TA.AperFunction,Plated,PTH,ComponentDrill
T4C0.0394
; #@! TA.AperFunction,Plated,PTH,ComponentDrill
T5C0.0433
; #@! TA.AperFunction,Plated,PTH,ComponentDrill
T6C0.0512
%
G90
G05
T1
X4.12Y-3.89
X4.12Y-4.14
X4.12Y-4.39
X4.12Y-4.64
X4.17Y-2.89
X4.17Y-3.09
X4.17Y-3.29
X4.17Y-3.59
X4.22Y-4.74
X4.27Y-2.79
X4.27Y-3.74
X4.27Y-4.54
X4.32Y-4.04
X4.37Y-3.19
X4.37Y-3.39
X4.445Y-3.89
X4.47Y-2.79
X4.47Y-3.74
X4.47Y-4.49
X4.47Y-4.74
X4.52Y-4.04
X4.57Y-3.19
X4.57Y-3.39
X4.67Y-4.19
X4.77Y-3.19
X4.77Y-3.49
X4.77Y-4.44
X4.77Y-4.74
X4.82Y-3.09
X4.87Y-2.74
X4.87Y-4.14
X4.87Y-4.34
X4.92Y-2.89
X4.97Y-2.74
X5.02Y-3.09
X5.02Y-4.24
X5.07Y-2.74
X5.07Y-3.59
X5.07Y-4.69
X5.12Y-3.79
X5.12Y-4.04
X5.12Y-4.19
X5.12Y-4.44
X5.145Y-2.865
X5.17Y-2.74
X5.17Y-3.09
X5.17Y-3.49
X5.17Y-3.89
X5.22Y-3.79
X5.22Y-4.04
X5.22Y-4.39
X5.22Y-4.615
X5.27Y-2.74
X5.27Y-2.865
X5.27Y-4.14
X5.32Y-3.065
X5.32Y-3.24
X5.32Y-4.74
X5.37Y-2.74
X5.37Y-2.865
X5.37Y-2.965
X5.395Y-4.615
X5.42Y-4.74
X5.47Y-2.74
X5.47Y-2.84
X5.47Y-3.015
X5.47Y-3.39
X5.495Y-3.265
X5.52Y-3.74
X5.52Y-3.915
X5.52Y-4.015
X5.52Y-4.165
X5.52Y-4.44
X5.52Y-4.54
X5.52Y-4.74
X5.57Y-2.74
X5.57Y-2.84
X5.57Y-3.015
X5.595Y-3.84
X5.62Y-2.94
X5.62Y-3.54
X5.62Y-4.015
X5.62Y-4.19
X5.62Y-4.415
X5.62Y-4.615
X5.62Y-4.74
X5.645Y-3.415
X5.645Y-3.665
X5.72Y-2.965
X5.72Y-4.74
X5.77Y-3.24
X5.82Y-2.74
X5.82Y-2.84
X5.82Y-4.14
X5.82Y-4.19
X5.82Y-4.74
X5.87Y-3.24
X5.87Y-4.615
X5.92Y-2.74
X5.92Y-2.84
X5.92Y-2.965
X5.92Y-4.14
X5.97Y-4.14
X5.97Y-4.69
X5.995Y-3.415
X5.995Y-3.84
X6.02Y-2.74
X6.02Y-2.84
X6.02Y-3.09
X6.02Y-3.19
X6.07Y-4.09
X6.07Y-4.19
X6.07Y-4.29
X6.095Y-3.59
X6.12Y-2.74
X6.12Y-2.84
X6.12Y-3.065
X6.12Y-3.315
X6.12Y-3.69
X6.12Y-3.99
X6.195Y-3.415
X6.195Y-3.84
X6.195Y-4.19
X6.195Y-4.39
X6.22Y-2.74
X6.22Y-4.74
X6.27Y-2.865
X6.27Y-3.015
X6.295Y-4.165
X6.32Y-2.74
X6.32Y-4.74
X6.37Y-3.015
X6.42Y-2.74
X6.42Y-2.84
X6.42Y-3.24
X6.42Y-4.74
X6.445Y-4.215
X6.47Y-2.89
X6.52Y-2.74
X6.52Y-3.39
X6.52Y-4.74
X6.545Y-3.59
X6.545Y-3.89
X6.57Y-4.415
X6.62Y-3.24
X6.62Y-3.965
X6.62Y-4.74
X6.67Y-2.74
X6.67Y-3.19
X6.67Y-3.765
X6.67Y-4.24
X6.67Y-4.315
X6.72Y-4.74
X6.745Y-3.365
X6.745Y-4.09
X6.77Y-3.14
X6.82Y-2.74
X6.845Y-3.765
X6.845Y-4.69
X6.87Y-3.04
X6.87Y-3.24
X6.87Y-3.44
X6.87Y-4.24
X6.895Y-3.365
X6.92Y-2.74
X6.97Y-3.24
X6.995Y-2.94
X6.995Y-4.09
X7.02Y-2.74
X7.095Y-4.44
X7.12Y-2.74
X7.12Y-2.84
X7.12Y-3.64
X7.12Y-4.04
X7.12Y-4.74
X7.145Y-3.24
X7.145Y-4.49
X7.17Y-4.415
X7.22Y-2.74
X7.22Y-2.84
X7.22Y-4.74
X7.245Y-4.49
X7.295Y-3.24
X7.295Y-3.64
X7.295Y-4.04
X7.295Y-4.34
X7.32Y-2.74
X7.32Y-2.84
X7.32Y-3.14
X7.32Y-3.54
X7.32Y-3.94
X7.32Y-4.74
X7.42Y-2.74
X7.42Y-2.84
X7.42Y-3.24
X7.42Y-3.64
X7.42Y-4.04
X7.42Y-4.74
X7.52Y-2.74
X7.52Y-2.84
X7.52Y-4.74
X7.545Y-4.49
X7.62Y-4.74
X7.67Y-4.615
X7.695Y-4.49
X7.72Y-2.715
X7.72Y-2.84
X7.77Y-4.59
X7.77Y-4.74
X7.82Y-2.74
X7.92Y-2.84
X7.92Y-2.94
X7.92Y-3.04
X7.92Y-3.14
X7.92Y-3.24
X7.92Y-3.34
X7.92Y-3.44
X7.92Y-3.54
X7.92Y-3.64
X7.92Y-3.74
X7.92Y-3.84
X7.92Y-3.94
X7.92Y-4.04
X7.92Y-4.14
X7.92Y-4.24
X7.92Y-4.34
X7.92Y-4.44
X7.92Y-4.59
T2
X4.92Y-3.7398
X4.92Y-4.0398
T3
X4.57Y-4.34
X4.6684Y-4.34
X4.67Y-3.89
X4.67Y-3.9884
X4.82Y-3.64
X4.82Y-4.04
X5.02Y-3.74
X5.02Y-3.84
X5.02Y-3.94
X5.02Y-4.04
X5.32Y-3.74
X5.32Y-3.84
X5.32Y-3.94
X5.32Y-4.04
X5.42Y-3.74
X5.42Y-4.14
T4
X4.81Y-2.79
X4.91Y-2.79
X5.01Y-2.79
X5.11Y-2.79
X5.17Y-4.69
X5.21Y-2.79
X5.27Y-4.69
X5.31Y-2.79
X5.37Y-3.49
X5.37Y-4.29
X5.37Y-4.69
X5.41Y-2.79
X5.47Y-3.49
X5.47Y-4.29
X5.47Y-4.69
X5.51Y-2.79
X5.57Y-4.69
X5.61Y-2.79
X5.67Y-4.69
X5.71Y-2.79
X5.72Y-3.09
X5.72Y-3.19
X5.72Y-3.49
X5.72Y-3.59
X5.72Y-3.89
X5.72Y-3.99
X5.72Y-4.29
X5.72Y-4.39
X5.77Y-4.69
X5.82Y-3.09
X5.82Y-3.19
X5.82Y-3.49
X5.82Y-3.59
X5.82Y-3.89
X5.82Y-3.99
X5.82Y-4.29
X5.82Y-4.39
X5.87Y-2.79
X5.87Y-4.69
X5.92Y-3.09
X5.92Y-3.19
X5.92Y-3.49
X5.92Y-3.59
X5.92Y-3.89
X5.92Y-3.99
X5.92Y-4.29
X5.92Y-4.39
X5.97Y-2.79
X6.07Y-2.79
X6.07Y-4.69
X6.17Y-2.79
X6.17Y-4.69
X6.27Y-2.79
X6.27Y-3.09
X6.27Y-3.19
X6.27Y-3.49
X6.27Y-3.59
X6.27Y-3.89
X6.27Y-3.99
X6.27Y-4.29
X6.27Y-4.39
X6.27Y-4.69
X6.37Y-2.79
X6.37Y-3.09
X6.37Y-3.19
X6.37Y-3.49
X6.37Y-3.59
X6.37Y-3.89
X6.37Y-3.99
X6.37Y-4.29
X6.37Y-4.39
X6.37Y-4.69
X6.47Y-2.79
X6.47Y-3.09
X6.47Y-3.19
X6.47Y-3.49
X6.47Y-3.59
X6.47Y-3.89
X6.47Y-3.99
X6.47Y-4.29
X6.47Y-4.39
X6.47Y-4.69
X6.57Y-2.79
X6.57Y-4.69
X6.67Y-4.69
X6.77Y-2.79
X6.77Y-4.69
X6.82Y-3.09
X6.82Y-3.19
X6.82Y-3.49
X6.82Y-3.59
X6.82Y-3.89
X6.82Y-3.99
X6.82Y-4.29
X6.82Y-4.39
X6.87Y-2.79
X6.92Y-3.09
X6.92Y-3.19
X6.92Y-3.49
X6.92Y-3.59
X6.92Y-3.89
X6.92Y-3.99
X6.92Y-4.29
X6.92Y-4.39
X6.97Y-2.79
X6.97Y-4.69
X7.02Y-3.09
X7.02Y-3.19
X7.02Y-3.49
X7.02Y-3.59
X7.02Y-3.89
X7.02Y-3.99
X7.02Y-4.29
X7.02Y-4.39
X7.07Y-2.79
X7.07Y-4.69
X7.17Y-2.79
X7.17Y-4.69
X7.27Y-2.79
X7.27Y-4.69
X7.37Y-2.79
X7.37Y-3.09
X7.37Y-3.19
X7.37Y-3.49
X7.37Y-3.59
X7.37Y-3.89
X7.37Y-3.99
X7.37Y-4.29
X7.37Y-4.39
X7.37Y-4.69
X7.47Y-2.79
X7.47Y-3.09
X7.47Y-3.19
X7.47Y-3.49
X7.47Y-3.59
X7.47Y-3.89
X7.47Y-3.99
X7.47Y-4.29
X7.47Y-4.39
X7.47Y-4.69
X7.57Y-3.09
X7.57Y-3.19
X7.57Y-3.49
X7.57Y-3.59
X7.57Y-3.89
X7.57Y-3.99
X7.57Y-4.29
X7.57Y-4.39
X7.57Y-4.69
X7.67Y-4.69
X7.77Y-2.79
X7.77Y-2.89
X7.77Y-2.99
X7.77Y-3.09
X7.77Y-3.19
X7.77Y-3.29
X7.77Y-3.39
X7.77Y-3.49
X7.77Y-3.59
X7.77Y-3.69
X7.77Y-3.79
X7.77Y-3.89
X7.77Y-3.99
X7.77Y-4.09
X7.77Y-4.19
X7.77Y-4.29
X7.77Y-4.39
X7.77Y-4.49
X7.87Y-2.79
X7.87Y-2.89
X7.87Y-2.99
X7.87Y-3.09
X7.87Y-3.19
X7.87Y-3.29
X7.87Y-3.39
X7.87Y-3.49
X7.87Y-3.59
X7.87Y-3.69
X7.87Y-3.79
X7.87Y-3.89
X7.87Y-3.99
X7.87Y-4.09
X7.87Y-4.19
X7.87Y-4.29
X7.87Y-4.39
X7.87Y-4.49
T5
X4.87Y-4.64
X4.97Y-4.64
T6
X4.1763Y-3.7916
X4.1763Y-3.9884
X4.57Y-3.5947
X4.57Y-3.89
X4.57Y-4.1853
X4.6684Y-3.6931
X4.6684Y-4.0869
T0
M30
