%TF.GenerationSoftware,KiCad,Pcbnew,(6.0.5)*%
%TF.CreationDate,2023-01-21T13:29:46-05:00*%
%TF.ProjectId,floppy_bracket,666c6f70-7079-45f6-9272-61636b65742e,rev?*%
%TF.SameCoordinates,Original*%
%TF.FileFunction,Copper,L1,Top*%
%TF.FilePolarity,Positive*%
%FSLAX46Y46*%
G04 Gerber Fmt 4.6, Leading zero omitted, Abs format (unit mm)*
G04 Created by KiCad (PCBNEW (6.0.5)) date 2023-01-21 13:29:46*
%MOMM*%
%LPD*%
G01*
G04 APERTURE LIST*
%TA.AperFunction,ComponentPad*%
%ADD10C,6.400000*%
%TD*%
G04 APERTURE END LIST*
D10*
%TO.P,H2,1*%
%TO.N,N/C*%
X161200000Y-71200000D03*
%TD*%
%TO.P,H11,1*%
%TO.N,N/C*%
X161200000Y-147400000D03*
%TD*%
%TO.P,H6,1*%
%TO.N,N/C*%
X191200000Y-96600000D03*
%TD*%
%TO.P,H5,1*%
%TO.N,N/C*%
X161200000Y-96600000D03*
%TD*%
%TO.P,H10,1*%
%TO.N,N/C*%
X101200000Y-147400000D03*
%TD*%
%TO.P,H3,1*%
%TO.N,N/C*%
X191200000Y-71200000D03*
%TD*%
%TO.P,H7,1*%
%TO.N,N/C*%
X101200000Y-122000000D03*
%TD*%
%TO.P,H12,1*%
%TO.N,N/C*%
X191200000Y-147400000D03*
%TD*%
%TO.P,H8,1*%
%TO.N,N/C*%
X161200000Y-122000000D03*
%TD*%
%TO.P,H4,1*%
%TO.N,N/C*%
X101200000Y-96600000D03*
%TD*%
%TO.P,H9,1*%
%TO.N,N/C*%
X191200000Y-122000000D03*
%TD*%
%TO.P,H1,1*%
%TO.N,N/C*%
X101200000Y-71200000D03*
%TD*%
%TA.AperFunction,NonConductor*%
G36*
X240733621Y-51328502D02*
G01*
X240780114Y-51382158D01*
X240791500Y-51434500D01*
X240791500Y-151765500D01*
X240771498Y-151833621D01*
X240717842Y-151880114D01*
X240665500Y-151891500D01*
X76834500Y-151891500D01*
X76766379Y-151871498D01*
X76719886Y-151817842D01*
X76708500Y-151765500D01*
X76708500Y-147400000D01*
X97486411Y-147400000D01*
X97506754Y-147788176D01*
X97507267Y-147791416D01*
X97507268Y-147791424D01*
X97518085Y-147859715D01*
X97567562Y-148172099D01*
X97668167Y-148547562D01*
X97807468Y-148910453D01*
X97983938Y-149256794D01*
X98195643Y-149582793D01*
X98440266Y-149884876D01*
X98715124Y-150159734D01*
X99017207Y-150404357D01*
X99343205Y-150616062D01*
X99346139Y-150617557D01*
X99346146Y-150617561D01*
X99686607Y-150791034D01*
X99689547Y-150792532D01*
X100052438Y-150931833D01*
X100427901Y-151032438D01*
X100631793Y-151064732D01*
X100808576Y-151092732D01*
X100808584Y-151092733D01*
X100811824Y-151093246D01*
X101200000Y-151113589D01*
X101588176Y-151093246D01*
X101591416Y-151092733D01*
X101591424Y-151092732D01*
X101768207Y-151064732D01*
X101972099Y-151032438D01*
X102347562Y-150931833D01*
X102710453Y-150792532D01*
X102713393Y-150791034D01*
X103053854Y-150617561D01*
X103053861Y-150617557D01*
X103056795Y-150616062D01*
X103382793Y-150404357D01*
X103684876Y-150159734D01*
X103959734Y-149884876D01*
X104204357Y-149582793D01*
X104416062Y-149256794D01*
X104592532Y-148910453D01*
X104731833Y-148547562D01*
X104832438Y-148172099D01*
X104881915Y-147859715D01*
X104892732Y-147791424D01*
X104892733Y-147791416D01*
X104893246Y-147788176D01*
X104913589Y-147400000D01*
X157486411Y-147400000D01*
X157506754Y-147788176D01*
X157507267Y-147791416D01*
X157507268Y-147791424D01*
X157518085Y-147859715D01*
X157567562Y-148172099D01*
X157668167Y-148547562D01*
X157807468Y-148910453D01*
X157983938Y-149256794D01*
X158195643Y-149582793D01*
X158440266Y-149884876D01*
X158715124Y-150159734D01*
X159017207Y-150404357D01*
X159343205Y-150616062D01*
X159346139Y-150617557D01*
X159346146Y-150617561D01*
X159686607Y-150791034D01*
X159689547Y-150792532D01*
X160052438Y-150931833D01*
X160427901Y-151032438D01*
X160631793Y-151064732D01*
X160808576Y-151092732D01*
X160808584Y-151092733D01*
X160811824Y-151093246D01*
X161200000Y-151113589D01*
X161588176Y-151093246D01*
X161591416Y-151092733D01*
X161591424Y-151092732D01*
X161768207Y-151064732D01*
X161972099Y-151032438D01*
X162347562Y-150931833D01*
X162710453Y-150792532D01*
X162713393Y-150791034D01*
X163053854Y-150617561D01*
X163053861Y-150617557D01*
X163056795Y-150616062D01*
X163382793Y-150404357D01*
X163684876Y-150159734D01*
X163959734Y-149884876D01*
X164204357Y-149582793D01*
X164416062Y-149256794D01*
X164592532Y-148910453D01*
X164731833Y-148547562D01*
X164832438Y-148172099D01*
X164881915Y-147859715D01*
X164892732Y-147791424D01*
X164892733Y-147791416D01*
X164893246Y-147788176D01*
X164913589Y-147400000D01*
X187486411Y-147400000D01*
X187506754Y-147788176D01*
X187507267Y-147791416D01*
X187507268Y-147791424D01*
X187518085Y-147859715D01*
X187567562Y-148172099D01*
X187668167Y-148547562D01*
X187807468Y-148910453D01*
X187983938Y-149256794D01*
X188195643Y-149582793D01*
X188440266Y-149884876D01*
X188715124Y-150159734D01*
X189017207Y-150404357D01*
X189343205Y-150616062D01*
X189346139Y-150617557D01*
X189346146Y-150617561D01*
X189686607Y-150791034D01*
X189689547Y-150792532D01*
X190052438Y-150931833D01*
X190427901Y-151032438D01*
X190631793Y-151064732D01*
X190808576Y-151092732D01*
X190808584Y-151092733D01*
X190811824Y-151093246D01*
X191200000Y-151113589D01*
X191588176Y-151093246D01*
X191591416Y-151092733D01*
X191591424Y-151092732D01*
X191768207Y-151064732D01*
X191972099Y-151032438D01*
X192347562Y-150931833D01*
X192710453Y-150792532D01*
X192713393Y-150791034D01*
X193053854Y-150617561D01*
X193053861Y-150617557D01*
X193056795Y-150616062D01*
X193382793Y-150404357D01*
X193684876Y-150159734D01*
X193959734Y-149884876D01*
X194204357Y-149582793D01*
X194416062Y-149256794D01*
X194592532Y-148910453D01*
X194731833Y-148547562D01*
X194832438Y-148172099D01*
X194881915Y-147859715D01*
X194892732Y-147791424D01*
X194892733Y-147791416D01*
X194893246Y-147788176D01*
X194913589Y-147400000D01*
X194893246Y-147011824D01*
X194892249Y-147005524D01*
X194864732Y-146831793D01*
X194832438Y-146627901D01*
X194731833Y-146252438D01*
X194705064Y-146182703D01*
X232840743Y-146182703D01*
X232878268Y-146467734D01*
X232954129Y-146745036D01*
X233066923Y-147009476D01*
X233214561Y-147256161D01*
X233394313Y-147480528D01*
X233602851Y-147678423D01*
X233836317Y-147846186D01*
X233840112Y-147848195D01*
X233840113Y-147848196D01*
X233861869Y-147859715D01*
X234090392Y-147980712D01*
X234360373Y-148079511D01*
X234641264Y-148140755D01*
X234669841Y-148143004D01*
X234864282Y-148158307D01*
X234864291Y-148158307D01*
X234866739Y-148158500D01*
X235022271Y-148158500D01*
X235024407Y-148158354D01*
X235024418Y-148158354D01*
X235232548Y-148144165D01*
X235232554Y-148144164D01*
X235236825Y-148143873D01*
X235241020Y-148143004D01*
X235241022Y-148143004D01*
X235377583Y-148114724D01*
X235518342Y-148085574D01*
X235789343Y-147989607D01*
X236044812Y-147857750D01*
X236048313Y-147855289D01*
X236048317Y-147855287D01*
X236162418Y-147775095D01*
X236280023Y-147692441D01*
X236490622Y-147496740D01*
X236672713Y-147274268D01*
X236822927Y-147029142D01*
X236938483Y-146765898D01*
X237017244Y-146489406D01*
X237057751Y-146204784D01*
X237057845Y-146186951D01*
X237059235Y-145921583D01*
X237059235Y-145921576D01*
X237059257Y-145917297D01*
X237021732Y-145632266D01*
X236945871Y-145354964D01*
X236887112Y-145217207D01*
X236834763Y-145094476D01*
X236834761Y-145094472D01*
X236833077Y-145090524D01*
X236685439Y-144843839D01*
X236505687Y-144619472D01*
X236297149Y-144421577D01*
X236063683Y-144253814D01*
X236041843Y-144242250D01*
X235928879Y-144182439D01*
X235809608Y-144119288D01*
X235539627Y-144020489D01*
X235258736Y-143959245D01*
X235227685Y-143956801D01*
X235035718Y-143941693D01*
X235035709Y-143941693D01*
X235033261Y-143941500D01*
X234877729Y-143941500D01*
X234875593Y-143941646D01*
X234875582Y-143941646D01*
X234667452Y-143955835D01*
X234667446Y-143955836D01*
X234663175Y-143956127D01*
X234658980Y-143956996D01*
X234658978Y-143956996D01*
X234522417Y-143985276D01*
X234381658Y-144014426D01*
X234110657Y-144110393D01*
X233855188Y-144242250D01*
X233851687Y-144244711D01*
X233851683Y-144244713D01*
X233841594Y-144251804D01*
X233619977Y-144407559D01*
X233409378Y-144603260D01*
X233227287Y-144825732D01*
X233077073Y-145070858D01*
X232961517Y-145334102D01*
X232882756Y-145610594D01*
X232842249Y-145895216D01*
X232842227Y-145899505D01*
X232842226Y-145899512D01*
X232840765Y-146178417D01*
X232840743Y-146182703D01*
X194705064Y-146182703D01*
X194592532Y-145889547D01*
X194463609Y-145636522D01*
X194417561Y-145546147D01*
X194417557Y-145546140D01*
X194416062Y-145543206D01*
X194204357Y-145217207D01*
X193959734Y-144915124D01*
X193684876Y-144640266D01*
X193655559Y-144616525D01*
X193533834Y-144517954D01*
X193382793Y-144395643D01*
X193380029Y-144393848D01*
X193059564Y-144185736D01*
X193059561Y-144185734D01*
X193056795Y-144183938D01*
X193053861Y-144182443D01*
X193053854Y-144182439D01*
X192713393Y-144008966D01*
X192710453Y-144007468D01*
X192347562Y-143868167D01*
X191972099Y-143767562D01*
X191768207Y-143735268D01*
X191591424Y-143707268D01*
X191591416Y-143707267D01*
X191588176Y-143706754D01*
X191200000Y-143686411D01*
X190811824Y-143706754D01*
X190808584Y-143707267D01*
X190808576Y-143707268D01*
X190631793Y-143735268D01*
X190427901Y-143767562D01*
X190052438Y-143868167D01*
X189689547Y-144007468D01*
X189686607Y-144008966D01*
X189346147Y-144182439D01*
X189346140Y-144182443D01*
X189343206Y-144183938D01*
X189340440Y-144185734D01*
X189340437Y-144185736D01*
X189253413Y-144242250D01*
X189017207Y-144395643D01*
X188866166Y-144517954D01*
X188744442Y-144616525D01*
X188715124Y-144640266D01*
X188440266Y-144915124D01*
X188195643Y-145217207D01*
X187983938Y-145543206D01*
X187982443Y-145546140D01*
X187982439Y-145546147D01*
X187936391Y-145636522D01*
X187807468Y-145889547D01*
X187668167Y-146252438D01*
X187567562Y-146627901D01*
X187535268Y-146831793D01*
X187507752Y-147005524D01*
X187506754Y-147011824D01*
X187486411Y-147400000D01*
X164913589Y-147400000D01*
X164893246Y-147011824D01*
X164892249Y-147005524D01*
X164864732Y-146831793D01*
X164832438Y-146627901D01*
X164731833Y-146252438D01*
X164592532Y-145889547D01*
X164463609Y-145636522D01*
X164417561Y-145546147D01*
X164417557Y-145546140D01*
X164416062Y-145543206D01*
X164204357Y-145217207D01*
X163959734Y-144915124D01*
X163684876Y-144640266D01*
X163655559Y-144616525D01*
X163533834Y-144517954D01*
X163382793Y-144395643D01*
X163380029Y-144393848D01*
X163059564Y-144185736D01*
X163059561Y-144185734D01*
X163056795Y-144183938D01*
X163053861Y-144182443D01*
X163053854Y-144182439D01*
X162713393Y-144008966D01*
X162710453Y-144007468D01*
X162347562Y-143868167D01*
X161972099Y-143767562D01*
X161768207Y-143735268D01*
X161591424Y-143707268D01*
X161591416Y-143707267D01*
X161588176Y-143706754D01*
X161200000Y-143686411D01*
X160811824Y-143706754D01*
X160808584Y-143707267D01*
X160808576Y-143707268D01*
X160631793Y-143735268D01*
X160427901Y-143767562D01*
X160052438Y-143868167D01*
X159689547Y-144007468D01*
X159686607Y-144008966D01*
X159346147Y-144182439D01*
X159346140Y-144182443D01*
X159343206Y-144183938D01*
X159340440Y-144185734D01*
X159340437Y-144185736D01*
X159253413Y-144242250D01*
X159017207Y-144395643D01*
X158866166Y-144517954D01*
X158744442Y-144616525D01*
X158715124Y-144640266D01*
X158440266Y-144915124D01*
X158195643Y-145217207D01*
X157983938Y-145543206D01*
X157982443Y-145546140D01*
X157982439Y-145546147D01*
X157936391Y-145636522D01*
X157807468Y-145889547D01*
X157668167Y-146252438D01*
X157567562Y-146627901D01*
X157535268Y-146831793D01*
X157507752Y-147005524D01*
X157506754Y-147011824D01*
X157486411Y-147400000D01*
X104913589Y-147400000D01*
X104893246Y-147011824D01*
X104892249Y-147005524D01*
X104864732Y-146831793D01*
X104832438Y-146627901D01*
X104731833Y-146252438D01*
X104592532Y-145889547D01*
X104463609Y-145636522D01*
X104417561Y-145546147D01*
X104417557Y-145546140D01*
X104416062Y-145543206D01*
X104204357Y-145217207D01*
X103959734Y-144915124D01*
X103684876Y-144640266D01*
X103655559Y-144616525D01*
X103533834Y-144517954D01*
X103382793Y-144395643D01*
X103380029Y-144393848D01*
X103059564Y-144185736D01*
X103059561Y-144185734D01*
X103056795Y-144183938D01*
X103053861Y-144182443D01*
X103053854Y-144182439D01*
X102713393Y-144008966D01*
X102710453Y-144007468D01*
X102347562Y-143868167D01*
X101972099Y-143767562D01*
X101768207Y-143735268D01*
X101591424Y-143707268D01*
X101591416Y-143707267D01*
X101588176Y-143706754D01*
X101200000Y-143686411D01*
X100811824Y-143706754D01*
X100808584Y-143707267D01*
X100808576Y-143707268D01*
X100631793Y-143735268D01*
X100427901Y-143767562D01*
X100052438Y-143868167D01*
X99689547Y-144007468D01*
X99686607Y-144008966D01*
X99346147Y-144182439D01*
X99346140Y-144182443D01*
X99343206Y-144183938D01*
X99340440Y-144185734D01*
X99340437Y-144185736D01*
X99253413Y-144242250D01*
X99017207Y-144395643D01*
X98866166Y-144517954D01*
X98744442Y-144616525D01*
X98715124Y-144640266D01*
X98440266Y-144915124D01*
X98195643Y-145217207D01*
X97983938Y-145543206D01*
X97982443Y-145546140D01*
X97982439Y-145546147D01*
X97936391Y-145636522D01*
X97807468Y-145889547D01*
X97668167Y-146252438D01*
X97567562Y-146627901D01*
X97535268Y-146831793D01*
X97507752Y-147005524D01*
X97506754Y-147011824D01*
X97486411Y-147400000D01*
X76708500Y-147400000D01*
X76708500Y-122000000D01*
X97486411Y-122000000D01*
X97506754Y-122388176D01*
X97567562Y-122772099D01*
X97668167Y-123147562D01*
X97807468Y-123510453D01*
X97983938Y-123856794D01*
X98195643Y-124182793D01*
X98440266Y-124484876D01*
X98715124Y-124759734D01*
X99017207Y-125004357D01*
X99343205Y-125216062D01*
X99346139Y-125217557D01*
X99346146Y-125217561D01*
X99686607Y-125391034D01*
X99689547Y-125392532D01*
X100052438Y-125531833D01*
X100427901Y-125632438D01*
X100631793Y-125664732D01*
X100808576Y-125692732D01*
X100808584Y-125692733D01*
X100811824Y-125693246D01*
X101200000Y-125713589D01*
X101588176Y-125693246D01*
X101591416Y-125692733D01*
X101591424Y-125692732D01*
X101768207Y-125664732D01*
X101972099Y-125632438D01*
X102347562Y-125531833D01*
X102710453Y-125392532D01*
X102713393Y-125391034D01*
X103053854Y-125217561D01*
X103053861Y-125217557D01*
X103056795Y-125216062D01*
X103382793Y-125004357D01*
X103684876Y-124759734D01*
X103959734Y-124484876D01*
X104204357Y-124182793D01*
X104416062Y-123856794D01*
X104592532Y-123510453D01*
X104731833Y-123147562D01*
X104832438Y-122772099D01*
X104893246Y-122388176D01*
X104913589Y-122000000D01*
X157486411Y-122000000D01*
X157506754Y-122388176D01*
X157567562Y-122772099D01*
X157668167Y-123147562D01*
X157807468Y-123510453D01*
X157983938Y-123856794D01*
X158195643Y-124182793D01*
X158440266Y-124484876D01*
X158715124Y-124759734D01*
X159017207Y-125004357D01*
X159343205Y-125216062D01*
X159346139Y-125217557D01*
X159346146Y-125217561D01*
X159686607Y-125391034D01*
X159689547Y-125392532D01*
X160052438Y-125531833D01*
X160427901Y-125632438D01*
X160631793Y-125664732D01*
X160808576Y-125692732D01*
X160808584Y-125692733D01*
X160811824Y-125693246D01*
X161200000Y-125713589D01*
X161588176Y-125693246D01*
X161591416Y-125692733D01*
X161591424Y-125692732D01*
X161768207Y-125664732D01*
X161972099Y-125632438D01*
X162347562Y-125531833D01*
X162710453Y-125392532D01*
X162713393Y-125391034D01*
X163053854Y-125217561D01*
X163053861Y-125217557D01*
X163056795Y-125216062D01*
X163382793Y-125004357D01*
X163684876Y-124759734D01*
X163959734Y-124484876D01*
X164204357Y-124182793D01*
X164416062Y-123856794D01*
X164592532Y-123510453D01*
X164731833Y-123147562D01*
X164832438Y-122772099D01*
X164893246Y-122388176D01*
X164913589Y-122000000D01*
X187486411Y-122000000D01*
X187506754Y-122388176D01*
X187567562Y-122772099D01*
X187668167Y-123147562D01*
X187807468Y-123510453D01*
X187983938Y-123856794D01*
X188195643Y-124182793D01*
X188440266Y-124484876D01*
X188715124Y-124759734D01*
X189017207Y-125004357D01*
X189343205Y-125216062D01*
X189346139Y-125217557D01*
X189346146Y-125217561D01*
X189686607Y-125391034D01*
X189689547Y-125392532D01*
X190052438Y-125531833D01*
X190427901Y-125632438D01*
X190631793Y-125664732D01*
X190808576Y-125692732D01*
X190808584Y-125692733D01*
X190811824Y-125693246D01*
X191200000Y-125713589D01*
X191588176Y-125693246D01*
X191591416Y-125692733D01*
X191591424Y-125692732D01*
X191768207Y-125664732D01*
X191972099Y-125632438D01*
X192347562Y-125531833D01*
X192710453Y-125392532D01*
X192713393Y-125391034D01*
X193053854Y-125217561D01*
X193053861Y-125217557D01*
X193056795Y-125216062D01*
X193382793Y-125004357D01*
X193684876Y-124759734D01*
X193959734Y-124484876D01*
X194204357Y-124182793D01*
X194416062Y-123856794D01*
X194592532Y-123510453D01*
X194731833Y-123147562D01*
X194832438Y-122772099D01*
X194893246Y-122388176D01*
X194913589Y-122000000D01*
X194893246Y-121611824D01*
X194832438Y-121227901D01*
X194731833Y-120852438D01*
X194592532Y-120489547D01*
X194416062Y-120143206D01*
X194204357Y-119817207D01*
X193959734Y-119515124D01*
X193684876Y-119240266D01*
X193382793Y-118995643D01*
X193056795Y-118783938D01*
X193053861Y-118782443D01*
X193053854Y-118782439D01*
X192713393Y-118608966D01*
X192710453Y-118607468D01*
X192347562Y-118468167D01*
X191972099Y-118367562D01*
X191768207Y-118335268D01*
X191591424Y-118307268D01*
X191591416Y-118307267D01*
X191588176Y-118306754D01*
X191200000Y-118286411D01*
X190811824Y-118306754D01*
X190808584Y-118307267D01*
X190808576Y-118307268D01*
X190631793Y-118335268D01*
X190427901Y-118367562D01*
X190052438Y-118468167D01*
X189689547Y-118607468D01*
X189686607Y-118608966D01*
X189346147Y-118782439D01*
X189346140Y-118782443D01*
X189343206Y-118783938D01*
X189017207Y-118995643D01*
X188715124Y-119240266D01*
X188440266Y-119515124D01*
X188195643Y-119817207D01*
X187983938Y-120143206D01*
X187807468Y-120489547D01*
X187668167Y-120852438D01*
X187567562Y-121227901D01*
X187506754Y-121611824D01*
X187486411Y-122000000D01*
X164913589Y-122000000D01*
X164893246Y-121611824D01*
X164832438Y-121227901D01*
X164731833Y-120852438D01*
X164592532Y-120489547D01*
X164416062Y-120143206D01*
X164204357Y-119817207D01*
X163959734Y-119515124D01*
X163684876Y-119240266D01*
X163382793Y-118995643D01*
X163056795Y-118783938D01*
X163053861Y-118782443D01*
X163053854Y-118782439D01*
X162713393Y-118608966D01*
X162710453Y-118607468D01*
X162347562Y-118468167D01*
X161972099Y-118367562D01*
X161768207Y-118335268D01*
X161591424Y-118307268D01*
X161591416Y-118307267D01*
X161588176Y-118306754D01*
X161200000Y-118286411D01*
X160811824Y-118306754D01*
X160808584Y-118307267D01*
X160808576Y-118307268D01*
X160631793Y-118335268D01*
X160427901Y-118367562D01*
X160052438Y-118468167D01*
X159689547Y-118607468D01*
X159686607Y-118608966D01*
X159346147Y-118782439D01*
X159346140Y-118782443D01*
X159343206Y-118783938D01*
X159017207Y-118995643D01*
X158715124Y-119240266D01*
X158440266Y-119515124D01*
X158195643Y-119817207D01*
X157983938Y-120143206D01*
X157807468Y-120489547D01*
X157668167Y-120852438D01*
X157567562Y-121227901D01*
X157506754Y-121611824D01*
X157486411Y-122000000D01*
X104913589Y-122000000D01*
X104893246Y-121611824D01*
X104832438Y-121227901D01*
X104731833Y-120852438D01*
X104592532Y-120489547D01*
X104416062Y-120143206D01*
X104204357Y-119817207D01*
X103959734Y-119515124D01*
X103684876Y-119240266D01*
X103382793Y-118995643D01*
X103056795Y-118783938D01*
X103053861Y-118782443D01*
X103053854Y-118782439D01*
X102713393Y-118608966D01*
X102710453Y-118607468D01*
X102347562Y-118468167D01*
X101972099Y-118367562D01*
X101768207Y-118335268D01*
X101591424Y-118307268D01*
X101591416Y-118307267D01*
X101588176Y-118306754D01*
X101200000Y-118286411D01*
X100811824Y-118306754D01*
X100808584Y-118307267D01*
X100808576Y-118307268D01*
X100631793Y-118335268D01*
X100427901Y-118367562D01*
X100052438Y-118468167D01*
X99689547Y-118607468D01*
X99686607Y-118608966D01*
X99346147Y-118782439D01*
X99346140Y-118782443D01*
X99343206Y-118783938D01*
X99017207Y-118995643D01*
X98715124Y-119240266D01*
X98440266Y-119515124D01*
X98195643Y-119817207D01*
X97983938Y-120143206D01*
X97807468Y-120489547D01*
X97668167Y-120852438D01*
X97567562Y-121227901D01*
X97506754Y-121611824D01*
X97486411Y-122000000D01*
X76708500Y-122000000D01*
X76708500Y-114432703D01*
X232840743Y-114432703D01*
X232878268Y-114717734D01*
X232954129Y-114995036D01*
X233066923Y-115259476D01*
X233214561Y-115506161D01*
X233394313Y-115730528D01*
X233602851Y-115928423D01*
X233836317Y-116096186D01*
X233840112Y-116098195D01*
X233840113Y-116098196D01*
X233861869Y-116109715D01*
X234090392Y-116230712D01*
X234360373Y-116329511D01*
X234641264Y-116390755D01*
X234669841Y-116393004D01*
X234864282Y-116408307D01*
X234864291Y-116408307D01*
X234866739Y-116408500D01*
X235022271Y-116408500D01*
X235024407Y-116408354D01*
X235024418Y-116408354D01*
X235232548Y-116394165D01*
X235232554Y-116394164D01*
X235236825Y-116393873D01*
X235241020Y-116393004D01*
X235241022Y-116393004D01*
X235377584Y-116364723D01*
X235518342Y-116335574D01*
X235789343Y-116239607D01*
X236044812Y-116107750D01*
X236048313Y-116105289D01*
X236048317Y-116105287D01*
X236162418Y-116025095D01*
X236280023Y-115942441D01*
X236490622Y-115746740D01*
X236672713Y-115524268D01*
X236822927Y-115279142D01*
X236938483Y-115015898D01*
X237017244Y-114739406D01*
X237057751Y-114454784D01*
X237057845Y-114436951D01*
X237059235Y-114171583D01*
X237059235Y-114171576D01*
X237059257Y-114167297D01*
X237021732Y-113882266D01*
X236945871Y-113604964D01*
X236833077Y-113340524D01*
X236685439Y-113093839D01*
X236505687Y-112869472D01*
X236297149Y-112671577D01*
X236063683Y-112503814D01*
X236041843Y-112492250D01*
X236018654Y-112479972D01*
X235809608Y-112369288D01*
X235539627Y-112270489D01*
X235258736Y-112209245D01*
X235227685Y-112206801D01*
X235035718Y-112191693D01*
X235035709Y-112191693D01*
X235033261Y-112191500D01*
X234877729Y-112191500D01*
X234875593Y-112191646D01*
X234875582Y-112191646D01*
X234667452Y-112205835D01*
X234667446Y-112205836D01*
X234663175Y-112206127D01*
X234658980Y-112206996D01*
X234658978Y-112206996D01*
X234522417Y-112235276D01*
X234381658Y-112264426D01*
X234110657Y-112360393D01*
X233855188Y-112492250D01*
X233851687Y-112494711D01*
X233851683Y-112494713D01*
X233841594Y-112501804D01*
X233619977Y-112657559D01*
X233409378Y-112853260D01*
X233227287Y-113075732D01*
X233077073Y-113320858D01*
X232961517Y-113584102D01*
X232882756Y-113860594D01*
X232842249Y-114145216D01*
X232842227Y-114149505D01*
X232842226Y-114149512D01*
X232840765Y-114428417D01*
X232840743Y-114432703D01*
X76708500Y-114432703D01*
X76708500Y-96600000D01*
X97486411Y-96600000D01*
X97506754Y-96988176D01*
X97567562Y-97372099D01*
X97668167Y-97747562D01*
X97807468Y-98110453D01*
X97983938Y-98456794D01*
X98195643Y-98782793D01*
X98440266Y-99084876D01*
X98715124Y-99359734D01*
X99017207Y-99604357D01*
X99343205Y-99816062D01*
X99346139Y-99817557D01*
X99346146Y-99817561D01*
X99686607Y-99991034D01*
X99689547Y-99992532D01*
X100052438Y-100131833D01*
X100427901Y-100232438D01*
X100631793Y-100264732D01*
X100808576Y-100292732D01*
X100808584Y-100292733D01*
X100811824Y-100293246D01*
X101200000Y-100313589D01*
X101588176Y-100293246D01*
X101591416Y-100292733D01*
X101591424Y-100292732D01*
X101768207Y-100264732D01*
X101972099Y-100232438D01*
X102347562Y-100131833D01*
X102710453Y-99992532D01*
X102713393Y-99991034D01*
X103053854Y-99817561D01*
X103053861Y-99817557D01*
X103056795Y-99816062D01*
X103382793Y-99604357D01*
X103684876Y-99359734D01*
X103959734Y-99084876D01*
X104204357Y-98782793D01*
X104416062Y-98456794D01*
X104592532Y-98110453D01*
X104731833Y-97747562D01*
X104832438Y-97372099D01*
X104893246Y-96988176D01*
X104913589Y-96600000D01*
X157486411Y-96600000D01*
X157506754Y-96988176D01*
X157567562Y-97372099D01*
X157668167Y-97747562D01*
X157807468Y-98110453D01*
X157983938Y-98456794D01*
X158195643Y-98782793D01*
X158440266Y-99084876D01*
X158715124Y-99359734D01*
X159017207Y-99604357D01*
X159343205Y-99816062D01*
X159346139Y-99817557D01*
X159346146Y-99817561D01*
X159686607Y-99991034D01*
X159689547Y-99992532D01*
X160052438Y-100131833D01*
X160427901Y-100232438D01*
X160631793Y-100264732D01*
X160808576Y-100292732D01*
X160808584Y-100292733D01*
X160811824Y-100293246D01*
X161200000Y-100313589D01*
X161588176Y-100293246D01*
X161591416Y-100292733D01*
X161591424Y-100292732D01*
X161768207Y-100264732D01*
X161972099Y-100232438D01*
X162347562Y-100131833D01*
X162710453Y-99992532D01*
X162713393Y-99991034D01*
X163053854Y-99817561D01*
X163053861Y-99817557D01*
X163056795Y-99816062D01*
X163382793Y-99604357D01*
X163684876Y-99359734D01*
X163959734Y-99084876D01*
X164204357Y-98782793D01*
X164416062Y-98456794D01*
X164592532Y-98110453D01*
X164731833Y-97747562D01*
X164832438Y-97372099D01*
X164893246Y-96988176D01*
X164913589Y-96600000D01*
X187486411Y-96600000D01*
X187506754Y-96988176D01*
X187567562Y-97372099D01*
X187668167Y-97747562D01*
X187807468Y-98110453D01*
X187983938Y-98456794D01*
X188195643Y-98782793D01*
X188440266Y-99084876D01*
X188715124Y-99359734D01*
X189017207Y-99604357D01*
X189343205Y-99816062D01*
X189346139Y-99817557D01*
X189346146Y-99817561D01*
X189686607Y-99991034D01*
X189689547Y-99992532D01*
X190052438Y-100131833D01*
X190427901Y-100232438D01*
X190631793Y-100264732D01*
X190808576Y-100292732D01*
X190808584Y-100292733D01*
X190811824Y-100293246D01*
X191200000Y-100313589D01*
X191588176Y-100293246D01*
X191591416Y-100292733D01*
X191591424Y-100292732D01*
X191768207Y-100264732D01*
X191972099Y-100232438D01*
X192347562Y-100131833D01*
X192710453Y-99992532D01*
X192713393Y-99991034D01*
X193053854Y-99817561D01*
X193053861Y-99817557D01*
X193056795Y-99816062D01*
X193382793Y-99604357D01*
X193684876Y-99359734D01*
X193959734Y-99084876D01*
X194204357Y-98782793D01*
X194416062Y-98456794D01*
X194592532Y-98110453D01*
X194731833Y-97747562D01*
X194832438Y-97372099D01*
X194893246Y-96988176D01*
X194913589Y-96600000D01*
X194893246Y-96211824D01*
X194832438Y-95827901D01*
X194731833Y-95452438D01*
X194592532Y-95089547D01*
X194416062Y-94743206D01*
X194204357Y-94417207D01*
X193959734Y-94115124D01*
X193684876Y-93840266D01*
X193382793Y-93595643D01*
X193056795Y-93383938D01*
X193053861Y-93382443D01*
X193053854Y-93382439D01*
X192713393Y-93208966D01*
X192710453Y-93207468D01*
X192347562Y-93068167D01*
X191972099Y-92967562D01*
X191768207Y-92935268D01*
X191591424Y-92907268D01*
X191591416Y-92907267D01*
X191588176Y-92906754D01*
X191200000Y-92886411D01*
X190811824Y-92906754D01*
X190808584Y-92907267D01*
X190808576Y-92907268D01*
X190631793Y-92935268D01*
X190427901Y-92967562D01*
X190052438Y-93068167D01*
X189689547Y-93207468D01*
X189686607Y-93208966D01*
X189346147Y-93382439D01*
X189346140Y-93382443D01*
X189343206Y-93383938D01*
X189017207Y-93595643D01*
X188715124Y-93840266D01*
X188440266Y-94115124D01*
X188195643Y-94417207D01*
X187983938Y-94743206D01*
X187807468Y-95089547D01*
X187668167Y-95452438D01*
X187567562Y-95827901D01*
X187506754Y-96211824D01*
X187486411Y-96600000D01*
X164913589Y-96600000D01*
X164893246Y-96211824D01*
X164832438Y-95827901D01*
X164731833Y-95452438D01*
X164592532Y-95089547D01*
X164416062Y-94743206D01*
X164204357Y-94417207D01*
X163959734Y-94115124D01*
X163684876Y-93840266D01*
X163382793Y-93595643D01*
X163056795Y-93383938D01*
X163053861Y-93382443D01*
X163053854Y-93382439D01*
X162713393Y-93208966D01*
X162710453Y-93207468D01*
X162347562Y-93068167D01*
X161972099Y-92967562D01*
X161768207Y-92935268D01*
X161591424Y-92907268D01*
X161591416Y-92907267D01*
X161588176Y-92906754D01*
X161200000Y-92886411D01*
X160811824Y-92906754D01*
X160808584Y-92907267D01*
X160808576Y-92907268D01*
X160631793Y-92935268D01*
X160427901Y-92967562D01*
X160052438Y-93068167D01*
X159689547Y-93207468D01*
X159686607Y-93208966D01*
X159346147Y-93382439D01*
X159346140Y-93382443D01*
X159343206Y-93383938D01*
X159017207Y-93595643D01*
X158715124Y-93840266D01*
X158440266Y-94115124D01*
X158195643Y-94417207D01*
X157983938Y-94743206D01*
X157807468Y-95089547D01*
X157668167Y-95452438D01*
X157567562Y-95827901D01*
X157506754Y-96211824D01*
X157486411Y-96600000D01*
X104913589Y-96600000D01*
X104893246Y-96211824D01*
X104832438Y-95827901D01*
X104731833Y-95452438D01*
X104592532Y-95089547D01*
X104416062Y-94743206D01*
X104204357Y-94417207D01*
X103959734Y-94115124D01*
X103684876Y-93840266D01*
X103382793Y-93595643D01*
X103056795Y-93383938D01*
X103053861Y-93382443D01*
X103053854Y-93382439D01*
X102713393Y-93208966D01*
X102710453Y-93207468D01*
X102347562Y-93068167D01*
X101972099Y-92967562D01*
X101768207Y-92935268D01*
X101591424Y-92907268D01*
X101591416Y-92907267D01*
X101588176Y-92906754D01*
X101200000Y-92886411D01*
X100811824Y-92906754D01*
X100808584Y-92907267D01*
X100808576Y-92907268D01*
X100631793Y-92935268D01*
X100427901Y-92967562D01*
X100052438Y-93068167D01*
X99689547Y-93207468D01*
X99686607Y-93208966D01*
X99346147Y-93382439D01*
X99346140Y-93382443D01*
X99343206Y-93383938D01*
X99017207Y-93595643D01*
X98715124Y-93840266D01*
X98440266Y-94115124D01*
X98195643Y-94417207D01*
X97983938Y-94743206D01*
X97807468Y-95089547D01*
X97668167Y-95452438D01*
X97567562Y-95827901D01*
X97506754Y-96211824D01*
X97486411Y-96600000D01*
X76708500Y-96600000D01*
X76708500Y-89032703D01*
X232840743Y-89032703D01*
X232878268Y-89317734D01*
X232954129Y-89595036D01*
X233066923Y-89859476D01*
X233214561Y-90106161D01*
X233394313Y-90330528D01*
X233602851Y-90528423D01*
X233836317Y-90696186D01*
X233840112Y-90698195D01*
X233840113Y-90698196D01*
X233861869Y-90709715D01*
X234090392Y-90830712D01*
X234360373Y-90929511D01*
X234641264Y-90990755D01*
X234669841Y-90993004D01*
X234864282Y-91008307D01*
X234864291Y-91008307D01*
X234866739Y-91008500D01*
X235022271Y-91008500D01*
X235024407Y-91008354D01*
X235024418Y-91008354D01*
X235232548Y-90994165D01*
X235232554Y-90994164D01*
X235236825Y-90993873D01*
X235241020Y-90993004D01*
X235241022Y-90993004D01*
X235377584Y-90964723D01*
X235518342Y-90935574D01*
X235789343Y-90839607D01*
X236044812Y-90707750D01*
X236048313Y-90705289D01*
X236048317Y-90705287D01*
X236162418Y-90625095D01*
X236280023Y-90542441D01*
X236490622Y-90346740D01*
X236672713Y-90124268D01*
X236822927Y-89879142D01*
X236938483Y-89615898D01*
X237017244Y-89339406D01*
X237057751Y-89054784D01*
X237057845Y-89036951D01*
X237059235Y-88771583D01*
X237059235Y-88771576D01*
X237059257Y-88767297D01*
X237021732Y-88482266D01*
X236945871Y-88204964D01*
X236833077Y-87940524D01*
X236685439Y-87693839D01*
X236505687Y-87469472D01*
X236297149Y-87271577D01*
X236063683Y-87103814D01*
X236041843Y-87092250D01*
X236018654Y-87079972D01*
X235809608Y-86969288D01*
X235539627Y-86870489D01*
X235258736Y-86809245D01*
X235227685Y-86806801D01*
X235035718Y-86791693D01*
X235035709Y-86791693D01*
X235033261Y-86791500D01*
X234877729Y-86791500D01*
X234875593Y-86791646D01*
X234875582Y-86791646D01*
X234667452Y-86805835D01*
X234667446Y-86805836D01*
X234663175Y-86806127D01*
X234658980Y-86806996D01*
X234658978Y-86806996D01*
X234522416Y-86835277D01*
X234381658Y-86864426D01*
X234110657Y-86960393D01*
X233855188Y-87092250D01*
X233851687Y-87094711D01*
X233851683Y-87094713D01*
X233841594Y-87101804D01*
X233619977Y-87257559D01*
X233409378Y-87453260D01*
X233227287Y-87675732D01*
X233077073Y-87920858D01*
X232961517Y-88184102D01*
X232882756Y-88460594D01*
X232842249Y-88745216D01*
X232842227Y-88749505D01*
X232842226Y-88749512D01*
X232840765Y-89028417D01*
X232840743Y-89032703D01*
X76708500Y-89032703D01*
X76708500Y-71200000D01*
X97486411Y-71200000D01*
X97506754Y-71588176D01*
X97567562Y-71972099D01*
X97668167Y-72347562D01*
X97807468Y-72710453D01*
X97983938Y-73056794D01*
X98195643Y-73382793D01*
X98440266Y-73684876D01*
X98715124Y-73959734D01*
X99017207Y-74204357D01*
X99343205Y-74416062D01*
X99346139Y-74417557D01*
X99346146Y-74417561D01*
X99686607Y-74591034D01*
X99689547Y-74592532D01*
X100052438Y-74731833D01*
X100427901Y-74832438D01*
X100631793Y-74864732D01*
X100808576Y-74892732D01*
X100808584Y-74892733D01*
X100811824Y-74893246D01*
X101200000Y-74913589D01*
X101588176Y-74893246D01*
X101591416Y-74892733D01*
X101591424Y-74892732D01*
X101768207Y-74864732D01*
X101972099Y-74832438D01*
X102347562Y-74731833D01*
X102710453Y-74592532D01*
X102713393Y-74591034D01*
X103053854Y-74417561D01*
X103053861Y-74417557D01*
X103056795Y-74416062D01*
X103382793Y-74204357D01*
X103684876Y-73959734D01*
X103959734Y-73684876D01*
X104204357Y-73382793D01*
X104416062Y-73056794D01*
X104592532Y-72710453D01*
X104731833Y-72347562D01*
X104832438Y-71972099D01*
X104893246Y-71588176D01*
X104913589Y-71200000D01*
X157486411Y-71200000D01*
X157506754Y-71588176D01*
X157567562Y-71972099D01*
X157668167Y-72347562D01*
X157807468Y-72710453D01*
X157983938Y-73056794D01*
X158195643Y-73382793D01*
X158440266Y-73684876D01*
X158715124Y-73959734D01*
X159017207Y-74204357D01*
X159343205Y-74416062D01*
X159346139Y-74417557D01*
X159346146Y-74417561D01*
X159686607Y-74591034D01*
X159689547Y-74592532D01*
X160052438Y-74731833D01*
X160427901Y-74832438D01*
X160631793Y-74864732D01*
X160808576Y-74892732D01*
X160808584Y-74892733D01*
X160811824Y-74893246D01*
X161200000Y-74913589D01*
X161588176Y-74893246D01*
X161591416Y-74892733D01*
X161591424Y-74892732D01*
X161768207Y-74864732D01*
X161972099Y-74832438D01*
X162347562Y-74731833D01*
X162710453Y-74592532D01*
X162713393Y-74591034D01*
X163053854Y-74417561D01*
X163053861Y-74417557D01*
X163056795Y-74416062D01*
X163382793Y-74204357D01*
X163684876Y-73959734D01*
X163959734Y-73684876D01*
X164204357Y-73382793D01*
X164416062Y-73056794D01*
X164592532Y-72710453D01*
X164731833Y-72347562D01*
X164832438Y-71972099D01*
X164893246Y-71588176D01*
X164913589Y-71200000D01*
X187486411Y-71200000D01*
X187506754Y-71588176D01*
X187567562Y-71972099D01*
X187668167Y-72347562D01*
X187807468Y-72710453D01*
X187983938Y-73056794D01*
X188195643Y-73382793D01*
X188440266Y-73684876D01*
X188715124Y-73959734D01*
X189017207Y-74204357D01*
X189343205Y-74416062D01*
X189346139Y-74417557D01*
X189346146Y-74417561D01*
X189686607Y-74591034D01*
X189689547Y-74592532D01*
X190052438Y-74731833D01*
X190427901Y-74832438D01*
X190631793Y-74864732D01*
X190808576Y-74892732D01*
X190808584Y-74892733D01*
X190811824Y-74893246D01*
X191200000Y-74913589D01*
X191588176Y-74893246D01*
X191591416Y-74892733D01*
X191591424Y-74892732D01*
X191768207Y-74864732D01*
X191972099Y-74832438D01*
X192347562Y-74731833D01*
X192710453Y-74592532D01*
X192713393Y-74591034D01*
X193053854Y-74417561D01*
X193053861Y-74417557D01*
X193056795Y-74416062D01*
X193382793Y-74204357D01*
X193684876Y-73959734D01*
X193959734Y-73684876D01*
X194204357Y-73382793D01*
X194416062Y-73056794D01*
X194592532Y-72710453D01*
X194731833Y-72347562D01*
X194832438Y-71972099D01*
X194893246Y-71588176D01*
X194913589Y-71200000D01*
X194893246Y-70811824D01*
X194832438Y-70427901D01*
X194731833Y-70052438D01*
X194592532Y-69689547D01*
X194416062Y-69343206D01*
X194204357Y-69017207D01*
X193959734Y-68715124D01*
X193684876Y-68440266D01*
X193382793Y-68195643D01*
X193056795Y-67983938D01*
X193053861Y-67982443D01*
X193053854Y-67982439D01*
X192713393Y-67808966D01*
X192710453Y-67807468D01*
X192347562Y-67668167D01*
X191972099Y-67567562D01*
X191768207Y-67535268D01*
X191591424Y-67507268D01*
X191591416Y-67507267D01*
X191588176Y-67506754D01*
X191200000Y-67486411D01*
X190811824Y-67506754D01*
X190808584Y-67507267D01*
X190808576Y-67507268D01*
X190631793Y-67535268D01*
X190427901Y-67567562D01*
X190052438Y-67668167D01*
X189689547Y-67807468D01*
X189686607Y-67808966D01*
X189346147Y-67982439D01*
X189346140Y-67982443D01*
X189343206Y-67983938D01*
X189017207Y-68195643D01*
X188715124Y-68440266D01*
X188440266Y-68715124D01*
X188195643Y-69017207D01*
X187983938Y-69343206D01*
X187807468Y-69689547D01*
X187668167Y-70052438D01*
X187567562Y-70427901D01*
X187506754Y-70811824D01*
X187486411Y-71200000D01*
X164913589Y-71200000D01*
X164893246Y-70811824D01*
X164832438Y-70427901D01*
X164731833Y-70052438D01*
X164592532Y-69689547D01*
X164416062Y-69343206D01*
X164204357Y-69017207D01*
X163959734Y-68715124D01*
X163684876Y-68440266D01*
X163382793Y-68195643D01*
X163056795Y-67983938D01*
X163053861Y-67982443D01*
X163053854Y-67982439D01*
X162713393Y-67808966D01*
X162710453Y-67807468D01*
X162347562Y-67668167D01*
X161972099Y-67567562D01*
X161768207Y-67535268D01*
X161591424Y-67507268D01*
X161591416Y-67507267D01*
X161588176Y-67506754D01*
X161200000Y-67486411D01*
X160811824Y-67506754D01*
X160808584Y-67507267D01*
X160808576Y-67507268D01*
X160631793Y-67535268D01*
X160427901Y-67567562D01*
X160052438Y-67668167D01*
X159689547Y-67807468D01*
X159686607Y-67808966D01*
X159346147Y-67982439D01*
X159346140Y-67982443D01*
X159343206Y-67983938D01*
X159017207Y-68195643D01*
X158715124Y-68440266D01*
X158440266Y-68715124D01*
X158195643Y-69017207D01*
X157983938Y-69343206D01*
X157807468Y-69689547D01*
X157668167Y-70052438D01*
X157567562Y-70427901D01*
X157506754Y-70811824D01*
X157486411Y-71200000D01*
X104913589Y-71200000D01*
X104893246Y-70811824D01*
X104832438Y-70427901D01*
X104731833Y-70052438D01*
X104592532Y-69689547D01*
X104416062Y-69343206D01*
X104204357Y-69017207D01*
X103959734Y-68715124D01*
X103684876Y-68440266D01*
X103382793Y-68195643D01*
X103056795Y-67983938D01*
X103053861Y-67982443D01*
X103053854Y-67982439D01*
X102713393Y-67808966D01*
X102710453Y-67807468D01*
X102347562Y-67668167D01*
X101972099Y-67567562D01*
X101768207Y-67535268D01*
X101591424Y-67507268D01*
X101591416Y-67507267D01*
X101588176Y-67506754D01*
X101200000Y-67486411D01*
X100811824Y-67506754D01*
X100808584Y-67507267D01*
X100808576Y-67507268D01*
X100631793Y-67535268D01*
X100427901Y-67567562D01*
X100052438Y-67668167D01*
X99689547Y-67807468D01*
X99686607Y-67808966D01*
X99346147Y-67982439D01*
X99346140Y-67982443D01*
X99343206Y-67983938D01*
X99017207Y-68195643D01*
X98715124Y-68440266D01*
X98440266Y-68715124D01*
X98195643Y-69017207D01*
X97983938Y-69343206D01*
X97807468Y-69689547D01*
X97668167Y-70052438D01*
X97567562Y-70427901D01*
X97506754Y-70811824D01*
X97486411Y-71200000D01*
X76708500Y-71200000D01*
X76708500Y-57282703D01*
X232840743Y-57282703D01*
X232878268Y-57567734D01*
X232954129Y-57845036D01*
X233066923Y-58109476D01*
X233214561Y-58356161D01*
X233394313Y-58580528D01*
X233602851Y-58778423D01*
X233836317Y-58946186D01*
X233840112Y-58948195D01*
X233840113Y-58948196D01*
X233861869Y-58959715D01*
X234090392Y-59080712D01*
X234360373Y-59179511D01*
X234641264Y-59240755D01*
X234669841Y-59243004D01*
X234864282Y-59258307D01*
X234864291Y-59258307D01*
X234866739Y-59258500D01*
X235022271Y-59258500D01*
X235024407Y-59258354D01*
X235024418Y-59258354D01*
X235232548Y-59244165D01*
X235232554Y-59244164D01*
X235236825Y-59243873D01*
X235241020Y-59243004D01*
X235241022Y-59243004D01*
X235377584Y-59214723D01*
X235518342Y-59185574D01*
X235789343Y-59089607D01*
X236044812Y-58957750D01*
X236048313Y-58955289D01*
X236048317Y-58955287D01*
X236162417Y-58875096D01*
X236280023Y-58792441D01*
X236490622Y-58596740D01*
X236672713Y-58374268D01*
X236822927Y-58129142D01*
X236938483Y-57865898D01*
X237017244Y-57589406D01*
X237057751Y-57304784D01*
X237057845Y-57286951D01*
X237059235Y-57021583D01*
X237059235Y-57021576D01*
X237059257Y-57017297D01*
X237021732Y-56732266D01*
X236945871Y-56454964D01*
X236833077Y-56190524D01*
X236685439Y-55943839D01*
X236505687Y-55719472D01*
X236297149Y-55521577D01*
X236063683Y-55353814D01*
X236041843Y-55342250D01*
X236018654Y-55329972D01*
X235809608Y-55219288D01*
X235539627Y-55120489D01*
X235258736Y-55059245D01*
X235227685Y-55056801D01*
X235035718Y-55041693D01*
X235035709Y-55041693D01*
X235033261Y-55041500D01*
X234877729Y-55041500D01*
X234875593Y-55041646D01*
X234875582Y-55041646D01*
X234667452Y-55055835D01*
X234667446Y-55055836D01*
X234663175Y-55056127D01*
X234658980Y-55056996D01*
X234658978Y-55056996D01*
X234522417Y-55085276D01*
X234381658Y-55114426D01*
X234110657Y-55210393D01*
X233855188Y-55342250D01*
X233851687Y-55344711D01*
X233851683Y-55344713D01*
X233841594Y-55351804D01*
X233619977Y-55507559D01*
X233409378Y-55703260D01*
X233227287Y-55925732D01*
X233077073Y-56170858D01*
X232961517Y-56434102D01*
X232882756Y-56710594D01*
X232842249Y-56995216D01*
X232842227Y-56999505D01*
X232842226Y-56999512D01*
X232840765Y-57278417D01*
X232840743Y-57282703D01*
X76708500Y-57282703D01*
X76708500Y-51434500D01*
X76728502Y-51366379D01*
X76782158Y-51319886D01*
X76834500Y-51308500D01*
X240665500Y-51308500D01*
X240733621Y-51328502D01*
G37*
%TD.AperFunction*%
M02*
