%TF.GenerationSoftware,KiCad,Pcbnew,(6.0.5)*%
%TF.CreationDate,2023-01-19T15:07:06-05:00*%
%TF.ProjectId,floppy_bracket,666c6f70-7079-45f6-9272-61636b65742e,rev?*%
%TF.SameCoordinates,Original*%
%TF.FileFunction,Legend,Bot*%
%TF.FilePolarity,Positive*%
%FSLAX46Y46*%
G04 Gerber Fmt 4.6, Leading zero omitted, Abs format (unit mm)*
G04 Created by KiCad (PCBNEW (6.0.5)) date 2023-01-19 15:07:06*
%MOMM*%
%LPD*%
G01*
G04 APERTURE LIST*
%ADD10C,0.300000*%
G04 APERTURE END LIST*
D10*
X144278571Y-99077857D02*
X144778571Y-99077857D01*
X144778571Y-99863571D02*
X144778571Y-98363571D01*
X144064285Y-98363571D01*
X143278571Y-99863571D02*
X143421428Y-99792142D01*
X143492857Y-99649285D01*
X143492857Y-98363571D01*
X142492857Y-99863571D02*
X142635714Y-99792142D01*
X142707142Y-99720714D01*
X142778571Y-99577857D01*
X142778571Y-99149285D01*
X142707142Y-99006428D01*
X142635714Y-98935000D01*
X142492857Y-98863571D01*
X142278571Y-98863571D01*
X142135714Y-98935000D01*
X142064285Y-99006428D01*
X141992857Y-99149285D01*
X141992857Y-99577857D01*
X142064285Y-99720714D01*
X142135714Y-99792142D01*
X142278571Y-99863571D01*
X142492857Y-99863571D01*
X141350000Y-98863571D02*
X141350000Y-100363571D01*
X141350000Y-98935000D02*
X141207142Y-98863571D01*
X140921428Y-98863571D01*
X140778571Y-98935000D01*
X140707142Y-99006428D01*
X140635714Y-99149285D01*
X140635714Y-99577857D01*
X140707142Y-99720714D01*
X140778571Y-99792142D01*
X140921428Y-99863571D01*
X141207142Y-99863571D01*
X141350000Y-99792142D01*
X139992857Y-98863571D02*
X139992857Y-100363571D01*
X139992857Y-98935000D02*
X139850000Y-98863571D01*
X139564285Y-98863571D01*
X139421428Y-98935000D01*
X139350000Y-99006428D01*
X139278571Y-99149285D01*
X139278571Y-99577857D01*
X139350000Y-99720714D01*
X139421428Y-99792142D01*
X139564285Y-99863571D01*
X139850000Y-99863571D01*
X139992857Y-99792142D01*
X138778571Y-98863571D02*
X138421428Y-99863571D01*
X138064285Y-98863571D02*
X138421428Y-99863571D01*
X138564285Y-100220714D01*
X138635714Y-100292142D01*
X138778571Y-100363571D01*
X136350000Y-99863571D02*
X136350000Y-98363571D01*
X135992857Y-98363571D01*
X135778571Y-98435000D01*
X135635714Y-98577857D01*
X135564285Y-98720714D01*
X135492857Y-99006428D01*
X135492857Y-99220714D01*
X135564285Y-99506428D01*
X135635714Y-99649285D01*
X135778571Y-99792142D01*
X135992857Y-99863571D01*
X136350000Y-99863571D01*
X134850000Y-99863571D02*
X134850000Y-98863571D01*
X134850000Y-99149285D02*
X134778571Y-99006428D01*
X134707142Y-98935000D01*
X134564285Y-98863571D01*
X134421428Y-98863571D01*
X133921428Y-99863571D02*
X133921428Y-98863571D01*
X133921428Y-98363571D02*
X133992857Y-98435000D01*
X133921428Y-98506428D01*
X133850000Y-98435000D01*
X133921428Y-98363571D01*
X133921428Y-98506428D01*
X133350000Y-98863571D02*
X132992857Y-99863571D01*
X132635714Y-98863571D01*
X131492857Y-99792142D02*
X131635714Y-99863571D01*
X131921428Y-99863571D01*
X132064285Y-99792142D01*
X132135714Y-99649285D01*
X132135714Y-99077857D01*
X132064285Y-98935000D01*
X131921428Y-98863571D01*
X131635714Y-98863571D01*
X131492857Y-98935000D01*
X131421428Y-99077857D01*
X131421428Y-99220714D01*
X132135714Y-99363571D01*
X129135714Y-99077857D02*
X128921428Y-99149285D01*
X128850000Y-99220714D01*
X128778571Y-99363571D01*
X128778571Y-99577857D01*
X128850000Y-99720714D01*
X128921428Y-99792142D01*
X129064285Y-99863571D01*
X129635714Y-99863571D01*
X129635714Y-98363571D01*
X129135714Y-98363571D01*
X128992857Y-98435000D01*
X128921428Y-98506428D01*
X128850000Y-98649285D01*
X128850000Y-98792142D01*
X128921428Y-98935000D01*
X128992857Y-99006428D01*
X129135714Y-99077857D01*
X129635714Y-99077857D01*
X128135714Y-99863571D02*
X128135714Y-98863571D01*
X128135714Y-99149285D02*
X128064285Y-99006428D01*
X127992857Y-98935000D01*
X127850000Y-98863571D01*
X127707142Y-98863571D01*
X126564285Y-99863571D02*
X126564285Y-99077857D01*
X126635714Y-98935000D01*
X126778571Y-98863571D01*
X127064285Y-98863571D01*
X127207142Y-98935000D01*
X126564285Y-99792142D02*
X126707142Y-99863571D01*
X127064285Y-99863571D01*
X127207142Y-99792142D01*
X127278571Y-99649285D01*
X127278571Y-99506428D01*
X127207142Y-99363571D01*
X127064285Y-99292142D01*
X126707142Y-99292142D01*
X126564285Y-99220714D01*
X125207142Y-99792142D02*
X125350000Y-99863571D01*
X125635714Y-99863571D01*
X125778571Y-99792142D01*
X125850000Y-99720714D01*
X125921428Y-99577857D01*
X125921428Y-99149285D01*
X125850000Y-99006428D01*
X125778571Y-98935000D01*
X125635714Y-98863571D01*
X125350000Y-98863571D01*
X125207142Y-98935000D01*
X124564285Y-99863571D02*
X124564285Y-98363571D01*
X124421428Y-99292142D02*
X123992857Y-99863571D01*
X123992857Y-98863571D02*
X124564285Y-99435000D01*
X122778571Y-99792142D02*
X122921428Y-99863571D01*
X123207142Y-99863571D01*
X123350000Y-99792142D01*
X123421428Y-99649285D01*
X123421428Y-99077857D01*
X123350000Y-98935000D01*
X123207142Y-98863571D01*
X122921428Y-98863571D01*
X122778571Y-98935000D01*
X122707142Y-99077857D01*
X122707142Y-99220714D01*
X123421428Y-99363571D01*
X122278571Y-98863571D02*
X121707142Y-98863571D01*
X122064285Y-98363571D02*
X122064285Y-99649285D01*
X121992857Y-99792142D01*
X121850000Y-99863571D01*
X121707142Y-99863571D01*
X151278571Y-102278571D02*
X151278571Y-100778571D01*
X150778571Y-101850000D01*
X150278571Y-100778571D01*
X150278571Y-102278571D01*
X148921428Y-102278571D02*
X148921428Y-101492857D01*
X148992857Y-101350000D01*
X149135714Y-101278571D01*
X149421428Y-101278571D01*
X149564285Y-101350000D01*
X148921428Y-102207142D02*
X149064285Y-102278571D01*
X149421428Y-102278571D01*
X149564285Y-102207142D01*
X149635714Y-102064285D01*
X149635714Y-101921428D01*
X149564285Y-101778571D01*
X149421428Y-101707142D01*
X149064285Y-101707142D01*
X148921428Y-101635714D01*
X148350000Y-102278571D02*
X147564285Y-101278571D01*
X148350000Y-101278571D02*
X147564285Y-102278571D01*
X145850000Y-102278571D02*
X145850000Y-100778571D01*
X145278571Y-100778571D01*
X145135714Y-100850000D01*
X145064285Y-100921428D01*
X144992857Y-101064285D01*
X144992857Y-101278571D01*
X145064285Y-101421428D01*
X145135714Y-101492857D01*
X145278571Y-101564285D01*
X145850000Y-101564285D01*
X144350000Y-102278571D02*
X144350000Y-101278571D01*
X144350000Y-101564285D02*
X144278571Y-101421428D01*
X144207142Y-101350000D01*
X144064285Y-101278571D01*
X143921428Y-101278571D01*
X143207142Y-102278571D02*
X143350000Y-102207142D01*
X143421428Y-102135714D01*
X143492857Y-101992857D01*
X143492857Y-101564285D01*
X143421428Y-101421428D01*
X143350000Y-101350000D01*
X143207142Y-101278571D01*
X142992857Y-101278571D01*
X142850000Y-101350000D01*
X142778571Y-101421428D01*
X142707142Y-101564285D01*
X142707142Y-101992857D01*
X142778571Y-102135714D01*
X142850000Y-102207142D01*
X142992857Y-102278571D01*
X143207142Y-102278571D01*
X142135714Y-102207142D02*
X141992857Y-102278571D01*
X141707142Y-102278571D01*
X141564285Y-102207142D01*
X141492857Y-102064285D01*
X141492857Y-101992857D01*
X141564285Y-101850000D01*
X141707142Y-101778571D01*
X141921428Y-101778571D01*
X142064285Y-101707142D01*
X142135714Y-101564285D01*
X142135714Y-101492857D01*
X142064285Y-101350000D01*
X141921428Y-101278571D01*
X141707142Y-101278571D01*
X141564285Y-101350000D01*
X140850000Y-102278571D02*
X140850000Y-100778571D01*
X140707142Y-101707142D02*
X140278571Y-102278571D01*
X140278571Y-101278571D02*
X140850000Y-101850000D01*
X138992857Y-102278571D02*
X138992857Y-101492857D01*
X139064285Y-101350000D01*
X139207142Y-101278571D01*
X139492857Y-101278571D01*
X139635714Y-101350000D01*
X138992857Y-102207142D02*
X139135714Y-102278571D01*
X139492857Y-102278571D01*
X139635714Y-102207142D01*
X139707142Y-102064285D01*
X139707142Y-101921428D01*
X139635714Y-101778571D01*
X139492857Y-101707142D01*
X139135714Y-101707142D01*
X138992857Y-101635714D01*
X137635714Y-101278571D02*
X137635714Y-102278571D01*
X138278571Y-101278571D02*
X138278571Y-102064285D01*
X138207142Y-102207142D01*
X138064285Y-102278571D01*
X137850000Y-102278571D01*
X137707142Y-102207142D01*
X137635714Y-102135714D01*
X136350000Y-102207142D02*
X136492857Y-102278571D01*
X136778571Y-102278571D01*
X136921428Y-102207142D01*
X136992857Y-102064285D01*
X136992857Y-101492857D01*
X136921428Y-101350000D01*
X136778571Y-101278571D01*
X136492857Y-101278571D01*
X136350000Y-101350000D01*
X136278571Y-101492857D01*
X136278571Y-101635714D01*
X136992857Y-101778571D01*
X135635714Y-102278571D02*
X135635714Y-101278571D01*
X135635714Y-101564285D02*
X135564285Y-101421428D01*
X135492857Y-101350000D01*
X135350000Y-101278571D01*
X135207142Y-101278571D01*
X132564285Y-101278571D02*
X132207142Y-102278571D01*
X131850000Y-101278571D01*
X130992857Y-100778571D02*
X130850000Y-100778571D01*
X130707142Y-100850000D01*
X130635714Y-100921428D01*
X130564285Y-101064285D01*
X130492857Y-101350000D01*
X130492857Y-101707142D01*
X130564285Y-101992857D01*
X130635714Y-102135714D01*
X130707142Y-102207142D01*
X130850000Y-102278571D01*
X130992857Y-102278571D01*
X131135714Y-102207142D01*
X131207142Y-102135714D01*
X131278571Y-101992857D01*
X131350000Y-101707142D01*
X131350000Y-101350000D01*
X131278571Y-101064285D01*
X131207142Y-100921428D01*
X131135714Y-100850000D01*
X130992857Y-100778571D01*
X129850000Y-102135714D02*
X129778571Y-102207142D01*
X129850000Y-102278571D01*
X129921428Y-102207142D01*
X129850000Y-102135714D01*
X129850000Y-102278571D01*
X128350000Y-102278571D02*
X129207142Y-102278571D01*
X128778571Y-102278571D02*
X128778571Y-100778571D01*
X128921428Y-100992857D01*
X129064285Y-101135714D01*
X129207142Y-101207142D01*
X124992857Y-100778571D02*
X124992857Y-101850000D01*
X125064285Y-102064285D01*
X125207142Y-102207142D01*
X125421428Y-102278571D01*
X125564285Y-102278571D01*
X123635714Y-102278571D02*
X123635714Y-101492857D01*
X123707142Y-101350000D01*
X123850000Y-101278571D01*
X124135714Y-101278571D01*
X124278571Y-101350000D01*
X123635714Y-102207142D02*
X123778571Y-102278571D01*
X124135714Y-102278571D01*
X124278571Y-102207142D01*
X124350000Y-102064285D01*
X124350000Y-101921428D01*
X124278571Y-101778571D01*
X124135714Y-101707142D01*
X123778571Y-101707142D01*
X123635714Y-101635714D01*
X122921428Y-101278571D02*
X122921428Y-102278571D01*
X122921428Y-101421428D02*
X122850000Y-101350000D01*
X122707142Y-101278571D01*
X122492857Y-101278571D01*
X122350000Y-101350000D01*
X122278571Y-101492857D01*
X122278571Y-102278571D01*
X120492857Y-100921428D02*
X120421428Y-100850000D01*
X120278571Y-100778571D01*
X119921428Y-100778571D01*
X119778571Y-100850000D01*
X119707142Y-100921428D01*
X119635714Y-101064285D01*
X119635714Y-101207142D01*
X119707142Y-101421428D01*
X120564285Y-102278571D01*
X119635714Y-102278571D01*
X118707142Y-100778571D02*
X118564285Y-100778571D01*
X118421428Y-100850000D01*
X118350000Y-100921428D01*
X118278571Y-101064285D01*
X118207142Y-101350000D01*
X118207142Y-101707142D01*
X118278571Y-101992857D01*
X118350000Y-102135714D01*
X118421428Y-102207142D01*
X118564285Y-102278571D01*
X118707142Y-102278571D01*
X118850000Y-102207142D01*
X118921428Y-102135714D01*
X118992857Y-101992857D01*
X119064285Y-101707142D01*
X119064285Y-101350000D01*
X118992857Y-101064285D01*
X118921428Y-100921428D01*
X118850000Y-100850000D01*
X118707142Y-100778571D01*
X117635714Y-100921428D02*
X117564285Y-100850000D01*
X117421428Y-100778571D01*
X117064285Y-100778571D01*
X116921428Y-100850000D01*
X116850000Y-100921428D01*
X116778571Y-101064285D01*
X116778571Y-101207142D01*
X116850000Y-101421428D01*
X117707142Y-102278571D01*
X116778571Y-102278571D01*
X116278571Y-100778571D02*
X115350000Y-100778571D01*
X115850000Y-101350000D01*
X115635714Y-101350000D01*
X115492857Y-101421428D01*
X115421428Y-101492857D01*
X115350000Y-101635714D01*
X115350000Y-101992857D01*
X115421428Y-102135714D01*
X115492857Y-102207142D01*
X115635714Y-102278571D01*
X116064285Y-102278571D01*
X116207142Y-102207142D01*
X116278571Y-102135714D01*
X156385714Y-103693571D02*
X156385714Y-104907857D01*
X156457142Y-105050714D01*
X156528571Y-105122142D01*
X156671428Y-105193571D01*
X156885714Y-105193571D01*
X157028571Y-105122142D01*
X156385714Y-104622142D02*
X156528571Y-104693571D01*
X156814285Y-104693571D01*
X156957142Y-104622142D01*
X157028571Y-104550714D01*
X157100000Y-104407857D01*
X157100000Y-103979285D01*
X157028571Y-103836428D01*
X156957142Y-103765000D01*
X156814285Y-103693571D01*
X156528571Y-103693571D01*
X156385714Y-103765000D01*
X155671428Y-104693571D02*
X155671428Y-103693571D01*
X155671428Y-103193571D02*
X155742857Y-103265000D01*
X155671428Y-103336428D01*
X155600000Y-103265000D01*
X155671428Y-103193571D01*
X155671428Y-103336428D01*
X155171428Y-103693571D02*
X154600000Y-103693571D01*
X154957142Y-103193571D02*
X154957142Y-104479285D01*
X154885714Y-104622142D01*
X154742857Y-104693571D01*
X154600000Y-104693571D01*
X154100000Y-104693571D02*
X154100000Y-103193571D01*
X153457142Y-104693571D02*
X153457142Y-103907857D01*
X153528571Y-103765000D01*
X153671428Y-103693571D01*
X153885714Y-103693571D01*
X154028571Y-103765000D01*
X154100000Y-103836428D01*
X152100000Y-103693571D02*
X152100000Y-104693571D01*
X152742857Y-103693571D02*
X152742857Y-104479285D01*
X152671428Y-104622142D01*
X152528571Y-104693571D01*
X152314285Y-104693571D01*
X152171428Y-104622142D01*
X152100000Y-104550714D01*
X151385714Y-104693571D02*
X151385714Y-103193571D01*
X151385714Y-103765000D02*
X151242857Y-103693571D01*
X150957142Y-103693571D01*
X150814285Y-103765000D01*
X150742857Y-103836428D01*
X150671428Y-103979285D01*
X150671428Y-104407857D01*
X150742857Y-104550714D01*
X150814285Y-104622142D01*
X150957142Y-104693571D01*
X151242857Y-104693571D01*
X151385714Y-104622142D01*
X150028571Y-104550714D02*
X149957142Y-104622142D01*
X150028571Y-104693571D01*
X150100000Y-104622142D01*
X150028571Y-104550714D01*
X150028571Y-104693571D01*
X148671428Y-104622142D02*
X148814285Y-104693571D01*
X149100000Y-104693571D01*
X149242857Y-104622142D01*
X149314285Y-104550714D01*
X149385714Y-104407857D01*
X149385714Y-103979285D01*
X149314285Y-103836428D01*
X149242857Y-103765000D01*
X149100000Y-103693571D01*
X148814285Y-103693571D01*
X148671428Y-103765000D01*
X147814285Y-104693571D02*
X147957142Y-104622142D01*
X148028571Y-104550714D01*
X148100000Y-104407857D01*
X148100000Y-103979285D01*
X148028571Y-103836428D01*
X147957142Y-103765000D01*
X147814285Y-103693571D01*
X147600000Y-103693571D01*
X147457142Y-103765000D01*
X147385714Y-103836428D01*
X147314285Y-103979285D01*
X147314285Y-104407857D01*
X147385714Y-104550714D01*
X147457142Y-104622142D01*
X147600000Y-104693571D01*
X147814285Y-104693571D01*
X146671428Y-104693571D02*
X146671428Y-103693571D01*
X146671428Y-103836428D02*
X146600000Y-103765000D01*
X146457142Y-103693571D01*
X146242857Y-103693571D01*
X146100000Y-103765000D01*
X146028571Y-103907857D01*
X146028571Y-104693571D01*
X146028571Y-103907857D02*
X145957142Y-103765000D01*
X145814285Y-103693571D01*
X145600000Y-103693571D01*
X145457142Y-103765000D01*
X145385714Y-103907857D01*
X145385714Y-104693571D01*
X143600000Y-103122142D02*
X144885714Y-105050714D01*
X143100000Y-104693571D02*
X143100000Y-103693571D01*
X143100000Y-103836428D02*
X143028571Y-103765000D01*
X142885714Y-103693571D01*
X142671428Y-103693571D01*
X142528571Y-103765000D01*
X142457142Y-103907857D01*
X142457142Y-104693571D01*
X142457142Y-103907857D02*
X142385714Y-103765000D01*
X142242857Y-103693571D01*
X142028571Y-103693571D01*
X141885714Y-103765000D01*
X141814285Y-103907857D01*
X141814285Y-104693571D01*
X141100000Y-103693571D02*
X141100000Y-105193571D01*
X141100000Y-103765000D02*
X140957142Y-103693571D01*
X140671428Y-103693571D01*
X140528571Y-103765000D01*
X140457142Y-103836428D01*
X140385714Y-103979285D01*
X140385714Y-104407857D01*
X140457142Y-104550714D01*
X140528571Y-104622142D01*
X140671428Y-104693571D01*
X140957142Y-104693571D01*
X141100000Y-104622142D01*
X139742857Y-104693571D02*
X139742857Y-103693571D01*
X139742857Y-103979285D02*
X139671428Y-103836428D01*
X139600000Y-103765000D01*
X139457142Y-103693571D01*
X139314285Y-103693571D01*
X138600000Y-104693571D02*
X138742857Y-104622142D01*
X138814285Y-104550714D01*
X138885714Y-104407857D01*
X138885714Y-103979285D01*
X138814285Y-103836428D01*
X138742857Y-103765000D01*
X138600000Y-103693571D01*
X138385714Y-103693571D01*
X138242857Y-103765000D01*
X138171428Y-103836428D01*
X138100000Y-103979285D01*
X138100000Y-104407857D01*
X138171428Y-104550714D01*
X138242857Y-104622142D01*
X138385714Y-104693571D01*
X138600000Y-104693571D01*
X137528571Y-104622142D02*
X137385714Y-104693571D01*
X137100000Y-104693571D01*
X136957142Y-104622142D01*
X136885714Y-104479285D01*
X136885714Y-104407857D01*
X136957142Y-104265000D01*
X137100000Y-104193571D01*
X137314285Y-104193571D01*
X137457142Y-104122142D01*
X137528571Y-103979285D01*
X137528571Y-103907857D01*
X137457142Y-103765000D01*
X137314285Y-103693571D01*
X137100000Y-103693571D01*
X136957142Y-103765000D01*
X136242857Y-104693571D02*
X136242857Y-103193571D01*
X136100000Y-104122142D02*
X135671428Y-104693571D01*
X135671428Y-103693571D02*
X136242857Y-104265000D01*
X133957142Y-103122142D02*
X135242857Y-105050714D01*
X133457142Y-104693571D02*
X133457142Y-103693571D01*
X133457142Y-103836428D02*
X133385714Y-103765000D01*
X133242857Y-103693571D01*
X133028571Y-103693571D01*
X132885714Y-103765000D01*
X132814285Y-103907857D01*
X132814285Y-104693571D01*
X132814285Y-103907857D02*
X132742857Y-103765000D01*
X132600000Y-103693571D01*
X132385714Y-103693571D01*
X132242857Y-103765000D01*
X132171428Y-103907857D01*
X132171428Y-104693571D01*
X130814285Y-103693571D02*
X130814285Y-104693571D01*
X131457142Y-103693571D02*
X131457142Y-104479285D01*
X131385714Y-104622142D01*
X131242857Y-104693571D01*
X131028571Y-104693571D01*
X130885714Y-104622142D01*
X130814285Y-104550714D01*
X130171428Y-104622142D02*
X130028571Y-104693571D01*
X129742857Y-104693571D01*
X129600000Y-104622142D01*
X129528571Y-104479285D01*
X129528571Y-104407857D01*
X129600000Y-104265000D01*
X129742857Y-104193571D01*
X129957142Y-104193571D01*
X130100000Y-104122142D01*
X130171428Y-103979285D01*
X130171428Y-103907857D01*
X130100000Y-103765000D01*
X129957142Y-103693571D01*
X129742857Y-103693571D01*
X129600000Y-103765000D01*
X128885714Y-104693571D02*
X128885714Y-103693571D01*
X128885714Y-103193571D02*
X128957142Y-103265000D01*
X128885714Y-103336428D01*
X128814285Y-103265000D01*
X128885714Y-103193571D01*
X128885714Y-103336428D01*
X127528571Y-104622142D02*
X127671428Y-104693571D01*
X127957142Y-104693571D01*
X128100000Y-104622142D01*
X128171428Y-104550714D01*
X128242857Y-104407857D01*
X128242857Y-103979285D01*
X128171428Y-103836428D01*
X128100000Y-103765000D01*
X127957142Y-103693571D01*
X127671428Y-103693571D01*
X127528571Y-103765000D01*
X126242857Y-104693571D02*
X126242857Y-103907857D01*
X126314285Y-103765000D01*
X126457142Y-103693571D01*
X126742857Y-103693571D01*
X126885714Y-103765000D01*
X126242857Y-104622142D02*
X126385714Y-104693571D01*
X126742857Y-104693571D01*
X126885714Y-104622142D01*
X126957142Y-104479285D01*
X126957142Y-104336428D01*
X126885714Y-104193571D01*
X126742857Y-104122142D01*
X126385714Y-104122142D01*
X126242857Y-104050714D01*
X125314285Y-104693571D02*
X125457142Y-104622142D01*
X125528571Y-104479285D01*
X125528571Y-103193571D01*
X125100000Y-104836428D02*
X123957142Y-104836428D01*
X123814285Y-103693571D02*
X123242857Y-103693571D01*
X123600000Y-104693571D02*
X123600000Y-103407857D01*
X123528571Y-103265000D01*
X123385714Y-103193571D01*
X123242857Y-103193571D01*
X122528571Y-104693571D02*
X122671428Y-104622142D01*
X122742857Y-104479285D01*
X122742857Y-103193571D01*
X121742857Y-104693571D02*
X121885714Y-104622142D01*
X121957142Y-104550714D01*
X122028571Y-104407857D01*
X122028571Y-103979285D01*
X121957142Y-103836428D01*
X121885714Y-103765000D01*
X121742857Y-103693571D01*
X121528571Y-103693571D01*
X121385714Y-103765000D01*
X121314285Y-103836428D01*
X121242857Y-103979285D01*
X121242857Y-104407857D01*
X121314285Y-104550714D01*
X121385714Y-104622142D01*
X121528571Y-104693571D01*
X121742857Y-104693571D01*
X120600000Y-103693571D02*
X120600000Y-105193571D01*
X120600000Y-103765000D02*
X120457142Y-103693571D01*
X120171428Y-103693571D01*
X120028571Y-103765000D01*
X119957142Y-103836428D01*
X119885714Y-103979285D01*
X119885714Y-104407857D01*
X119957142Y-104550714D01*
X120028571Y-104622142D01*
X120171428Y-104693571D01*
X120457142Y-104693571D01*
X120600000Y-104622142D01*
X119242857Y-103693571D02*
X119242857Y-105193571D01*
X119242857Y-103765000D02*
X119100000Y-103693571D01*
X118814285Y-103693571D01*
X118671428Y-103765000D01*
X118600000Y-103836428D01*
X118528571Y-103979285D01*
X118528571Y-104407857D01*
X118600000Y-104550714D01*
X118671428Y-104622142D01*
X118814285Y-104693571D01*
X119100000Y-104693571D01*
X119242857Y-104622142D01*
X118028571Y-103693571D02*
X117671428Y-104693571D01*
X117314285Y-103693571D02*
X117671428Y-104693571D01*
X117814285Y-105050714D01*
X117885714Y-105122142D01*
X118028571Y-105193571D01*
X117100000Y-104836428D02*
X115957142Y-104836428D01*
X114957142Y-104693571D02*
X114957142Y-103193571D01*
X114957142Y-104622142D02*
X115100000Y-104693571D01*
X115385714Y-104693571D01*
X115528571Y-104622142D01*
X115600000Y-104550714D01*
X115671428Y-104407857D01*
X115671428Y-103979285D01*
X115600000Y-103836428D01*
X115528571Y-103765000D01*
X115385714Y-103693571D01*
X115100000Y-103693571D01*
X114957142Y-103765000D01*
X114242857Y-104693571D02*
X114242857Y-103693571D01*
X114242857Y-103979285D02*
X114171428Y-103836428D01*
X114100000Y-103765000D01*
X113957142Y-103693571D01*
X113814285Y-103693571D01*
X113314285Y-104693571D02*
X113314285Y-103693571D01*
X113314285Y-103193571D02*
X113385714Y-103265000D01*
X113314285Y-103336428D01*
X113242857Y-103265000D01*
X113314285Y-103193571D01*
X113314285Y-103336428D01*
X112742857Y-103693571D02*
X112385714Y-104693571D01*
X112028571Y-103693571D01*
X110885714Y-104622142D02*
X111028571Y-104693571D01*
X111314285Y-104693571D01*
X111457142Y-104622142D01*
X111528571Y-104479285D01*
X111528571Y-103907857D01*
X111457142Y-103765000D01*
X111314285Y-103693571D01*
X111028571Y-103693571D01*
X110885714Y-103765000D01*
X110814285Y-103907857D01*
X110814285Y-104050714D01*
X111528571Y-104193571D01*
X110242857Y-104622142D02*
X110100000Y-104693571D01*
X109814285Y-104693571D01*
X109671428Y-104622142D01*
X109600000Y-104479285D01*
X109600000Y-104407857D01*
X109671428Y-104265000D01*
X109814285Y-104193571D01*
X110028571Y-104193571D01*
X110171428Y-104122142D01*
X110242857Y-103979285D01*
X110242857Y-103907857D01*
X110171428Y-103765000D01*
X110028571Y-103693571D01*
X109814285Y-103693571D01*
X109671428Y-103765000D01*
M02*
