%TF.GenerationSoftware,KiCad,Pcbnew,(6.0.5)*%
%TF.CreationDate,2023-01-19T15:07:06-05:00*%
%TF.ProjectId,floppy_bracket,666c6f70-7079-45f6-9272-61636b65742e,rev?*%
%TF.SameCoordinates,Original*%
%TF.FileFunction,Copper,L1,Top*%
%TF.FilePolarity,Positive*%
%FSLAX46Y46*%
G04 Gerber Fmt 4.6, Leading zero omitted, Abs format (unit mm)*
G04 Created by KiCad (PCBNEW (6.0.5)) date 2023-01-19 15:07:06*
%MOMM*%
%LPD*%
G01*
G04 APERTURE LIST*
%TA.AperFunction,ComponentPad*%
%ADD10C,6.400000*%
%TD*%
G04 APERTURE END LIST*
D10*
%TO.P,H2,1*%
%TO.N,N/C*%
X161200000Y-71200000D03*
%TD*%
%TO.P,H16,1*%
%TO.N,N/C*%
X234950000Y-146050000D03*
%TD*%
%TO.P,H11,1*%
%TO.N,N/C*%
X161200000Y-147400000D03*
%TD*%
%TO.P,H13,1*%
%TO.N,N/C*%
X234950000Y-57150000D03*
%TD*%
%TO.P,H6,1*%
%TO.N,N/C*%
X191200000Y-96600000D03*
%TD*%
%TO.P,H5,1*%
%TO.N,N/C*%
X161200000Y-96600000D03*
%TD*%
%TO.P,H10,1*%
%TO.N,N/C*%
X101200000Y-147400000D03*
%TD*%
%TO.P,H3,1*%
%TO.N,N/C*%
X191200000Y-71200000D03*
%TD*%
%TO.P,H7,1*%
%TO.N,N/C*%
X101200000Y-122000000D03*
%TD*%
%TO.P,H12,1*%
%TO.N,N/C*%
X191200000Y-147400000D03*
%TD*%
%TO.P,H8,1*%
%TO.N,N/C*%
X161200000Y-122000000D03*
%TD*%
%TO.P,H15,1*%
%TO.N,N/C*%
X234950000Y-88900000D03*
%TD*%
%TO.P,H4,1*%
%TO.N,N/C*%
X101200000Y-96600000D03*
%TD*%
%TO.P,H14,1*%
%TO.N,N/C*%
X234950000Y-114300000D03*
%TD*%
%TO.P,H9,1*%
%TO.N,N/C*%
X191200000Y-122000000D03*
%TD*%
%TO.P,H1,1*%
%TO.N,N/C*%
X101200000Y-71200000D03*
%TD*%
%TA.AperFunction,NonConductor*%
G36*
X240733621Y-51328502D02*
G01*
X240780114Y-51382158D01*
X240791500Y-51434500D01*
X240791500Y-151765500D01*
X240771498Y-151833621D01*
X240717842Y-151880114D01*
X240665500Y-151891500D01*
X76834500Y-151891500D01*
X76766379Y-151871498D01*
X76719886Y-151817842D01*
X76708500Y-151765500D01*
X76708500Y-147400000D01*
X97486411Y-147400000D01*
X97506754Y-147788176D01*
X97507267Y-147791416D01*
X97507268Y-147791424D01*
X97525541Y-147906794D01*
X97567562Y-148172099D01*
X97668167Y-148547562D01*
X97807468Y-148910453D01*
X97808966Y-148913393D01*
X97881706Y-149056152D01*
X97983938Y-149256794D01*
X97985734Y-149259560D01*
X97985736Y-149259563D01*
X97990930Y-149267561D01*
X98195643Y-149582793D01*
X98440266Y-149884876D01*
X98715124Y-150159734D01*
X99017207Y-150404357D01*
X99343205Y-150616062D01*
X99346139Y-150617557D01*
X99346146Y-150617561D01*
X99686607Y-150791034D01*
X99689547Y-150792532D01*
X100052438Y-150931833D01*
X100427901Y-151032438D01*
X100631793Y-151064732D01*
X100808576Y-151092732D01*
X100808584Y-151092733D01*
X100811824Y-151093246D01*
X101200000Y-151113589D01*
X101588176Y-151093246D01*
X101591416Y-151092733D01*
X101591424Y-151092732D01*
X101768207Y-151064732D01*
X101972099Y-151032438D01*
X102347562Y-150931833D01*
X102710453Y-150792532D01*
X102713393Y-150791034D01*
X103053854Y-150617561D01*
X103053861Y-150617557D01*
X103056795Y-150616062D01*
X103382793Y-150404357D01*
X103684876Y-150159734D01*
X103959734Y-149884876D01*
X104204357Y-149582793D01*
X104409070Y-149267561D01*
X104414264Y-149259563D01*
X104414266Y-149259560D01*
X104416062Y-149256794D01*
X104518295Y-149056152D01*
X104591034Y-148913393D01*
X104592532Y-148910453D01*
X104731833Y-148547562D01*
X104832438Y-148172099D01*
X104874459Y-147906794D01*
X104892732Y-147791424D01*
X104892733Y-147791416D01*
X104893246Y-147788176D01*
X104913589Y-147400000D01*
X157486411Y-147400000D01*
X157506754Y-147788176D01*
X157507267Y-147791416D01*
X157507268Y-147791424D01*
X157525541Y-147906794D01*
X157567562Y-148172099D01*
X157668167Y-148547562D01*
X157807468Y-148910453D01*
X157808966Y-148913393D01*
X157881706Y-149056152D01*
X157983938Y-149256794D01*
X157985734Y-149259560D01*
X157985736Y-149259563D01*
X157990930Y-149267561D01*
X158195643Y-149582793D01*
X158440266Y-149884876D01*
X158715124Y-150159734D01*
X159017207Y-150404357D01*
X159343205Y-150616062D01*
X159346139Y-150617557D01*
X159346146Y-150617561D01*
X159686607Y-150791034D01*
X159689547Y-150792532D01*
X160052438Y-150931833D01*
X160427901Y-151032438D01*
X160631793Y-151064732D01*
X160808576Y-151092732D01*
X160808584Y-151092733D01*
X160811824Y-151093246D01*
X161200000Y-151113589D01*
X161588176Y-151093246D01*
X161591416Y-151092733D01*
X161591424Y-151092732D01*
X161768207Y-151064732D01*
X161972099Y-151032438D01*
X162347562Y-150931833D01*
X162710453Y-150792532D01*
X162713393Y-150791034D01*
X163053854Y-150617561D01*
X163053861Y-150617557D01*
X163056795Y-150616062D01*
X163382793Y-150404357D01*
X163684876Y-150159734D01*
X163959734Y-149884876D01*
X164204357Y-149582793D01*
X164409070Y-149267561D01*
X164414264Y-149259563D01*
X164414266Y-149259560D01*
X164416062Y-149256794D01*
X164518295Y-149056152D01*
X164591034Y-148913393D01*
X164592532Y-148910453D01*
X164731833Y-148547562D01*
X164832438Y-148172099D01*
X164874459Y-147906794D01*
X164892732Y-147791424D01*
X164892733Y-147791416D01*
X164893246Y-147788176D01*
X164913589Y-147400000D01*
X187486411Y-147400000D01*
X187506754Y-147788176D01*
X187507267Y-147791416D01*
X187507268Y-147791424D01*
X187525541Y-147906794D01*
X187567562Y-148172099D01*
X187668167Y-148547562D01*
X187807468Y-148910453D01*
X187808966Y-148913393D01*
X187881706Y-149056152D01*
X187983938Y-149256794D01*
X187985734Y-149259560D01*
X187985736Y-149259563D01*
X187990930Y-149267561D01*
X188195643Y-149582793D01*
X188440266Y-149884876D01*
X188715124Y-150159734D01*
X189017207Y-150404357D01*
X189343205Y-150616062D01*
X189346139Y-150617557D01*
X189346146Y-150617561D01*
X189686607Y-150791034D01*
X189689547Y-150792532D01*
X190052438Y-150931833D01*
X190427901Y-151032438D01*
X190631793Y-151064732D01*
X190808576Y-151092732D01*
X190808584Y-151092733D01*
X190811824Y-151093246D01*
X191200000Y-151113589D01*
X191588176Y-151093246D01*
X191591416Y-151092733D01*
X191591424Y-151092732D01*
X191768207Y-151064732D01*
X191972099Y-151032438D01*
X192347562Y-150931833D01*
X192710453Y-150792532D01*
X192713393Y-150791034D01*
X193053854Y-150617561D01*
X193053861Y-150617557D01*
X193056795Y-150616062D01*
X193382793Y-150404357D01*
X193684876Y-150159734D01*
X193959734Y-149884876D01*
X194204357Y-149582793D01*
X194409070Y-149267561D01*
X194414264Y-149259563D01*
X194414266Y-149259560D01*
X194416062Y-149256794D01*
X194518295Y-149056152D01*
X194591034Y-148913393D01*
X194592532Y-148910453D01*
X194731833Y-148547562D01*
X194832438Y-148172099D01*
X194874459Y-147906794D01*
X194892732Y-147791424D01*
X194892733Y-147791416D01*
X194893246Y-147788176D01*
X194913589Y-147400000D01*
X194893246Y-147011824D01*
X194832438Y-146627901D01*
X194731833Y-146252438D01*
X194654124Y-146050000D01*
X231236411Y-146050000D01*
X231256754Y-146438176D01*
X231317562Y-146822099D01*
X231418167Y-147197562D01*
X231557468Y-147560453D01*
X231558966Y-147563393D01*
X231671823Y-147784886D01*
X231733938Y-147906794D01*
X231945643Y-148232793D01*
X232190266Y-148534876D01*
X232465124Y-148809734D01*
X232767207Y-149054357D01*
X232769970Y-149056152D01*
X232769971Y-149056152D01*
X233074405Y-149253853D01*
X233093205Y-149266062D01*
X233096139Y-149267557D01*
X233096146Y-149267561D01*
X233436607Y-149441034D01*
X233439547Y-149442532D01*
X233802438Y-149581833D01*
X234177901Y-149682438D01*
X234381793Y-149714732D01*
X234558576Y-149742732D01*
X234558584Y-149742733D01*
X234561824Y-149743246D01*
X234950000Y-149763589D01*
X235338176Y-149743246D01*
X235341416Y-149742733D01*
X235341424Y-149742732D01*
X235518207Y-149714732D01*
X235722099Y-149682438D01*
X236097562Y-149581833D01*
X236460453Y-149442532D01*
X236463393Y-149441034D01*
X236803854Y-149267561D01*
X236803861Y-149267557D01*
X236806795Y-149266062D01*
X236825596Y-149253853D01*
X237130029Y-149056152D01*
X237130030Y-149056152D01*
X237132793Y-149054357D01*
X237434876Y-148809734D01*
X237709734Y-148534876D01*
X237954357Y-148232793D01*
X238166062Y-147906794D01*
X238228178Y-147784886D01*
X238341034Y-147563393D01*
X238342532Y-147560453D01*
X238481833Y-147197562D01*
X238582438Y-146822099D01*
X238643246Y-146438176D01*
X238663589Y-146050000D01*
X238643246Y-145661824D01*
X238624925Y-145546147D01*
X238582954Y-145281162D01*
X238582438Y-145277901D01*
X238481833Y-144902438D01*
X238342532Y-144539547D01*
X238341034Y-144536607D01*
X238167561Y-144196147D01*
X238167557Y-144196140D01*
X238166062Y-144193206D01*
X238160044Y-144183938D01*
X237956152Y-143869971D01*
X237956152Y-143869970D01*
X237954357Y-143867207D01*
X237709734Y-143565124D01*
X237434876Y-143290266D01*
X237132793Y-143045643D01*
X236806795Y-142833938D01*
X236803861Y-142832443D01*
X236803854Y-142832439D01*
X236463393Y-142658966D01*
X236460453Y-142657468D01*
X236097562Y-142518167D01*
X235722099Y-142417562D01*
X235518207Y-142385268D01*
X235341424Y-142357268D01*
X235341416Y-142357267D01*
X235338176Y-142356754D01*
X234950000Y-142336411D01*
X234561824Y-142356754D01*
X234558584Y-142357267D01*
X234558576Y-142357268D01*
X234381793Y-142385268D01*
X234177901Y-142417562D01*
X233802438Y-142518167D01*
X233439547Y-142657468D01*
X233436607Y-142658966D01*
X233096147Y-142832439D01*
X233096140Y-142832443D01*
X233093206Y-142833938D01*
X232767207Y-143045643D01*
X232465124Y-143290266D01*
X232190266Y-143565124D01*
X231945643Y-143867207D01*
X231943848Y-143869970D01*
X231943848Y-143869971D01*
X231739957Y-144183938D01*
X231733938Y-144193206D01*
X231732443Y-144196140D01*
X231732439Y-144196147D01*
X231558966Y-144536607D01*
X231557468Y-144539547D01*
X231418167Y-144902438D01*
X231317562Y-145277901D01*
X231317046Y-145281162D01*
X231275076Y-145546147D01*
X231256754Y-145661824D01*
X231236411Y-146050000D01*
X194654124Y-146050000D01*
X194592532Y-145889547D01*
X194591034Y-145886607D01*
X194417561Y-145546147D01*
X194417557Y-145546140D01*
X194416062Y-145543206D01*
X194204357Y-145217207D01*
X193959734Y-144915124D01*
X193684876Y-144640266D01*
X193382793Y-144395643D01*
X193380029Y-144393848D01*
X193059564Y-144185736D01*
X193059561Y-144185734D01*
X193056795Y-144183938D01*
X193053861Y-144182443D01*
X193053854Y-144182439D01*
X192713393Y-144008966D01*
X192710453Y-144007468D01*
X192347562Y-143868167D01*
X191972099Y-143767562D01*
X191768207Y-143735268D01*
X191591424Y-143707268D01*
X191591416Y-143707267D01*
X191588176Y-143706754D01*
X191200000Y-143686411D01*
X190811824Y-143706754D01*
X190808584Y-143707267D01*
X190808576Y-143707268D01*
X190631793Y-143735268D01*
X190427901Y-143767562D01*
X190052438Y-143868167D01*
X189689547Y-144007468D01*
X189686607Y-144008966D01*
X189346147Y-144182439D01*
X189346140Y-144182443D01*
X189343206Y-144183938D01*
X189340440Y-144185734D01*
X189340437Y-144185736D01*
X189019971Y-144393848D01*
X189017207Y-144395643D01*
X188715124Y-144640266D01*
X188440266Y-144915124D01*
X188195643Y-145217207D01*
X187983938Y-145543206D01*
X187982443Y-145546140D01*
X187982439Y-145546147D01*
X187808966Y-145886607D01*
X187807468Y-145889547D01*
X187668167Y-146252438D01*
X187567562Y-146627901D01*
X187506754Y-147011824D01*
X187486411Y-147400000D01*
X164913589Y-147400000D01*
X164893246Y-147011824D01*
X164832438Y-146627901D01*
X164731833Y-146252438D01*
X164592532Y-145889547D01*
X164591034Y-145886607D01*
X164417561Y-145546147D01*
X164417557Y-145546140D01*
X164416062Y-145543206D01*
X164204357Y-145217207D01*
X163959734Y-144915124D01*
X163684876Y-144640266D01*
X163382793Y-144395643D01*
X163380029Y-144393848D01*
X163059564Y-144185736D01*
X163059561Y-144185734D01*
X163056795Y-144183938D01*
X163053861Y-144182443D01*
X163053854Y-144182439D01*
X162713393Y-144008966D01*
X162710453Y-144007468D01*
X162347562Y-143868167D01*
X161972099Y-143767562D01*
X161768207Y-143735268D01*
X161591424Y-143707268D01*
X161591416Y-143707267D01*
X161588176Y-143706754D01*
X161200000Y-143686411D01*
X160811824Y-143706754D01*
X160808584Y-143707267D01*
X160808576Y-143707268D01*
X160631793Y-143735268D01*
X160427901Y-143767562D01*
X160052438Y-143868167D01*
X159689547Y-144007468D01*
X159686607Y-144008966D01*
X159346147Y-144182439D01*
X159346140Y-144182443D01*
X159343206Y-144183938D01*
X159340440Y-144185734D01*
X159340437Y-144185736D01*
X159019971Y-144393848D01*
X159017207Y-144395643D01*
X158715124Y-144640266D01*
X158440266Y-144915124D01*
X158195643Y-145217207D01*
X157983938Y-145543206D01*
X157982443Y-145546140D01*
X157982439Y-145546147D01*
X157808966Y-145886607D01*
X157807468Y-145889547D01*
X157668167Y-146252438D01*
X157567562Y-146627901D01*
X157506754Y-147011824D01*
X157486411Y-147400000D01*
X104913589Y-147400000D01*
X104893246Y-147011824D01*
X104832438Y-146627901D01*
X104731833Y-146252438D01*
X104592532Y-145889547D01*
X104591034Y-145886607D01*
X104417561Y-145546147D01*
X104417557Y-145546140D01*
X104416062Y-145543206D01*
X104204357Y-145217207D01*
X103959734Y-144915124D01*
X103684876Y-144640266D01*
X103382793Y-144395643D01*
X103380029Y-144393848D01*
X103059564Y-144185736D01*
X103059561Y-144185734D01*
X103056795Y-144183938D01*
X103053861Y-144182443D01*
X103053854Y-144182439D01*
X102713393Y-144008966D01*
X102710453Y-144007468D01*
X102347562Y-143868167D01*
X101972099Y-143767562D01*
X101768207Y-143735268D01*
X101591424Y-143707268D01*
X101591416Y-143707267D01*
X101588176Y-143706754D01*
X101200000Y-143686411D01*
X100811824Y-143706754D01*
X100808584Y-143707267D01*
X100808576Y-143707268D01*
X100631793Y-143735268D01*
X100427901Y-143767562D01*
X100052438Y-143868167D01*
X99689547Y-144007468D01*
X99686607Y-144008966D01*
X99346147Y-144182439D01*
X99346140Y-144182443D01*
X99343206Y-144183938D01*
X99340440Y-144185734D01*
X99340437Y-144185736D01*
X99019971Y-144393848D01*
X99017207Y-144395643D01*
X98715124Y-144640266D01*
X98440266Y-144915124D01*
X98195643Y-145217207D01*
X97983938Y-145543206D01*
X97982443Y-145546140D01*
X97982439Y-145546147D01*
X97808966Y-145886607D01*
X97807468Y-145889547D01*
X97668167Y-146252438D01*
X97567562Y-146627901D01*
X97506754Y-147011824D01*
X97486411Y-147400000D01*
X76708500Y-147400000D01*
X76708500Y-122000000D01*
X97486411Y-122000000D01*
X97506754Y-122388176D01*
X97567562Y-122772099D01*
X97668167Y-123147562D01*
X97807468Y-123510453D01*
X97983938Y-123856794D01*
X98195643Y-124182793D01*
X98440266Y-124484876D01*
X98715124Y-124759734D01*
X99017207Y-125004357D01*
X99343205Y-125216062D01*
X99346139Y-125217557D01*
X99346146Y-125217561D01*
X99686607Y-125391034D01*
X99689547Y-125392532D01*
X100052438Y-125531833D01*
X100427901Y-125632438D01*
X100631793Y-125664732D01*
X100808576Y-125692732D01*
X100808584Y-125692733D01*
X100811824Y-125693246D01*
X101200000Y-125713589D01*
X101588176Y-125693246D01*
X101591416Y-125692733D01*
X101591424Y-125692732D01*
X101768207Y-125664732D01*
X101972099Y-125632438D01*
X102347562Y-125531833D01*
X102710453Y-125392532D01*
X102713393Y-125391034D01*
X103053854Y-125217561D01*
X103053861Y-125217557D01*
X103056795Y-125216062D01*
X103382793Y-125004357D01*
X103684876Y-124759734D01*
X103959734Y-124484876D01*
X104204357Y-124182793D01*
X104416062Y-123856794D01*
X104592532Y-123510453D01*
X104731833Y-123147562D01*
X104832438Y-122772099D01*
X104893246Y-122388176D01*
X104913589Y-122000000D01*
X157486411Y-122000000D01*
X157506754Y-122388176D01*
X157567562Y-122772099D01*
X157668167Y-123147562D01*
X157807468Y-123510453D01*
X157983938Y-123856794D01*
X158195643Y-124182793D01*
X158440266Y-124484876D01*
X158715124Y-124759734D01*
X159017207Y-125004357D01*
X159343205Y-125216062D01*
X159346139Y-125217557D01*
X159346146Y-125217561D01*
X159686607Y-125391034D01*
X159689547Y-125392532D01*
X160052438Y-125531833D01*
X160427901Y-125632438D01*
X160631793Y-125664732D01*
X160808576Y-125692732D01*
X160808584Y-125692733D01*
X160811824Y-125693246D01*
X161200000Y-125713589D01*
X161588176Y-125693246D01*
X161591416Y-125692733D01*
X161591424Y-125692732D01*
X161768207Y-125664732D01*
X161972099Y-125632438D01*
X162347562Y-125531833D01*
X162710453Y-125392532D01*
X162713393Y-125391034D01*
X163053854Y-125217561D01*
X163053861Y-125217557D01*
X163056795Y-125216062D01*
X163382793Y-125004357D01*
X163684876Y-124759734D01*
X163959734Y-124484876D01*
X164204357Y-124182793D01*
X164416062Y-123856794D01*
X164592532Y-123510453D01*
X164731833Y-123147562D01*
X164832438Y-122772099D01*
X164893246Y-122388176D01*
X164913589Y-122000000D01*
X187486411Y-122000000D01*
X187506754Y-122388176D01*
X187567562Y-122772099D01*
X187668167Y-123147562D01*
X187807468Y-123510453D01*
X187983938Y-123856794D01*
X188195643Y-124182793D01*
X188440266Y-124484876D01*
X188715124Y-124759734D01*
X189017207Y-125004357D01*
X189343205Y-125216062D01*
X189346139Y-125217557D01*
X189346146Y-125217561D01*
X189686607Y-125391034D01*
X189689547Y-125392532D01*
X190052438Y-125531833D01*
X190427901Y-125632438D01*
X190631793Y-125664732D01*
X190808576Y-125692732D01*
X190808584Y-125692733D01*
X190811824Y-125693246D01*
X191200000Y-125713589D01*
X191588176Y-125693246D01*
X191591416Y-125692733D01*
X191591424Y-125692732D01*
X191768207Y-125664732D01*
X191972099Y-125632438D01*
X192347562Y-125531833D01*
X192710453Y-125392532D01*
X192713393Y-125391034D01*
X193053854Y-125217561D01*
X193053861Y-125217557D01*
X193056795Y-125216062D01*
X193382793Y-125004357D01*
X193684876Y-124759734D01*
X193959734Y-124484876D01*
X194204357Y-124182793D01*
X194416062Y-123856794D01*
X194592532Y-123510453D01*
X194731833Y-123147562D01*
X194832438Y-122772099D01*
X194893246Y-122388176D01*
X194913589Y-122000000D01*
X194893246Y-121611824D01*
X194832438Y-121227901D01*
X194731833Y-120852438D01*
X194592532Y-120489547D01*
X194416062Y-120143206D01*
X194204357Y-119817207D01*
X193959734Y-119515124D01*
X193684876Y-119240266D01*
X193382793Y-118995643D01*
X193056795Y-118783938D01*
X193053861Y-118782443D01*
X193053854Y-118782439D01*
X192713393Y-118608966D01*
X192710453Y-118607468D01*
X192347562Y-118468167D01*
X191972099Y-118367562D01*
X191768207Y-118335268D01*
X191591424Y-118307268D01*
X191591416Y-118307267D01*
X191588176Y-118306754D01*
X191200000Y-118286411D01*
X190811824Y-118306754D01*
X190808584Y-118307267D01*
X190808576Y-118307268D01*
X190631793Y-118335268D01*
X190427901Y-118367562D01*
X190052438Y-118468167D01*
X189689547Y-118607468D01*
X189686607Y-118608966D01*
X189346147Y-118782439D01*
X189346140Y-118782443D01*
X189343206Y-118783938D01*
X189017207Y-118995643D01*
X188715124Y-119240266D01*
X188440266Y-119515124D01*
X188195643Y-119817207D01*
X187983938Y-120143206D01*
X187807468Y-120489547D01*
X187668167Y-120852438D01*
X187567562Y-121227901D01*
X187506754Y-121611824D01*
X187486411Y-122000000D01*
X164913589Y-122000000D01*
X164893246Y-121611824D01*
X164832438Y-121227901D01*
X164731833Y-120852438D01*
X164592532Y-120489547D01*
X164416062Y-120143206D01*
X164204357Y-119817207D01*
X163959734Y-119515124D01*
X163684876Y-119240266D01*
X163382793Y-118995643D01*
X163056795Y-118783938D01*
X163053861Y-118782443D01*
X163053854Y-118782439D01*
X162713393Y-118608966D01*
X162710453Y-118607468D01*
X162347562Y-118468167D01*
X161972099Y-118367562D01*
X161768207Y-118335268D01*
X161591424Y-118307268D01*
X161591416Y-118307267D01*
X161588176Y-118306754D01*
X161200000Y-118286411D01*
X160811824Y-118306754D01*
X160808584Y-118307267D01*
X160808576Y-118307268D01*
X160631793Y-118335268D01*
X160427901Y-118367562D01*
X160052438Y-118468167D01*
X159689547Y-118607468D01*
X159686607Y-118608966D01*
X159346147Y-118782439D01*
X159346140Y-118782443D01*
X159343206Y-118783938D01*
X159017207Y-118995643D01*
X158715124Y-119240266D01*
X158440266Y-119515124D01*
X158195643Y-119817207D01*
X157983938Y-120143206D01*
X157807468Y-120489547D01*
X157668167Y-120852438D01*
X157567562Y-121227901D01*
X157506754Y-121611824D01*
X157486411Y-122000000D01*
X104913589Y-122000000D01*
X104893246Y-121611824D01*
X104832438Y-121227901D01*
X104731833Y-120852438D01*
X104592532Y-120489547D01*
X104416062Y-120143206D01*
X104204357Y-119817207D01*
X103959734Y-119515124D01*
X103684876Y-119240266D01*
X103382793Y-118995643D01*
X103056795Y-118783938D01*
X103053861Y-118782443D01*
X103053854Y-118782439D01*
X102713393Y-118608966D01*
X102710453Y-118607468D01*
X102347562Y-118468167D01*
X101972099Y-118367562D01*
X101768207Y-118335268D01*
X101591424Y-118307268D01*
X101591416Y-118307267D01*
X101588176Y-118306754D01*
X101200000Y-118286411D01*
X100811824Y-118306754D01*
X100808584Y-118307267D01*
X100808576Y-118307268D01*
X100631793Y-118335268D01*
X100427901Y-118367562D01*
X100052438Y-118468167D01*
X99689547Y-118607468D01*
X99686607Y-118608966D01*
X99346147Y-118782439D01*
X99346140Y-118782443D01*
X99343206Y-118783938D01*
X99017207Y-118995643D01*
X98715124Y-119240266D01*
X98440266Y-119515124D01*
X98195643Y-119817207D01*
X97983938Y-120143206D01*
X97807468Y-120489547D01*
X97668167Y-120852438D01*
X97567562Y-121227901D01*
X97506754Y-121611824D01*
X97486411Y-122000000D01*
X76708500Y-122000000D01*
X76708500Y-114300000D01*
X231236411Y-114300000D01*
X231256754Y-114688176D01*
X231317562Y-115072099D01*
X231418167Y-115447562D01*
X231557468Y-115810453D01*
X231733938Y-116156794D01*
X231945643Y-116482793D01*
X232190266Y-116784876D01*
X232465124Y-117059734D01*
X232767207Y-117304357D01*
X233093205Y-117516062D01*
X233096139Y-117517557D01*
X233096146Y-117517561D01*
X233436607Y-117691034D01*
X233439547Y-117692532D01*
X233802438Y-117831833D01*
X234177901Y-117932438D01*
X234381793Y-117964732D01*
X234558576Y-117992732D01*
X234558584Y-117992733D01*
X234561824Y-117993246D01*
X234950000Y-118013589D01*
X235338176Y-117993246D01*
X235341416Y-117992733D01*
X235341424Y-117992732D01*
X235518207Y-117964732D01*
X235722099Y-117932438D01*
X236097562Y-117831833D01*
X236460453Y-117692532D01*
X236463393Y-117691034D01*
X236803854Y-117517561D01*
X236803861Y-117517557D01*
X236806795Y-117516062D01*
X237132793Y-117304357D01*
X237434876Y-117059734D01*
X237709734Y-116784876D01*
X237954357Y-116482793D01*
X238166062Y-116156794D01*
X238342532Y-115810453D01*
X238481833Y-115447562D01*
X238582438Y-115072099D01*
X238643246Y-114688176D01*
X238663589Y-114300000D01*
X238643246Y-113911824D01*
X238582438Y-113527901D01*
X238481833Y-113152438D01*
X238342532Y-112789547D01*
X238166062Y-112443206D01*
X237954357Y-112117207D01*
X237709734Y-111815124D01*
X237434876Y-111540266D01*
X237132793Y-111295643D01*
X236806795Y-111083938D01*
X236803861Y-111082443D01*
X236803854Y-111082439D01*
X236463393Y-110908966D01*
X236460453Y-110907468D01*
X236097562Y-110768167D01*
X235722099Y-110667562D01*
X235518207Y-110635268D01*
X235341424Y-110607268D01*
X235341416Y-110607267D01*
X235338176Y-110606754D01*
X234950000Y-110586411D01*
X234561824Y-110606754D01*
X234558584Y-110607267D01*
X234558576Y-110607268D01*
X234381793Y-110635268D01*
X234177901Y-110667562D01*
X233802438Y-110768167D01*
X233439547Y-110907468D01*
X233436607Y-110908966D01*
X233096147Y-111082439D01*
X233096140Y-111082443D01*
X233093206Y-111083938D01*
X232767207Y-111295643D01*
X232465124Y-111540266D01*
X232190266Y-111815124D01*
X231945643Y-112117207D01*
X231733938Y-112443206D01*
X231557468Y-112789547D01*
X231418167Y-113152438D01*
X231317562Y-113527901D01*
X231256754Y-113911824D01*
X231236411Y-114300000D01*
X76708500Y-114300000D01*
X76708500Y-96600000D01*
X97486411Y-96600000D01*
X97506754Y-96988176D01*
X97567562Y-97372099D01*
X97668167Y-97747562D01*
X97807468Y-98110453D01*
X97983938Y-98456794D01*
X98195643Y-98782793D01*
X98440266Y-99084876D01*
X98715124Y-99359734D01*
X99017207Y-99604357D01*
X99343205Y-99816062D01*
X99346139Y-99817557D01*
X99346146Y-99817561D01*
X99686607Y-99991034D01*
X99689547Y-99992532D01*
X100052438Y-100131833D01*
X100427901Y-100232438D01*
X100631793Y-100264732D01*
X100808576Y-100292732D01*
X100808584Y-100292733D01*
X100811824Y-100293246D01*
X101200000Y-100313589D01*
X101588176Y-100293246D01*
X101591416Y-100292733D01*
X101591424Y-100292732D01*
X101768207Y-100264732D01*
X101972099Y-100232438D01*
X102347562Y-100131833D01*
X102710453Y-99992532D01*
X102713393Y-99991034D01*
X103053854Y-99817561D01*
X103053861Y-99817557D01*
X103056795Y-99816062D01*
X103382793Y-99604357D01*
X103684876Y-99359734D01*
X103959734Y-99084876D01*
X104204357Y-98782793D01*
X104416062Y-98456794D01*
X104592532Y-98110453D01*
X104731833Y-97747562D01*
X104832438Y-97372099D01*
X104893246Y-96988176D01*
X104913589Y-96600000D01*
X157486411Y-96600000D01*
X157506754Y-96988176D01*
X157567562Y-97372099D01*
X157668167Y-97747562D01*
X157807468Y-98110453D01*
X157983938Y-98456794D01*
X158195643Y-98782793D01*
X158440266Y-99084876D01*
X158715124Y-99359734D01*
X159017207Y-99604357D01*
X159343205Y-99816062D01*
X159346139Y-99817557D01*
X159346146Y-99817561D01*
X159686607Y-99991034D01*
X159689547Y-99992532D01*
X160052438Y-100131833D01*
X160427901Y-100232438D01*
X160631793Y-100264732D01*
X160808576Y-100292732D01*
X160808584Y-100292733D01*
X160811824Y-100293246D01*
X161200000Y-100313589D01*
X161588176Y-100293246D01*
X161591416Y-100292733D01*
X161591424Y-100292732D01*
X161768207Y-100264732D01*
X161972099Y-100232438D01*
X162347562Y-100131833D01*
X162710453Y-99992532D01*
X162713393Y-99991034D01*
X163053854Y-99817561D01*
X163053861Y-99817557D01*
X163056795Y-99816062D01*
X163382793Y-99604357D01*
X163684876Y-99359734D01*
X163959734Y-99084876D01*
X164204357Y-98782793D01*
X164416062Y-98456794D01*
X164592532Y-98110453D01*
X164731833Y-97747562D01*
X164832438Y-97372099D01*
X164893246Y-96988176D01*
X164913589Y-96600000D01*
X187486411Y-96600000D01*
X187506754Y-96988176D01*
X187567562Y-97372099D01*
X187668167Y-97747562D01*
X187807468Y-98110453D01*
X187983938Y-98456794D01*
X188195643Y-98782793D01*
X188440266Y-99084876D01*
X188715124Y-99359734D01*
X189017207Y-99604357D01*
X189343205Y-99816062D01*
X189346139Y-99817557D01*
X189346146Y-99817561D01*
X189686607Y-99991034D01*
X189689547Y-99992532D01*
X190052438Y-100131833D01*
X190427901Y-100232438D01*
X190631793Y-100264732D01*
X190808576Y-100292732D01*
X190808584Y-100292733D01*
X190811824Y-100293246D01*
X191200000Y-100313589D01*
X191588176Y-100293246D01*
X191591416Y-100292733D01*
X191591424Y-100292732D01*
X191768207Y-100264732D01*
X191972099Y-100232438D01*
X192347562Y-100131833D01*
X192710453Y-99992532D01*
X192713393Y-99991034D01*
X193053854Y-99817561D01*
X193053861Y-99817557D01*
X193056795Y-99816062D01*
X193382793Y-99604357D01*
X193684876Y-99359734D01*
X193959734Y-99084876D01*
X194204357Y-98782793D01*
X194416062Y-98456794D01*
X194592532Y-98110453D01*
X194731833Y-97747562D01*
X194832438Y-97372099D01*
X194893246Y-96988176D01*
X194913589Y-96600000D01*
X194893246Y-96211824D01*
X194832438Y-95827901D01*
X194731833Y-95452438D01*
X194592532Y-95089547D01*
X194416062Y-94743206D01*
X194204357Y-94417207D01*
X193959734Y-94115124D01*
X193684876Y-93840266D01*
X193382793Y-93595643D01*
X193056795Y-93383938D01*
X193053861Y-93382443D01*
X193053854Y-93382439D01*
X192713393Y-93208966D01*
X192710453Y-93207468D01*
X192347562Y-93068167D01*
X191972099Y-92967562D01*
X191768207Y-92935268D01*
X191591424Y-92907268D01*
X191591416Y-92907267D01*
X191588176Y-92906754D01*
X191200000Y-92886411D01*
X190811824Y-92906754D01*
X190808584Y-92907267D01*
X190808576Y-92907268D01*
X190631793Y-92935268D01*
X190427901Y-92967562D01*
X190052438Y-93068167D01*
X189689547Y-93207468D01*
X189686607Y-93208966D01*
X189346147Y-93382439D01*
X189346140Y-93382443D01*
X189343206Y-93383938D01*
X189017207Y-93595643D01*
X188715124Y-93840266D01*
X188440266Y-94115124D01*
X188195643Y-94417207D01*
X187983938Y-94743206D01*
X187807468Y-95089547D01*
X187668167Y-95452438D01*
X187567562Y-95827901D01*
X187506754Y-96211824D01*
X187486411Y-96600000D01*
X164913589Y-96600000D01*
X164893246Y-96211824D01*
X164832438Y-95827901D01*
X164731833Y-95452438D01*
X164592532Y-95089547D01*
X164416062Y-94743206D01*
X164204357Y-94417207D01*
X163959734Y-94115124D01*
X163684876Y-93840266D01*
X163382793Y-93595643D01*
X163056795Y-93383938D01*
X163053861Y-93382443D01*
X163053854Y-93382439D01*
X162713393Y-93208966D01*
X162710453Y-93207468D01*
X162347562Y-93068167D01*
X161972099Y-92967562D01*
X161768207Y-92935268D01*
X161591424Y-92907268D01*
X161591416Y-92907267D01*
X161588176Y-92906754D01*
X161200000Y-92886411D01*
X160811824Y-92906754D01*
X160808584Y-92907267D01*
X160808576Y-92907268D01*
X160631793Y-92935268D01*
X160427901Y-92967562D01*
X160052438Y-93068167D01*
X159689547Y-93207468D01*
X159686607Y-93208966D01*
X159346147Y-93382439D01*
X159346140Y-93382443D01*
X159343206Y-93383938D01*
X159017207Y-93595643D01*
X158715124Y-93840266D01*
X158440266Y-94115124D01*
X158195643Y-94417207D01*
X157983938Y-94743206D01*
X157807468Y-95089547D01*
X157668167Y-95452438D01*
X157567562Y-95827901D01*
X157506754Y-96211824D01*
X157486411Y-96600000D01*
X104913589Y-96600000D01*
X104893246Y-96211824D01*
X104832438Y-95827901D01*
X104731833Y-95452438D01*
X104592532Y-95089547D01*
X104416062Y-94743206D01*
X104204357Y-94417207D01*
X103959734Y-94115124D01*
X103684876Y-93840266D01*
X103382793Y-93595643D01*
X103056795Y-93383938D01*
X103053861Y-93382443D01*
X103053854Y-93382439D01*
X102713393Y-93208966D01*
X102710453Y-93207468D01*
X102347562Y-93068167D01*
X101972099Y-92967562D01*
X101768207Y-92935268D01*
X101591424Y-92907268D01*
X101591416Y-92907267D01*
X101588176Y-92906754D01*
X101200000Y-92886411D01*
X100811824Y-92906754D01*
X100808584Y-92907267D01*
X100808576Y-92907268D01*
X100631793Y-92935268D01*
X100427901Y-92967562D01*
X100052438Y-93068167D01*
X99689547Y-93207468D01*
X99686607Y-93208966D01*
X99346147Y-93382439D01*
X99346140Y-93382443D01*
X99343206Y-93383938D01*
X99017207Y-93595643D01*
X98715124Y-93840266D01*
X98440266Y-94115124D01*
X98195643Y-94417207D01*
X97983938Y-94743206D01*
X97807468Y-95089547D01*
X97668167Y-95452438D01*
X97567562Y-95827901D01*
X97506754Y-96211824D01*
X97486411Y-96600000D01*
X76708500Y-96600000D01*
X76708500Y-88900000D01*
X231236411Y-88900000D01*
X231256754Y-89288176D01*
X231317562Y-89672099D01*
X231418167Y-90047562D01*
X231557468Y-90410453D01*
X231733938Y-90756794D01*
X231945643Y-91082793D01*
X232190266Y-91384876D01*
X232465124Y-91659734D01*
X232767207Y-91904357D01*
X233093205Y-92116062D01*
X233096139Y-92117557D01*
X233096146Y-92117561D01*
X233436607Y-92291034D01*
X233439547Y-92292532D01*
X233802438Y-92431833D01*
X234177901Y-92532438D01*
X234381793Y-92564732D01*
X234558576Y-92592732D01*
X234558584Y-92592733D01*
X234561824Y-92593246D01*
X234950000Y-92613589D01*
X235338176Y-92593246D01*
X235341416Y-92592733D01*
X235341424Y-92592732D01*
X235518207Y-92564732D01*
X235722099Y-92532438D01*
X236097562Y-92431833D01*
X236460453Y-92292532D01*
X236463393Y-92291034D01*
X236803854Y-92117561D01*
X236803861Y-92117557D01*
X236806795Y-92116062D01*
X237132793Y-91904357D01*
X237434876Y-91659734D01*
X237709734Y-91384876D01*
X237954357Y-91082793D01*
X238166062Y-90756794D01*
X238342532Y-90410453D01*
X238481833Y-90047562D01*
X238582438Y-89672099D01*
X238643246Y-89288176D01*
X238663589Y-88900000D01*
X238643246Y-88511824D01*
X238582438Y-88127901D01*
X238481833Y-87752438D01*
X238342532Y-87389547D01*
X238166062Y-87043206D01*
X237954357Y-86717207D01*
X237709734Y-86415124D01*
X237434876Y-86140266D01*
X237132793Y-85895643D01*
X236806795Y-85683938D01*
X236803861Y-85682443D01*
X236803854Y-85682439D01*
X236463393Y-85508966D01*
X236460453Y-85507468D01*
X236097562Y-85368167D01*
X235722099Y-85267562D01*
X235518207Y-85235268D01*
X235341424Y-85207268D01*
X235341416Y-85207267D01*
X235338176Y-85206754D01*
X234950000Y-85186411D01*
X234561824Y-85206754D01*
X234558584Y-85207267D01*
X234558576Y-85207268D01*
X234381793Y-85235268D01*
X234177901Y-85267562D01*
X233802438Y-85368167D01*
X233439547Y-85507468D01*
X233436607Y-85508966D01*
X233096147Y-85682439D01*
X233096140Y-85682443D01*
X233093206Y-85683938D01*
X232767207Y-85895643D01*
X232465124Y-86140266D01*
X232190266Y-86415124D01*
X231945643Y-86717207D01*
X231733938Y-87043206D01*
X231557468Y-87389547D01*
X231418167Y-87752438D01*
X231317562Y-88127901D01*
X231256754Y-88511824D01*
X231236411Y-88900000D01*
X76708500Y-88900000D01*
X76708500Y-71200000D01*
X97486411Y-71200000D01*
X97506754Y-71588176D01*
X97567562Y-71972099D01*
X97668167Y-72347562D01*
X97807468Y-72710453D01*
X97983938Y-73056794D01*
X98195643Y-73382793D01*
X98440266Y-73684876D01*
X98715124Y-73959734D01*
X99017207Y-74204357D01*
X99343205Y-74416062D01*
X99346139Y-74417557D01*
X99346146Y-74417561D01*
X99686607Y-74591034D01*
X99689547Y-74592532D01*
X100052438Y-74731833D01*
X100427901Y-74832438D01*
X100631793Y-74864732D01*
X100808576Y-74892732D01*
X100808584Y-74892733D01*
X100811824Y-74893246D01*
X101200000Y-74913589D01*
X101588176Y-74893246D01*
X101591416Y-74892733D01*
X101591424Y-74892732D01*
X101768207Y-74864732D01*
X101972099Y-74832438D01*
X102347562Y-74731833D01*
X102710453Y-74592532D01*
X102713393Y-74591034D01*
X103053854Y-74417561D01*
X103053861Y-74417557D01*
X103056795Y-74416062D01*
X103382793Y-74204357D01*
X103684876Y-73959734D01*
X103959734Y-73684876D01*
X104204357Y-73382793D01*
X104416062Y-73056794D01*
X104592532Y-72710453D01*
X104731833Y-72347562D01*
X104832438Y-71972099D01*
X104893246Y-71588176D01*
X104913589Y-71200000D01*
X157486411Y-71200000D01*
X157506754Y-71588176D01*
X157567562Y-71972099D01*
X157668167Y-72347562D01*
X157807468Y-72710453D01*
X157983938Y-73056794D01*
X158195643Y-73382793D01*
X158440266Y-73684876D01*
X158715124Y-73959734D01*
X159017207Y-74204357D01*
X159343205Y-74416062D01*
X159346139Y-74417557D01*
X159346146Y-74417561D01*
X159686607Y-74591034D01*
X159689547Y-74592532D01*
X160052438Y-74731833D01*
X160427901Y-74832438D01*
X160631793Y-74864732D01*
X160808576Y-74892732D01*
X160808584Y-74892733D01*
X160811824Y-74893246D01*
X161200000Y-74913589D01*
X161588176Y-74893246D01*
X161591416Y-74892733D01*
X161591424Y-74892732D01*
X161768207Y-74864732D01*
X161972099Y-74832438D01*
X162347562Y-74731833D01*
X162710453Y-74592532D01*
X162713393Y-74591034D01*
X163053854Y-74417561D01*
X163053861Y-74417557D01*
X163056795Y-74416062D01*
X163382793Y-74204357D01*
X163684876Y-73959734D01*
X163959734Y-73684876D01*
X164204357Y-73382793D01*
X164416062Y-73056794D01*
X164592532Y-72710453D01*
X164731833Y-72347562D01*
X164832438Y-71972099D01*
X164893246Y-71588176D01*
X164913589Y-71200000D01*
X187486411Y-71200000D01*
X187506754Y-71588176D01*
X187567562Y-71972099D01*
X187668167Y-72347562D01*
X187807468Y-72710453D01*
X187983938Y-73056794D01*
X188195643Y-73382793D01*
X188440266Y-73684876D01*
X188715124Y-73959734D01*
X189017207Y-74204357D01*
X189343205Y-74416062D01*
X189346139Y-74417557D01*
X189346146Y-74417561D01*
X189686607Y-74591034D01*
X189689547Y-74592532D01*
X190052438Y-74731833D01*
X190427901Y-74832438D01*
X190631793Y-74864732D01*
X190808576Y-74892732D01*
X190808584Y-74892733D01*
X190811824Y-74893246D01*
X191200000Y-74913589D01*
X191588176Y-74893246D01*
X191591416Y-74892733D01*
X191591424Y-74892732D01*
X191768207Y-74864732D01*
X191972099Y-74832438D01*
X192347562Y-74731833D01*
X192710453Y-74592532D01*
X192713393Y-74591034D01*
X193053854Y-74417561D01*
X193053861Y-74417557D01*
X193056795Y-74416062D01*
X193382793Y-74204357D01*
X193684876Y-73959734D01*
X193959734Y-73684876D01*
X194204357Y-73382793D01*
X194416062Y-73056794D01*
X194592532Y-72710453D01*
X194731833Y-72347562D01*
X194832438Y-71972099D01*
X194893246Y-71588176D01*
X194913589Y-71200000D01*
X194893246Y-70811824D01*
X194832438Y-70427901D01*
X194731833Y-70052438D01*
X194592532Y-69689547D01*
X194416062Y-69343206D01*
X194204357Y-69017207D01*
X193959734Y-68715124D01*
X193684876Y-68440266D01*
X193382793Y-68195643D01*
X193056795Y-67983938D01*
X193053861Y-67982443D01*
X193053854Y-67982439D01*
X192713393Y-67808966D01*
X192710453Y-67807468D01*
X192347562Y-67668167D01*
X191972099Y-67567562D01*
X191768207Y-67535268D01*
X191591424Y-67507268D01*
X191591416Y-67507267D01*
X191588176Y-67506754D01*
X191200000Y-67486411D01*
X190811824Y-67506754D01*
X190808584Y-67507267D01*
X190808576Y-67507268D01*
X190631793Y-67535268D01*
X190427901Y-67567562D01*
X190052438Y-67668167D01*
X189689547Y-67807468D01*
X189686607Y-67808966D01*
X189346147Y-67982439D01*
X189346140Y-67982443D01*
X189343206Y-67983938D01*
X189017207Y-68195643D01*
X188715124Y-68440266D01*
X188440266Y-68715124D01*
X188195643Y-69017207D01*
X187983938Y-69343206D01*
X187807468Y-69689547D01*
X187668167Y-70052438D01*
X187567562Y-70427901D01*
X187506754Y-70811824D01*
X187486411Y-71200000D01*
X164913589Y-71200000D01*
X164893246Y-70811824D01*
X164832438Y-70427901D01*
X164731833Y-70052438D01*
X164592532Y-69689547D01*
X164416062Y-69343206D01*
X164204357Y-69017207D01*
X163959734Y-68715124D01*
X163684876Y-68440266D01*
X163382793Y-68195643D01*
X163056795Y-67983938D01*
X163053861Y-67982443D01*
X163053854Y-67982439D01*
X162713393Y-67808966D01*
X162710453Y-67807468D01*
X162347562Y-67668167D01*
X161972099Y-67567562D01*
X161768207Y-67535268D01*
X161591424Y-67507268D01*
X161591416Y-67507267D01*
X161588176Y-67506754D01*
X161200000Y-67486411D01*
X160811824Y-67506754D01*
X160808584Y-67507267D01*
X160808576Y-67507268D01*
X160631793Y-67535268D01*
X160427901Y-67567562D01*
X160052438Y-67668167D01*
X159689547Y-67807468D01*
X159686607Y-67808966D01*
X159346147Y-67982439D01*
X159346140Y-67982443D01*
X159343206Y-67983938D01*
X159017207Y-68195643D01*
X158715124Y-68440266D01*
X158440266Y-68715124D01*
X158195643Y-69017207D01*
X157983938Y-69343206D01*
X157807468Y-69689547D01*
X157668167Y-70052438D01*
X157567562Y-70427901D01*
X157506754Y-70811824D01*
X157486411Y-71200000D01*
X104913589Y-71200000D01*
X104893246Y-70811824D01*
X104832438Y-70427901D01*
X104731833Y-70052438D01*
X104592532Y-69689547D01*
X104416062Y-69343206D01*
X104204357Y-69017207D01*
X103959734Y-68715124D01*
X103684876Y-68440266D01*
X103382793Y-68195643D01*
X103056795Y-67983938D01*
X103053861Y-67982443D01*
X103053854Y-67982439D01*
X102713393Y-67808966D01*
X102710453Y-67807468D01*
X102347562Y-67668167D01*
X101972099Y-67567562D01*
X101768207Y-67535268D01*
X101591424Y-67507268D01*
X101591416Y-67507267D01*
X101588176Y-67506754D01*
X101200000Y-67486411D01*
X100811824Y-67506754D01*
X100808584Y-67507267D01*
X100808576Y-67507268D01*
X100631793Y-67535268D01*
X100427901Y-67567562D01*
X100052438Y-67668167D01*
X99689547Y-67807468D01*
X99686607Y-67808966D01*
X99346147Y-67982439D01*
X99346140Y-67982443D01*
X99343206Y-67983938D01*
X99017207Y-68195643D01*
X98715124Y-68440266D01*
X98440266Y-68715124D01*
X98195643Y-69017207D01*
X97983938Y-69343206D01*
X97807468Y-69689547D01*
X97668167Y-70052438D01*
X97567562Y-70427901D01*
X97506754Y-70811824D01*
X97486411Y-71200000D01*
X76708500Y-71200000D01*
X76708500Y-57150000D01*
X231236411Y-57150000D01*
X231256754Y-57538176D01*
X231317562Y-57922099D01*
X231418167Y-58297562D01*
X231557468Y-58660453D01*
X231733938Y-59006794D01*
X231945643Y-59332793D01*
X232190266Y-59634876D01*
X232465124Y-59909734D01*
X232767207Y-60154357D01*
X233093205Y-60366062D01*
X233096139Y-60367557D01*
X233096146Y-60367561D01*
X233436607Y-60541034D01*
X233439547Y-60542532D01*
X233802438Y-60681833D01*
X234177901Y-60782438D01*
X234381793Y-60814732D01*
X234558576Y-60842732D01*
X234558584Y-60842733D01*
X234561824Y-60843246D01*
X234950000Y-60863589D01*
X235338176Y-60843246D01*
X235341416Y-60842733D01*
X235341424Y-60842732D01*
X235518207Y-60814732D01*
X235722099Y-60782438D01*
X236097562Y-60681833D01*
X236460453Y-60542532D01*
X236463393Y-60541034D01*
X236803854Y-60367561D01*
X236803861Y-60367557D01*
X236806795Y-60366062D01*
X237132793Y-60154357D01*
X237434876Y-59909734D01*
X237709734Y-59634876D01*
X237954357Y-59332793D01*
X238166062Y-59006794D01*
X238342532Y-58660453D01*
X238481833Y-58297562D01*
X238582438Y-57922099D01*
X238643246Y-57538176D01*
X238663589Y-57150000D01*
X238643246Y-56761824D01*
X238582438Y-56377901D01*
X238481833Y-56002438D01*
X238342532Y-55639547D01*
X238166062Y-55293206D01*
X237954357Y-54967207D01*
X237709734Y-54665124D01*
X237434876Y-54390266D01*
X237132793Y-54145643D01*
X236806795Y-53933938D01*
X236803861Y-53932443D01*
X236803854Y-53932439D01*
X236463393Y-53758966D01*
X236460453Y-53757468D01*
X236097562Y-53618167D01*
X235722099Y-53517562D01*
X235518207Y-53485268D01*
X235341424Y-53457268D01*
X235341416Y-53457267D01*
X235338176Y-53456754D01*
X234950000Y-53436411D01*
X234561824Y-53456754D01*
X234558584Y-53457267D01*
X234558576Y-53457268D01*
X234381793Y-53485268D01*
X234177901Y-53517562D01*
X233802438Y-53618167D01*
X233439547Y-53757468D01*
X233436607Y-53758966D01*
X233096147Y-53932439D01*
X233096140Y-53932443D01*
X233093206Y-53933938D01*
X232767207Y-54145643D01*
X232465124Y-54390266D01*
X232190266Y-54665124D01*
X231945643Y-54967207D01*
X231733938Y-55293206D01*
X231557468Y-55639547D01*
X231418167Y-56002438D01*
X231317562Y-56377901D01*
X231256754Y-56761824D01*
X231236411Y-57150000D01*
X76708500Y-57150000D01*
X76708500Y-51434500D01*
X76728502Y-51366379D01*
X76782158Y-51319886D01*
X76834500Y-51308500D01*
X240665500Y-51308500D01*
X240733621Y-51328502D01*
G37*
%TD.AperFunction*%
M02*
